<svg xmlns="http://www.w3.org/2000/svg" xmlns:xlink="http://www.w3.org/1999/xlink" width="820.21" height="737.111" viewBox="0 0 820.21 737.111"><defs><linearGradient id="a" x1="0.5" y1="1" x2="0.5" gradientUnits="objectBoundingBox"><stop offset="0" stop-color="gray" stop-opacity="0.251"/><stop offset="0.54" stop-color="gray" stop-opacity="0.122"/><stop offset="1" stop-color="gray" stop-opacity="0.102"/></linearGradient></defs><g transform="translate(5.731 0.002)"><ellipse cx="36.698" cy="308.381" rx="36.698" ry="308.381" transform="matrix(0.137, -0.991, 0.991, 0.137, -5.731, 652.767)" fill="#09f" opacity="0.1"/><path d="M147.451,530.2c5.551,13.379,12.833,26.2,23.025,36.04,12.417,11.984,27.839,18.522,44.353,21.648a133.615,133.615,0,0,0,14.721,1.905,213.957,213.957,0,0,0,39.226-1.056,463.772,463.772,0,0,0,92.394-19.769q7.4-2.39,14.721-5.031,11.04-3.957,21.882-8.495c29.441-12.3,59.879-28,91.2-23.129,15.18,2.364,29.441,9.525,44.656,11.655a79.846,79.846,0,0,0,31.9-2.269,109.628,109.628,0,0,0,14.721-5.083A167.511,167.511,0,0,0,610.832,519.3c22.947-16.037,43.539-35.918,67.7-49.808,26.636-15.318,56.12-22.6,86.159-28.03q7.343-1.325,14.721-2.528c13.9-2.295,27.831-4.416,41.564-6.927,13.231-2.442,26.7-5.429,38.213-12.772,8.218-5.2,15.128-12.5,21.466-20.141a240.282,240.282,0,0,0,29.892-46.084q.649-1.3,1.273-2.6c12.72-26.1,21.276-54.553,26.523-83.994.156-.866.3-1.732.45-2.6a474.353,474.353,0,0,0,6.191-88.324l-.052-2.6c-.338-14.625-1.247-29.19-2.6-43.547-.97-10.1-2.269-20.574-7.5-29.06S921.092,86.35,912.571,81.812C875.077,61.835,839.132,56.276,798.8,65.957c-6.477,1.55-12.928,3.221-19.379,4.953-4.91,1.316-9.82,2.676-14.721,4.044-33.883,9.447-67.68,19.5-102.707,22.514q-5.083.442-10.157.675-10.053.468-20.107.208a347.4,347.4,0,0,1-51.47-5.3q-7.378-1.273-14.721-2.823c-21.146-4.408-42.075-10.287-62.71-16.782q-6.313-1.992-12.608-4.053c-9.456-3.091-18.912-6.243-28.385-9.309-28.281-9.153-56.7-17.544-85.943-20.921q-3.758-.424-7.516-.753c-2.4-.208-4.806-.372-7.2-.494-45.418-2.425-91.355,8.529-131.62,30.948q-7.5,4.174-14.721,8.867-10.019,6.52-19.423,14.028c-12.85,10.261-24.878,21.942-34.039,35.979-8.928,13.673-14.721,29.026-18.054,45.167-.182.866-.355,1.732-.511,2.6-4.892,26.056-3.368,54,2.122,80.106.58,2.736,1.195,5.481,1.836,8.218.2.866.407,1.732.615,2.6,5.923,24.687,13.491,49.306,11.517,74.547-.251,3.178-.649,6.33-1.169,9.447-.147.866-.294,1.732-.459,2.6-3.862,20.592-12.642,40.127-17.907,60.519a186.449,186.449,0,0,0,8.1,116.666Z" transform="translate(-130.598 -37.59)" fill="#09f" opacity="0.1"/><path d="M216.257,263.88h-68.07c.2.866.407,1.732.615,2.6h67.455v83.994H159.15c-.147.866-.294,1.732-.459,2.6h57.567V587.934a133.571,133.571,0,0,0,14.721,1.905V353.07H362.6V569.014q7.4-2.39,14.721-5.031V353.07H566.956V541.746a109.616,109.616,0,0,0,14.721-5.083V353.088H766.118v88.428q7.343-1.325,14.721-2.529V353.07H911.991q.649-1.3,1.273-2.6H780.839V266.478H939.813c.156-.866.3-1.732.45-2.6H780.839V175.556h165.59l-.052-2.6H780.839V70.97c-4.91,1.316-9.82,2.676-14.721,4.044v97.944H586.006l-.45-.494,67.68-74.27q-10.053.468-20.107.208L581.677,154.9V93.1Q574.3,91.83,566.956,90.28v61.758l-75.275-82.6c-9.456-3.091-18.912-6.243-28.385-9.309L565.657,172.465l-.45.494H377.3V39.217q-3.758-.424-7.516-.753c-2.4-.208-4.806-.372-7.2-.494V172.959H230.961V68.918q-7.5,4.174-14.721,8.867v95.173h-71.5c-.182.866-.355,1.732-.511,2.6h72.027ZM362.6,175.556V263.88H230.978V175.556Zm14.721,0H566.956V263.88H377.319Zm388.8,88.324H581.677V177.92l2.6-2.364H766.118ZM581.677,350.473V266.478H766.118v83.994Zm-204.358,0V266.478H566.956v83.994ZM230.978,266.478H362.6v83.994H230.978Z" transform="translate(-132.027 -37.641)" fill="#09f" opacity="0.1"/><path d="M667.047,224.49a11.17,11.17,0,0,1,3.793-2.156,25.493,25.493,0,0,1,9.646-1.048,42.428,42.428,0,0,1,7.075.987l108.794,30.792c2.052.58,4.07,1.264,6.061,2.026,7.014-2.745,26.844-10.694,29.017-13.534l8.521,2.494-14.218,21.224h0a1.948,1.948,0,0,1-.138,3.62c-16.392,5.637-41.149-1.836-41.149-1.836L689.4,239.9S660.674,230.205,667.047,224.49Z" transform="translate(-202.001 -62.208)" fill="#09f" opacity="0.1"/><ellipse cx="1.385" cy="0.831" rx="1.385" ry="0.831" transform="translate(589.524 197.322) rotate(-71.78)" fill="#09f" opacity="0.1"/><ellipse cx="1.385" cy="0.831" rx="1.385" ry="0.831" transform="translate(586.234 196.238) rotate(-71.78)" fill="#09f" opacity="0.1"/><ellipse cx="1.385" cy="0.831" rx="1.385" ry="0.831" transform="translate(579.9 194.151) rotate(-71.78)" fill="#09f" opacity="0.1"/><ellipse cx="1.385" cy="0.831" rx="1.385" ry="0.831" transform="translate(562.053 188.907) rotate(-71.78)" fill="#09f" opacity="0.1"/><ellipse cx="1.385" cy="0.831" rx="1.385" ry="0.831" transform="translate(558.906 187.879) rotate(-71.78)" fill="#09f" opacity="0.1"/><ellipse cx="1.385" cy="0.831" rx="1.385" ry="0.831" transform="translate(555.657 187.114) rotate(-71.78)" fill="#09f" opacity="0.1"/><ellipse cx="1.385" cy="0.831" rx="1.385" ry="0.831" transform="translate(552.384 186.043) rotate(-71.78)" fill="#09f" opacity="0.1"/><ellipse cx="1.385" cy="0.831" rx="1.385" ry="0.831" transform="translate(549.175 184.98) rotate(-71.78)" fill="#09f" opacity="0.1"/><ellipse cx="1.385" cy="0.831" rx="1.385" ry="0.831" transform="translate(546.259 184.023) rotate(-71.78)" fill="#09f" opacity="0.1"/><ellipse cx="1.385" cy="0.831" rx="1.385" ry="0.831" transform="translate(543.136 182.99) rotate(-71.78)" fill="#09f" opacity="0.1"/><ellipse cx="1.385" cy="0.831" rx="1.385" ry="0.831" transform="translate(539.872 181.919) rotate(-71.78)" fill="#09f" opacity="0.1"/><ellipse cx="1.385" cy="0.831" rx="1.385" ry="0.831" transform="translate(536.972 180.965) rotate(-71.78)" fill="#09f" opacity="0.1"/><ellipse cx="1.385" cy="0.831" rx="1.385" ry="0.831" transform="translate(519.061 176.125) rotate(-71.928)" fill="#09f" opacity="0.1"/><ellipse cx="1.385" cy="0.831" rx="1.385" ry="0.831" transform="translate(514.408 174.683) rotate(-71.78)" fill="#09f" opacity="0.1"/><ellipse cx="1.385" cy="0.831" rx="1.385" ry="0.831" transform="translate(511.221 173.633) rotate(-71.78)" fill="#09f" opacity="0.1"/><ellipse cx="1.385" cy="0.831" rx="1.385" ry="0.831" transform="translate(508.135 172.622) rotate(-71.78)" fill="#09f" opacity="0.1"/><ellipse cx="1.385" cy="0.831" rx="1.385" ry="0.831" transform="translate(505.096 171.622) rotate(-71.78)" fill="#09f" opacity="0.1"/><ellipse cx="1.385" cy="0.831" rx="1.385" ry="0.831" transform="translate(501.665 170.48) rotate(-71.78)" fill="#09f" opacity="0.1"/><ellipse cx="1.385" cy="0.831" rx="1.385" ry="0.831" transform="translate(517.461 175.688) rotate(-71.78)" fill="#09f" opacity="0.1"/><ellipse cx="1.385" cy="0.831" rx="1.385" ry="0.831" transform="translate(582.817 195.108) rotate(-71.78)" fill="#09f" opacity="0.1"/><rect width="3.065" height="5.343" transform="matrix(-0.971, -0.24, 0.24, -0.971, 534.013, 182.823)" fill="#09f" opacity="0.1"/><rect width="3.065" height="5.343" transform="matrix(-0.971, -0.24, 0.24, -0.971, 498.948, 172.787)" fill="#09f" opacity="0.1"/><path d="M556.949,185.21l3.957,1.039-1.974,2.979-5.862-1.455Z" transform="translate(-74.923 -24.833)" fill="#09f" opacity="0.1"/><path d="M671.57,222.374l8.547,2.225,3.256-2.009-2.156-1.264A25.493,25.493,0,0,0,671.57,222.374Z" transform="translate(-202.732 -62.213)" fill="#09f" opacity="0.1"/><path d="M861.073,247.144l-14.218,21.293-23.224-10.3s26.3-10.027,28.9-13.491Z" transform="translate(-223.12 -65.352)" fill="#09f" opacity="0.1"/><path d="M618.51,213.63l37.52,10.131,2.217,4.434Z" transform="translate(-83.697 -28.643)" fill="#09f" opacity="0.1"/><path d="M316.745,125.766h1.134a2.806,2.806,0,0,1-1.386-2.269h0c0-1.784,2.191-3.247,4.867-3.247H355.5c2.676,0,4.866,1.463,4.866,3.247h0c0,1.792-2.191,3.256-4.866,3.256h-1.143a2.831,2.831,0,0,1,1.394,2.269c0,1.524-1.593,2.814-3.732,3.161h9.828c2.676,0,4.875,1.463,4.875,3.247s-2.2,3.256-4.875,3.256H327.708c-2.676,0-4.866-1.463-4.866-3.256,0-1.524,1.593-2.806,3.723-3.152h-9.82c-2.684,0-4.875-1.463-4.875-3.256S314.061,125.766,316.745,125.766Z" transform="translate(-154.504 -48.673)" fill="#09f" opacity="0.1"/><path d="M743.905,161.535h1.16a2.823,2.823,0,0,1-1.385-2.269h0c0-1.792,2.191-3.256,4.866-3.256h34.135c2.676,0,4.866,1.463,4.866,3.256h0c0,1.784-2.191,3.247-4.866,3.247h-1.143a2.84,2.84,0,0,1,1.394,2.269c0,1.533-1.593,2.814-3.723,3.161h9.82c2.684,0,4.875,1.463,4.875,3.256s-2.191,3.247-4.875,3.247H754.876c-2.684,0-4.875-1.463-4.875-3.247,0-1.524,1.593-2.814,3.723-3.161h-9.82c-2.684,0-4.875-1.463-4.875-3.256S741.221,161.535,743.905,161.535Z" transform="translate(-211.777 -53.468)" fill="#09f" opacity="0.1"/><path d="M256.245,314.595h1.143a2.823,2.823,0,0,1-1.394-2.269h0c0-1.792,2.191-3.256,4.866-3.256H295c2.676,0,4.866,1.463,4.866,3.256h0c0,1.784-2.191,3.247-4.866,3.247h-1.143a2.823,2.823,0,0,1,1.394,2.269c0,1.524-1.593,2.814-3.723,3.161h9.82c2.684,0,4.875,1.463,4.875,3.256s-2.191,3.247-4.875,3.247H267.251c-2.684,0-4.875-1.463-4.875-3.247,0-1.533,1.593-2.814,3.732-3.161h-9.863c-2.676,0-4.875-1.463-4.875-3.256S253.647,314.595,256.245,314.595Z" transform="translate(-146.392 -73.99)" fill="#09f" opacity="0.1"/><path d="M618.14,311.565c-.866-5.447-6.3-15.4-6.3-15.4l-7.854-13.335s-3.083-3.646-2.8-4.823-3.646-3.126-3.646-3.126-2.243-2.927-2.381-4.33-12.755-12-12.755-12-4.33-3.628-3.36-15.9h-9.949a52.826,52.826,0,0,0-7.577.753L547,226.453s-11.422-9.465-21.518-15.05v-.26a30.541,30.541,0,0,0-5.551-17.665l-.1-.139a13.509,13.509,0,0,0,4.5-2.078,5.541,5.541,0,0,0,2.009-2.468c1.619-4.156-4.771-6.061-7.689-7.559-5.914-3.048-10.833-7.585-16.868-10.391a45.028,45.028,0,0,0-38.386.242c-5.9,2.918-11.032,7.109-16.331,11-8.3,6.061-5.109,11.647-11.6,19.63s-10.166,19.232-6.1,28.671c2.39,5.542,7.144,9.794,12.365,12.859s-1.152,5.092,4.442,7.412c1.316.554,2.754,1.238,3.29,2.6a5.256,5.256,0,0,1-.147,3.412c-1.03,3.68-2.4,7.646-1.671,11.257-3.464,1.619-5.845,2.52-5.845,2.52-7.187,2.511-8.408,7.594-8.408,7.594s1.308,4.5-1.585,6.737-1.68,8.365-1.68,8.365-3.923,8.832-2.909,10.131a24.654,24.654,0,0,1,2.07,3.542s-3.273,2.6-1.593,6.321a10.671,10.671,0,0,1,0,7.715s.866,2.052-.649,3.169,0,9.62,0,9.62a5.049,5.049,0,0,1-1.221,3.117c-1.264,1.489,0,15.994,0,15.994a4.868,4.868,0,0,1-1.541,1.818c-.866.416-3.36,14.089-2.658,14.781s-10.564,33.572-10.564,33.572.277,5.715-1.264,6.694-1.818,7.534-1.818,7.534.693,5.854-2.1,6.971-3.368,20.929-3.368,20.929-3.784,10.183-6.061,11.854a28.741,28.741,0,0,0,8.235,6.927l-.346.918c-1.9,5.2-4.477,13.249-4.815,19.916a43.922,43.922,0,0,0-6.113,7.326s1,.866,2.225,1.905l-28.645,35.364c-11.707-16.773-18.063-10.556-18.063-10.556l-4.33,1.186c-.667.156-3.256.58-3.464-2.321a8.124,8.124,0,0,0-.624-2.494,6.3,6.3,0,0,0-1.818-2.494,3.905,3.905,0,0,0-4.009-.58c-3.637,1.4-51.488,9.525-51.488,9.525s-14.937,2.511-28.671,20.644a232.585,232.585,0,0,1-26.064,29.294l-37.339,44.326s-18.842,25.467-9.7,25.008a16.461,16.461,0,0,0-.113,10.98l36.992,47.089a7.568,7.568,0,1,0,12.435-5.767l55.22-25.6a7.551,7.551,0,1,0,11.551-9.525L318.4,637s61.939-65,66.676-74.772c2.693-5.525-2.044-13.11-6.659-18.643l39.521-51.089,1.42.641,7.949-8.114c6.062-4.867.927-11.136.927-11.136-1.81-1.637-5.256-1.385-9.153-.277.364-1.559.693-3.074.97-4.494.078-.381.156-.753.225-1.126a36.425,36.425,0,0,0,7.412-.753s.866-18.271,3.36-25.527l7.43-36.966s4.485-15.76,6.165-24.41,9.066-41.85,9.066-41.85c1.2-3.628,1.732,6.139,1.732,6.139s2.433,2.511,1.87,3.81.468,8.746.468,8.746,1.308,4.46.381,5.395a2.33,2.33,0,0,0-.424.762,62.452,62.452,0,0,0-2.018,8.114l-3.282,12.166-.546.442a16.971,16.971,0,0,0-4.719,6.771c-1,2.321-1.567,4.52-2.156,5.923a4.174,4.174,0,0,1-.5.866,6.8,6.8,0,0,0-.866,1.533,30.836,30.836,0,0,0-1.68,5.949l.39.251a.707.707,0,0,1-.1.242L442.1,406v.052c-.355.866-.684,1.775-1.013,2.676l-.1.286c-.3.866-.6,1.732-.866,2.554-.043.147-.1.294-.139.442-.268.805-.52,1.611-.762,2.4l-.156.5c-.225.753-.45,1.5-.658,2.225a.9.9,0,0,1-.078.26,73.251,73.251,0,0,0-2.806,19.163c-.2,15.292-.346,46.162,1.541,50.336.121.277.251.6.372.952,2.338,6.849,4.113,27.5,4.113,27.5a33.536,33.536,0,0,0,3.905,2.312c.043.39.087.779.139,1.186,1,8.495,2.4,19.985,2.866,21.146.753,1.862,2.433,12.989,2.433,12.989s-1.316,5.014-2.243,9.664-13.084,17.492-13.084,17.492c-15.491,12.85-31,58.251-31,58.251-3.091,6.65-6.5,9.109-9.014,9.958-16.738-.623-17.518,12.989-17.518,12.989l-10.564,20.271,2.676,1.9,1.256.866,10.746-12.461s0,14.227-1.966,17.665c-1.334,2.338-1.55,6.624-1.55,9.135,0,1.178.052,1.966.052,1.966s3.273,6.927,17.656,15.5c6.46,3.836,10.227,3.187,12.417,1.29,2.684-2.321,3-6.494,3-6.494l-6.061-10.3c-.3.13-.6.225-.866.338V699.9c.381-9.092,8.555-28.272,8.555-28.272s7.845-20.652,14.383-26.973c5.706-5.516,28.619-40.343,34.368-49.132v.294a10.508,10.508,0,0,0,.1,1.23c.866,9.413,3.464,13.569,3.464,13.569s2.987,38.1,3.542,47.8a23.452,23.452,0,0,1-2.286,12.365l-.061.1c-.061,0-5.966,3.1-6.52,9.11s2.8,11.716,2.8,11.716,7.629,19.042,7.352,24.514h4.486l-.745-16.556.069.087c.814,1.082,8.824,11.828,9.092,17.206,0,0,2.026,5.533,1.966,7.049a.575.575,0,0,1,0,.121c-.19,1.3,7.1,7.438,17.665,6.226s12.417-2.693,12.417-2.693.121-.338.277-.866c.528-1.992,1.368-6.849-2.139-9.248-4.39-3-13.517-11.43-13.907-11.785h0c-1.5-12.461-6.269-29.389-6.269-29.389V650.85s2.156-58.406.667-68.261a52.007,52.007,0,0,1,0-16.929s6.538-18.41,5.2-20.462,2.8-9.3,2.8-9.3l7.854-22.02.459-1.282h0c1.282-.485,2.121-.805,2.425-.866,2.6-.554,0-4.745,0-4.745s8.33-35.425,7.482-41.85,1.966-32.775,1.966-32.775l1.342-10.928.121-.979c.866,1.074,1.472,1.732,1.472,1.732,8.962-1.489,16.626-25.978,14.66-27.346s-7.473-19.249-7.473-19.249c-8.78-12.184-.866-37.477-.866-37.477s8.036-20.366,7.94-23.718,1.87-3.464,1.87-3.464v-.1c7.378,1.576,33,7.023,34.317,7.291a35.485,35.485,0,0,1,7.707,1.775c3.083,1.256,22.99-1.775,22.99-1.775S618.98,316.985,618.14,311.565Zm-198.3,170.673-6.46,8.209.961.433-39.287,48.977c-2.1-2.191-3.663-3.568-3.663-3.568-.4-.7-.8-1.368-1.186-2.026l29.182-37.235a3.036,3.036,0,0,0,.537.346l2.312-2.754a6.4,6.4,0,0,0,2.182,1.264c5.481,1.879,9.525-5.265,12.3-13.69a7.551,7.551,0,0,1,3.126.026Zm87.865-236.3v0Zm0-.5q0,.1,0,.2a1.522,1.522,0,0,0,.017-.2Zm53.8,38.213s-1.264-3.905-2.1-3.905a12.176,12.176,0,0,1-3.083-1.117,2.477,2.477,0,0,1-3.083-1.914c-.866-2.6-6.217-4.641-6.217-4.641s-7.845-3.256-8.5-5.958-11.863-5.672-11.863-5.672.753-1.108-4.018-2.693a17.7,17.7,0,0,1-4.607-2.814,106.414,106.414,0,0,1-10.313-9.525,27.967,27.967,0,0,1,1.013-5.984c.121-.442.251-.866.4-1.3A27.978,27.978,0,0,0,515.277,234l5.819,8.443a1.948,1.948,0,0,0,2.7.5l4.641-3.161a17.5,17.5,0,0,0,7.793,1.152l10.33,12.461a10.124,10.124,0,0,0,.442,4.191l24.012,28.463c-.632-.173-9.49-2.407-9.49-2.407Z" transform="translate(-136.677 -54.897)" fill="url(#a)"/><path d="M622.744,254.65s-26.437.277-21.934,14.92l10.088,5.854,10.053-2.044,4.719-8.339Z" transform="translate(-193.175 -66.693)" fill="#65617d"/><path d="M622.744,254.65s-26.437.277-21.934,14.92l10.088,5.854,10.053-2.044,4.719-8.339Z" transform="translate(-193.175 -66.693)" opacity="0.1"/><path d="M559.592,223.679c7.248,26.359,24.921,23.787,24.921,23.787l11.335,13.725,1.671,2.13,3.62,4.607,16.037-9.109-3.2-3.758-18.739-22.012S552.344,197.329,559.592,223.679Z" transform="translate(-187.607 -61.241)" fill="#fbbebe"/><rect width="0.485" height="4.027" rx="0.242" transform="matrix(-0.825, 0.566, -0.566, -0.825, 370.907, 171.327)" fill="#3a3768"/><rect width="0.277" height="1.325" rx="0.139" transform="matrix(-0.825, 0.566, -0.566, -0.825, 380.98, 157.335)" fill="#3a3768"/><rect width="0.311" height="2.3" rx="0.156" transform="matrix(-0.821, 0.571, -0.571, -0.821, 384.411, 163.234)" fill="#3a3768"/><rect width="0.294" height="2.329" rx="0.147" transform="matrix(-0.825, 0.566, -0.566, -0.825, 384.685, 162.713)" fill="#3a3768"/><rect width="16.34" height="33.217" rx="2.24" transform="matrix(-0.825, 0.566, -0.566, -0.825, 396.41, 180.092)" fill="#3a3768"/><path d="M554.388,222.12a.589.589,0,0,1,.814.156l.069.1a.589.589,0,0,0,.814.156l5.724-3.923a.589.589,0,0,0,.147-.814l-.069-.1a.589.589,0,0,1,.156-.814l1.108-.771a1.126,1.126,0,0,1,1.559.294l16.539,24.125a1.117,1.117,0,0,1-.294,1.55l-9.967,6.815a1.117,1.117,0,0,1-1.55-.294L552.89,224.475a1.117,1.117,0,0,1,.294-1.55Z" transform="translate(-186.793 -61.5)" fill="#09f"/><rect width="2.286" height="0.468" rx="0.234" transform="matrix(-0.825, 0.566, -0.566, -0.825, 373.013, 157.632)" fill="#e6e8ec"/><circle cx="0.26" cy="0.26" r="0.26" transform="translate(370.236 158.81)" fill="#e6e8ec"/><path d="M503.281,647.706c0,.52.078,1.022.121,1.524.866,9.4,3.42,13.56,3.42,13.56s2.97,38.1,3.524,47.782a23.52,23.52,0,0,1-2.277,12.357,10.992,10.992,0,0,1-1.247,1.966l-1.862,4.087,8.737,17.474,10.227,16.92,7.066,9.291s5.2.745,6.321,0,5.568,0,5.568,0l4.1-6.321-4.589-6.209-1.732-2.338c-1.489-12.461-6.235-29.381-6.235-29.381V702.952s2.147-58.372.658-68.235a52.2,52.2,0,0,1,0-16.912s6.5-18.409,5.2-20.453,2.788-9.3,2.788-9.3l7.793-22,.45-1.29-1.732-4.217L505.705,555s.346,3.464.727,8.962v.121c.225,3.187.45,7.066.632,11.4.606,14.565.658,34.117-2.1,49.054a93.9,93.9,0,0,0-1.68,23.172Z" transform="translate(-180.151 -106.964)" fill="#fbbebe"/><path d="M503.4,650.607l2.3-3.542a77.847,77.847,0,0,1,14.123-10.781c8-4.65,9.854-15.587,9.525-17.1s1.117-15.587,1.117-15.587V567.868l-23.995-2.6c.953,13.915,2.121,41.14-1.472,60.615A90.365,90.365,0,0,0,503.4,650.607Z" transform="translate(-180.147 -108.341)" opacity="0.1"/><path d="M417,739.522l1.862,17.1,9.1,5.386s8.374.935,6.884-6.5a10.9,10.9,0,0,1-.139-2.416c.372-9.083,8.5-28.255,8.5-28.255S451,704.2,457.525,697.871c5.68-5.507,28.48-40.317,34.2-49.106l1.308-2.018a78.094,78.094,0,0,1,14.132-10.781c7.992-4.65,9.854-15.587,9.525-17.1s1.108-15.587,1.108-15.587V567.55l-22.878-2.442L474.3,562.9s.459,4.035,1.048,9.17c1,8.486,2.4,19.977,2.858,21.137.753,1.862,2.425,12.989,2.425,12.989s-1.308,5.014-2.234,9.664-12.989,17.483-12.989,17.483c-15.431,12.824-30.861,58.181-30.861,58.181-4.061,8.781-8.659,10.27-11.049,10.391a4.723,4.723,0,0,1-1.593-.147l-3.351,6.139Z" transform="translate(-168.599 -108.023)" fill="#fbbebe"/><path d="M505.24,754.983l8.737,17.474,10.227,16.92,7.066,9.291s5.2.745,6.321,0,5.568,0,5.568,0l4.1-6.321-4.589-6.209c1.2,2.771,2.191,6.226-.242,6.39-4.087.286-12.547,3.724-17.379-7.9s-11.257-16.825-11.257-16.825l-5.118-12.452-.329-6.425a11,11,0,0,1-1.247,1.966Z" transform="translate(-180.43 -132.965)" opacity="0.1"/><path d="M504.046,769.871s7.62,18.964,7.343,24.454h4.459l-.745-16.556.069.1c.814,1.082,8.78,11.82,9.049,17.2,0,0,2.018,5.525,1.957,7.04a.536.536,0,0,1,0,.121c-.191,1.3,7.057,7.438,17.569,6.226s12.357-2.693,12.357-2.693.121-.338.277-.866c.52-1.992,1.36-6.841-2.13-9.239-4.373-3.013-13.491-11.465-13.855-11.785.234.416,5.473,9.525,1.472,9.828s-12.547,3.723-17.379-7.9-11.257-16.825-11.257-16.825l-5.118-12.452-.381-7.438s-5.94,3.065-6.494,9.11S504.046,769.871,504.046,769.871Z" transform="translate(-179.886 -132.985)" fill="#3f3d56"/><path d="M511.888,781.453c.528,4.451,1.836,12.642,2.511,16.834h2.875l-.745-16.556.069.1-.251-.736S511.108,775.322,511.888,781.453Z" transform="translate(-181.311 -136.948)" opacity="0.1"/><path d="M530,810.435c-.19,1.3,7.057,7.438,17.569,6.226s12.357-2.693,12.357-2.693.121-.338.277-.866c-6.546.078-24.021,0-30.195-2.762a.537.537,0,0,1-.009.1Z" transform="translate(-183.75 -141.199)" opacity="0.1"/><path d="M417,761.026l1.862,17.1,9.1,5.386s8.374.935,6.884-6.5a10.9,10.9,0,0,1-.139-2.416c-14.054,5.2-15.474-8.555-15.474-8.555l2.511-37.46a8.191,8.191,0,0,1,1.68-5.152,4.72,4.72,0,0,1-1.593-.147l-3.351,6.139Z" transform="translate(-168.599 -129.526)" opacity="0.1"/><path d="M394.56,756.234l2.658,1.905,1.247.866,10.694-12.452s0,14.218-1.957,17.656c-1.325,2.338-1.533,6.624-1.533,9.135,0,1.178.043,1.966.043,1.966s3.256,6.927,17.57,15.491c6.425,3.836,10.175,3.178,12.348,1.29,2.676-2.321,2.987-6.495,2.987-6.495l-6.061-10.287c-14.876,6.061-16.357-8.218-16.357-8.218l2.511-37.46c.182-5.672,3.775-6.676,3.775-6.676-16.669-.641-17.44,12.989-17.44,12.989Z" transform="translate(-165.591 -129.48)" fill="#3f3d56"/><path d="M268.39,723.647l1.238.883,10.694-12.452-1.212-3.628Z" transform="translate(-36.754 -94.988)" opacity="0.1"/><path d="M407.39,781.17c0,1.178.043,1.966.043,1.966s3.256,6.927,17.57,15.491c6.425,3.836,10.175,3.178,12.348,1.29C430.831,797.9,415.279,792.167,407.39,781.17Z" transform="translate(-167.311 -137.288)" opacity="0.1"/><path d="M436.239,541.3c8.27,2.849,13.231-15.041,15.587-26.714,1.091-5.447,1.6-9.525,1.6-9.525H438.205s-.866,2.052-2.052,5.2C432.776,519.486,427.19,538.173,436.239,541.3Z" transform="translate(-170.52 -100.268)" fill="#fbbebe"/><path d="M514.68,262.278l10.391,25.276v21.752c0,.563,25.839,7.793,25.839,7.793l6.694-16.73s2.044-19.708-5.386-36.074a24.341,24.341,0,0,1-1.013-16.946q.182-.658.39-1.3a42.672,42.672,0,0,1,8.244-14.288s-17.725-5.88-29.9-7.075c-7.663-.745-13.145.364-10.625,5.958a24.792,24.792,0,0,1,2.009,11.257,5.33,5.33,0,0,1-.069,1.048C520.49,253.376,514.68,262.278,514.68,262.278Z" transform="translate(-181.696 -62.648)" fill="#fbbebe"/><path d="M519.964,230.668a24.79,24.79,0,0,1,2.009,11.257,5.335,5.335,0,0,1-.069,1.048.233.233,0,0,0,.069.061,27.449,27.449,0,0,0,15.768,6.849c.805.078,1.628.113,2.451.113a27.06,27.06,0,0,0,11.664-2.6q.182-.658.39-1.3a42.671,42.671,0,0,1,8.244-14.288s-17.725-5.88-29.9-7.075C522.925,223.966,517.444,225.074,519.964,230.668Z" transform="translate(-182.321 -62.653)" opacity="0.1"/><path d="M510.67,213.689a30.308,30.308,0,0,0,10.14,22.791,27.493,27.493,0,0,0,15.768,6.841c.805.078,1.628.113,2.451.113a27.173,27.173,0,0,0,12.054-2.806A29.883,29.883,0,0,0,567.4,213.689a30.566,30.566,0,0,0-5.533-17.656,27.917,27.917,0,0,0-22.834-12.123C523.373,183.936,510.67,197.254,510.67,213.689Z" transform="translate(-181.158 -57.209)" fill="#fbbebe"/><path d="M550.27,320.232s-17.318-15.8-22.124-30.117a158.616,158.616,0,0,0-11.526-25.839L517.9,261.6s7.083,18.851,12.287,21.077,17.318,15.058,18.41,23.986l.745-27.147,1.169-17.916s8.867,18.851,9.612,27.588-.191,24.54-2.979,27.883A9.083,9.083,0,0,1,550.27,320.232Z" transform="translate(-181.956 -67.625)" fill="#09f"/><path d="M513.62,260.983l.121-.113Z" transform="translate(-181.554 -67.527)" fill="none" stroke="aqua" stroke-miterlimit="10" stroke-width="1"/><path d="M483.12,561.841s.459,4.035,1.048,9.17a46.383,46.383,0,0,0,20.211,4.434,93.781,93.781,0,0,0,22.245-2.65,163.765,163.765,0,0,0,21.579-6.745l.45-1.29-1.732-4.217L503.019,555s.346,3.464.727,8.962v.121Z" transform="translate(-177.465 -106.964)" opacity="0.1"/><path d="M474.288,520.705c.121.277.251.606.372.961,2.329,6.841,4.087,27.484,4.087,27.484,24.54,17.015,68.321-3.065,70.91-3.628s0-4.737,0-4.737,8.287-35.416,7.456-41.833,1.948-32.766,1.948-32.766l1.351-10.945,3.715-31.061-28.446-6.131s-34.8,3.533-45.894,7.663a15.369,15.369,0,0,0-1.515.641c-3.4,1.68-6.443,7.23-8.893,13.465-1.5,3.784-2.771,7.793-3.793,11.4a73.483,73.483,0,0,0-2.788,19.154C472.556,485.687,472.409,516.531,474.288,520.705Z" transform="translate(-176.062 -88.602)" fill="#3f3d56"/><path d="M474.285,521.9c.121.277.251.606.372.961,1.593-11.032,3.1-44.275,2.788-55.151-.372-12.989,13.387-40.534,13.387-40.534l-1.091-.234a15.377,15.377,0,0,0-1.515.641c-5.473,2.7-9.993,15.422-12.677,24.861a73.481,73.481,0,0,0-2.8,19.154C472.553,486.879,472.406,517.732,474.285,521.9Z" transform="translate(-176.06 -89.794)" opacity="0.1"/><path d="M480.37,439.859c.71.468,15.1,9.733,39.287,20.063,24.826,10.59,27.519-32.446,27.519-32.446a44.484,44.484,0,0,1,4.745,11.993c1.377,5.5,6.78,12.53,9.525,15.812l3.715-31.061-28.445-6.131s-34.8,3.533-45.894,7.663a15.37,15.37,0,0,0-1.515.641C485.86,428.074,482.821,433.6,480.37,439.859Z" transform="translate(-177.096 -88.607)" opacity="0.1"/><path d="M463.7,325.518a10.729,10.729,0,0,1,0,7.715s24.635,21.284,25.848,17.656,1.732,6.139,1.732,6.139,2.425,2.511,1.87,3.81.459,8.737.459,8.737,1.3,4.459.372,5.395-2.321,8.659-2.321,8.659l-3.325,12.348-.58.485c-5.2,4.269-5.862,11.707-7.352,13.569S478,417.28,478,417.28s14.5,9.482,39.313,20.081,27.519-32.446,27.519-32.446a44.484,44.484,0,0,1,4.771,11.95c1.862,7.438,11.067,17.665,11.067,17.665,8.928-1.489,16.539-25.934,14.591-27.328s-7.473-19.241-7.473-19.241c-8.737-12.175-.866-37.468-.866-37.468s7.992-20.358,7.9-23.7,1.862-3.464,1.862-3.464l5.672-38.854s-7.793-3.256-8.46-5.958-11.811-5.663-11.811-5.663.753-1.117-3.992-2.7a17.482,17.482,0,0,1-4.589-2.806,107.665,107.665,0,0,1-10.261-9.525s-.476,11.066,1.836,17.466,4,25.3,4.182,26.7-6.694,15.985-6.694,15.985l-3.646-5c-5.75-7.863-16.34-22.306-17.076-22.982-1.03-.927-9.941-25.787-11.179-28.887-.459-1.134-1.1-1.5-1.732-1.507a2.6,2.6,0,0,0-1.394.45h0a4.765,4.765,0,0,0-.615.45l-.216.6-.052.121a13.217,13.217,0,0,1-.658,1.489h0c-5.975,11.725-28.264,20.115-28.264,20.115-7.153,2.511-8.365,7.594-8.365,7.594s1.3,4.494-1.576,6.728-1.671,8.365-1.671,8.365-3.905,8.832-2.9,10.131a23.872,23.872,0,0,1,2.061,3.533S462.028,321.768,463.7,325.518Z" transform="translate(-174.774 -67.118)" fill="#65617d"/><path d="M547.21,330.78s38.023,5.949,36.256-10.391c-1.611-14.9-15.587-46.249-18.063-51.7a108.247,108.247,0,0,1-10.27-9.525s-.468,11.066,1.836,17.466,4,25.294,4.182,26.688-6.694,15.994-6.694,15.994Z" transform="translate(-186.058 -67.298)" opacity="0.1"/><path d="M545.92,329.5s38.023,5.94,36.256-10.391c-1.611-14.9-15.587-46.249-18.063-51.7a107.675,107.675,0,0,1-10.261-9.525s-.476,11.066,1.827,17.466,4,25.3,4.191,26.7-6.694,15.985-6.694,15.985Z" transform="translate(-185.885 -67.126)" opacity="0.1"/><path d="M546.57,329.5s38.014,5.94,36.247-10.391c-1.6-14.9-15.587-46.249-18.063-51.7a107.642,107.642,0,0,1-10.261-9.525s-.476,11.066,1.836,17.466,4,25.3,4.182,26.7-6.694,15.985-6.694,15.985Z" transform="translate(-185.972 -67.126)" fill="#65617d"/><path d="M511.39,264.271h0c0,.113.061,1.732.139,4.226.147,4.815.381,12.989.5,20.687.138,8.919.138,17.128-.294,18.531-1.022,3.256,3.992,11.344,3.992,11.344l25.008,11.984,6.728-10.694-3.126-5.828c-5.75-7.863-16.34-22.306-17.076-22.982a46.59,46.59,0,0,1-2.9-6.754c-3.048-7.871-7.438-20.029-8.278-22.133a3.126,3.126,0,0,0-1.732-1.515,1.533,1.533,0,0,0-1.394.459h0a4.894,4.894,0,0,0-.866,1.16v.043a8.877,8.877,0,0,0-.641,1.446Z" transform="translate(-181.255 -67.56)" opacity="0.1"/><path d="M513.33,262.981h0c0,.1.061,1.732.13,4.217.147,4.815.381,12.989.5,20.687.147,8.919.147,17.128-.294,18.531-1.022,3.256,4,11.344,4,11.344l25,11.993,6.745-10.694-3.126-5.828c-5.75-7.863-16.331-22.306-17.076-22.982a47.7,47.7,0,0,1-2.9-6.754c-3.048-7.863-7.438-20.029-8.278-22.133a3.117,3.117,0,0,0-1.732-1.507,1.489,1.489,0,0,0-1.394.45h0a4.806,4.806,0,0,0-.866,1.169h0a8.837,8.837,0,0,0-.641,1.455Z" transform="translate(-181.515 -67.387)" opacity="0.1"/><path d="M512.68,262.98h0c0,.1.061,1.732.138,4.217.147,4.815.372,12.989.5,20.687.139,8.919.139,17.128-.3,18.531-1.013,3.256,4,11.344,4,11.344l25.008,11.993,6.72-10.7s-1.186-2.234-3.117-5.828c-5.75-7.863-16.34-22.306-17.076-22.982a46.6,46.6,0,0,1-2.9-6.754c-3.048-7.863-7.438-20.029-8.278-22.133a3.1,3.1,0,0,0-1.732-1.507,1.507,1.507,0,0,0-1.394.45h0a4.563,4.563,0,0,0-.866,1.169h0a8.824,8.824,0,0,0-.641,1.455Z" transform="translate(-181.428 -67.386)" fill="#65617d"/><ellipse cx="2.096" cy="3.628" rx="2.096" ry="3.628" transform="translate(361.94 264.227)" opacity="0.1"/><ellipse cx="2.096" cy="3.628" rx="2.096" ry="3.628" transform="translate(361.94 263.664)" fill="#09f"/><ellipse cx="2.096" cy="3.628" rx="2.096" ry="3.628" transform="translate(367.318 303.124)" opacity="0.1"/><ellipse cx="2.096" cy="3.628" rx="2.096" ry="3.628" transform="translate(365.231 282.533)" opacity="0.1"/><ellipse cx="2.096" cy="3.628" rx="2.096" ry="3.628" transform="translate(369.413 320.417)" opacity="0.1"/><ellipse cx="2.096" cy="3.628" rx="2.096" ry="3.628" transform="translate(367.318 302.57)" fill="#09f"/><ellipse cx="2.096" cy="3.628" rx="2.096" ry="3.628" transform="translate(365.231 281.979)" fill="#09f"/><ellipse cx="2.096" cy="3.628" rx="2.096" ry="3.628" transform="translate(369.413 319.863)" fill="#09f"/><path d="M507.017,289.377c.546-.416,3.074-.987,5.516-1.472s4.936-.866,4.936-.866a14.834,14.834,0,0,1,7.4-3.464c-3.048-7.863-7.438-20.029-8.278-22.133a3.1,3.1,0,0,0-1.732-1.507,1.507,1.507,0,0,0-1.394.45h0a4.564,4.564,0,0,0-.866,1.169h0l-.511,5.689-.139,1.524s-4.044,1.948-3.2,5.2S505.9,290.217,507.017,289.377Z" transform="translate(-180.64 -67.398)" fill="#09f"/><path d="M555.572,262.25s13.751,19.769,13.6,23.674-2.225,0-2.225,0-5.81-17.258-12.59-4.182Z" transform="translate(-187.016 -67.712)" opacity="0.1"/><path d="M555.572,261.6s13.751,19.778,13.6,23.683-2.225,0-2.225,0-5.81-17.258-12.59-4.191Z" transform="translate(-187.016 -67.625)" fill="#09f"/><path d="M597.669,290.689l2.044-2.009s5.343,2.009,6.157,4.607a2.47,2.47,0,0,0,3.065,1.922A12.183,12.183,0,0,0,612,296.317c.866,0,2.1,3.905,2.1,3.905s8.78,2.234,9.525,2.373,35.13,32.1,35.13,32.1-19.795,3.039-22.86,1.784a35.3,35.3,0,0,0-7.672-1.784c-1.533-.312-36.109-7.7-36.109-7.7Z" transform="translate(-192.078 -71.256)" fill="#65617d"/><path d="M603.52,269.721l3.62,4.607,16.037-9.109-3.2-3.758C617.124,265.8,612.032,270.466,603.52,269.721Z" transform="translate(-193.608 -67.606)" opacity="0.1"/><path d="M654.759,328.408l5.152,1.732s12.556-1.143,11.716-6.581-6.278-15.4-6.278-15.4l-7.793-13.327s-3.074-3.654-2.788-4.823-3.628-3.126-3.628-3.126-2.234-2.927-2.373-4.33-12.695-12.019-12.695-12.019-4.33-3.628-3.351-15.9h-9.9s-4.546,18.271-21.934,14.92l23.891,28.445Z" transform="translate(-193.255 -66.692)" fill="#65617d"/><path d="M436.9,510.2a30.871,30.871,0,0,0,15.656,4.33c1.091-5.447,1.6-9.525,1.6-9.525H438.952S438.052,507.087,436.9,510.2Z" transform="translate(-171.268 -100.26)" opacity="0.1"/><path d="M463.395,340.59l-4.416,3.715s.866,2.044-.641,3.161,0,9.62,0,9.62a5.057,5.057,0,0,1-1.212,3.109c-1.256,1.489,0,15.994,0,15.994a4.832,4.832,0,0,1-1.533,1.81c-.866.416-3.351,14.089-2.65,14.781s-10.6,33.606-10.6,33.606.277,5.715-1.256,6.694-1.81,7.525-1.81,7.525.693,5.854-2.1,6.971-3.342,20.921-3.342,20.921-3.767,10.175-6,11.846c0,0,10.6,14.5,31.1,10.322,0,0,.866-18.271,3.342-25.519l7.395-36.949s4.459-15.76,6.131-24.4,9.023-41.833,9.023-41.833V350.115Z" transform="translate(-170.053 -78.216)" fill="#65617d"/><ellipse cx="0.978" cy="1.948" rx="0.978" ry="1.948" transform="translate(270.62 361.557)" opacity="0.1"/><ellipse cx="0.978" cy="1.948" rx="0.978" ry="1.948" transform="translate(266.715 378.148)" opacity="0.1"/><ellipse cx="0.978" cy="1.948" rx="0.978" ry="1.948" transform="translate(263.788 393.345)" opacity="0.1"/><ellipse cx="0.978" cy="1.948" rx="0.978" ry="1.948" transform="translate(268.663 369.922)" opacity="0.1"/><ellipse cx="0.978" cy="1.948" rx="0.978" ry="1.948" transform="translate(264.758 386.097)" opacity="0.1"/><ellipse cx="0.978" cy="1.948" rx="0.978" ry="1.948" transform="translate(270.62 361.003)" fill="#09f"/><ellipse cx="0.978" cy="1.948" rx="0.978" ry="1.948" transform="translate(266.715 377.594)" fill="#09f"/><ellipse cx="0.978" cy="1.948" rx="0.978" ry="1.948" transform="translate(263.788 392.791)" fill="#09f"/><ellipse cx="0.978" cy="1.948" rx="0.978" ry="1.948" transform="translate(268.663 369.367)" fill="#09f"/><ellipse cx="0.978" cy="1.948" rx="0.978" ry="1.948" transform="translate(264.758 385.543)" fill="#09f"/><path d="M522.3,371.431s-15.067-2.6-19.674,0S522.3,371.431,522.3,371.431Z" transform="translate(-180.003 -82.196)" opacity="0.1"/><path d="M512.128,387.157s-7.793-12.686-10.123-8.659S512.128,387.157,512.128,387.157Z" transform="translate(-179.958 -83.193)" opacity="0.1"/><path d="M469.028,404.89c-.416.416-17.015,19.379-16.868,20.635S469.028,404.89,469.028,404.89Z" transform="translate(-173.313 -86.837)" opacity="0.1"/><path d="M643.21,327.27c-.138.424-4.468,9.066-1.6,10.045S643.21,327.27,643.21,327.27Z" transform="translate(-198.583 -76.43)" opacity="0.1"/><path d="M627.437,313.42s-6.555,2.373-7.672,3.464S627.437,313.42,627.437,313.42Z" transform="translate(-195.772 -74.573)" opacity="0.1"/><path d="M652.014,305.645c-3.065-.139-13.941-3.074-14.366-2.1S652.014,305.645,652.014,305.645Z" transform="translate(-198.182 -73.223)" opacity="0.1"/><path d="M520.8,236.479c-.459,10.841-6.668,20.358-6.668,20.358l10.391,25.276v7.352c7.066.745,14.513-.788,19.656-5.594-4.079-1.334-6.564-5.386-8.46-9.239a106.97,106.97,0,0,1-5.654-13.993c-1.039-3.213-1.576-7.49,1.282-9.3,1.308-.866,3.039-.866,4.252-1.836,1.567-1.256,1.671-3.637,1.134-5.568-.061-.208-.121-.416-.191-.615-1.264-3.758-4.243-6.728-6.061-10.279a18.583,18.583,0,0,1-1.1-13.777,17.2,17.2,0,0,1,2-4.33,18.557,18.557,0,0,1,16.08-8.347c1.619.069,3.6.173,4.425-1.212.641-1.056.182-2.425.39-3.646.615-3.723,5.2-4.546,9.525-5.706A27.917,27.917,0,0,0,538.969,183.9c-15.656,0-28.359,13.318-28.359,29.753A30.307,30.307,0,0,0,520.8,236.479Z" transform="translate(-181.15 -57.207)" opacity="0.1"/><path d="M545.6,199.459c-.208,1.221.251,2.6-.381,3.654-.866,1.377-2.814,1.273-4.425,1.2A18.184,18.184,0,0,0,523.8,230.762c1.9,3.741,5.109,6.841,6.243,10.885.537,1.94.433,4.33-1.134,5.577-1.2.978-2.944,1-4.252,1.836-2.857,1.81-2.321,6.061-1.281,9.3a105.81,105.81,0,0,0,5.663,13.993c1.888,3.853,4.33,7.906,8.451,9.239-5.958,5.559-14.98,6.754-22.947,5.066s-15.162-5.836-22.2-9.941c-2.892-1.68-5.949-3.542-7.36-6.572-1.922-4.122-.208-8.91,1.013-13.283a5.317,5.317,0,0,0,.147-3.412c-.546-1.316-1.966-2-3.282-2.6-5.559-2.321,5.2-4.33,0-7.412s-9.923-7.308-12.3-12.85c-4.044-9.43-.4-20.678,6.061-28.653s-1.108-13.534,7.152-19.622c5.265-3.888,10.391-8.079,16.245-10.989a44.6,44.6,0,0,1,38.2-.251c6,2.814,10.893,7.352,16.781,10.391,2.9,1.5,9.265,3.394,7.646,7.551C560.2,195.354,546.69,192.887,545.6,199.459Z" transform="translate(-175.554 -54.928)" fill="#3f3d56"/><path d="M490.23,469.84S511.012,488.8,506.587,488.8,490.23,469.84,490.23,469.84Z" transform="translate(-178.418 -95.546)" opacity="0.1"/><path d="M486.79,478.43s13.76,12.989,9.672,14.123S486.79,478.43,486.79,478.43Z" transform="translate(-177.957 -96.697)" opacity="0.1"/><path d="M480.22,435.632s1.143.745,3.342,2.061c3.732-3.741,9.2-9.759,10.98-14.608,2.788-7.629,1.671-29.744,1.671-29.744-.935.927-2.329,8.659-2.329,8.659l-3.316,12.348-.58.485c-5.2,4.269-5.862,11.707-7.352,13.569S480.22,435.632,480.22,435.632Z" transform="translate(-177.076 -85.289)" opacity="0.1"/><circle cx="7.534" cy="7.534" r="7.534" transform="translate(80.559 636.444)" fill="#3f3d56"/><circle cx="7.534" cy="7.534" r="7.534" transform="translate(146.655 601.01)" fill="#3f3d56"/><path d="M180.4,694.278c9.092-.459,31.4-1.013,35.866-3.247s52.986-53.826,52.986-53.826l14.5-21.189,23.709-10.036,19.795-22.609,15.63-9.993s-3.36,1.056-3.637-2.277a7.941,7.941,0,0,0-.624-2.494,6.2,6.2,0,0,0-1.81-2.494,3.862,3.862,0,0,0-3.983-.571c-3.62,1.394-51.228,9.482-51.228,9.482s-14.859,2.511-28.524,20.635A231.824,231.824,0,0,1,227.1,624.935l-37.1,44.344S171.312,694.737,180.4,694.278Z" transform="translate(-136.543 -108.335)" fill="#09f"/><path d="M180.521,706.153l36.81,47.063,1.316-.615,69.793-32.533,28.446-28.723s61.636-64.944,66.373-74.738-13.612-25.934-13.612-25.934c-14.444-25.38-22.358-17.57-22.358-17.57L277.34,592.337h-.052l-.355.442c-5.429,5.776-66.927,71.231-86.973,91.727l-.043.052h0c-2.849,2.918-4.858,4.918-5.724,5.689C176.9,696.689,180.521,706.153,180.521,706.153Z" transform="translate(-136.772 -109.239)" fill="#09f"/><path d="M180.52,709.3l36.81,47.063,1.316-.615c19.475-24.445,67.49-84.246,80.955-96.438,17.007-15.413,12.833-25.025,12.833-25.025l-14.5-19.795c-10.937-20.28-19.83-19.12-20.583-18.972H277.3l-.364.407-87,91.736-.043.052h0c-2.849,2.918-4.858,4.918-5.724,5.689C176.9,699.838,180.52,709.3,180.52,709.3Z" transform="translate(-136.772 -112.389)" opacity="0.1"/><path d="M370.258,591.775l-6.139-5.3s-13.933-3.048-25.649,10.6l4.182,5.022S353.243,589.826,370.258,591.775Z" transform="translate(-158.07 -111.145)" fill="#3f3d56"/><path d="M370.258,591.775l-6.139-5.3s-13.933-3.048-25.649,10.6l4.182,5.022S353.243,589.826,370.258,591.775Z" transform="translate(-158.07 -111.145)" opacity="0.1"/><path d="M257.115,578.26l59.671-77.5-3.62-1.42-60.8,76.132Z" transform="translate(-34.606 -66.951)" fill="#65617d"/><path d="M233.155,585.316l60.182-77.24-3.013-3.905-62.753,77.8Z" transform="translate(-31.281 -67.598)" fill="#65617d"/><path d="M430.852,544.822c-.649-.208-6.512-5.3-6.512-5.3h0a43.141,43.141,0,0,1,18.029-15.517c6.468-2.961,13.707-5.273,16.652-2.6,0,0,5.109,6.261-.935,11.127l-4.33-1.091s-6.512-7.248-17.111,6.5Z" transform="translate(-169.583 -102.301)" fill="#3f3d56"/><path d="M331.916,496.312l-7.9,8.114-5.949-2.7L325,492.9l3.671,1.108Z" transform="translate(-43.415 -66.087)" fill="#3f3d56"/><path d="M251.84,619.773c.459-.468,27.207-27.372,34.949-32.9,6.772-4.832,50.31-15.4,61.749-18.124a6.2,6.2,0,0,0-1.81-2.494c-10.911,2.944-46.058,12.417-57.151,15.232C276.476,584.8,252.221,619.227,251.84,619.773Z" transform="translate(-146.455 -108.472)" opacity="0.1"/><path d="M212.065,537.67l-63.689,16.851L51.54,658.033v-2.97l94.983-101.1Z" transform="translate(-7.679 -72.09)" opacity="0.1"/><path d="M516.954,286.084c7.975,1.689,17,.494,22.956-5.066-4.079-1.342-6.564-5.386-8.46-9.239a105.778,105.778,0,0,1-5.655-13.993c-1.048-3.213-1.585-7.49,1.273-9.3,1.316-.866,3.048-.866,4.26-1.836,1.567-1.256,1.671-3.637,1.126-5.577-1.126-4.044-4.33-7.144-6.243-10.885A18.184,18.184,0,0,1,543.2,203.744c1.611.069,3.6.173,4.425-1.2.632-1.065.182-2.433.381-3.654,1.1-6.572,14.6-4.1,17.041-10.391,1.611-4.156-4.745-6.061-7.646-7.551-5.888-3.048-10.781-7.585-16.782-10.391-.987-.459-2-.866-3.022-1.273a43.623,43.623,0,0,1,6.365,2.355c6,2.814,10.893,7.352,16.782,10.391,2.9,1.507,9.265,3.4,7.646,7.56-2.433,6.287-15.942,3.819-17.033,10.391-.208,1.221.251,2.6-.381,3.654-.866,1.377-2.814,1.273-4.425,1.2A18.184,18.184,0,0,0,529.588,231.3c1.9,3.749,5.109,6.849,6.243,10.893.537,1.94.433,4.33-1.134,5.577-1.2.979-2.935,1-4.252,1.836-2.858,1.81-2.321,6.061-1.281,9.3a105.824,105.824,0,0,0,5.62,13.993c1.888,3.853,4.373,7.9,8.451,9.239-5.958,5.559-14.98,6.746-22.947,5.066a43.526,43.526,0,0,1-6.278-1.844C515,285.634,515.967,285.876,516.954,286.084Z" transform="translate(-181.606 -55.247)" opacity="0.1"/></g></svg>