<svg xmlns="http://www.w3.org/2000/svg" width="26.538" height="26.539" viewBox="0 0 26.538 26.539"><path d="M22.964,0H3.578A3.576,3.576,0,0,0,0,3.576V22.962a3.576,3.576,0,0,0,3.576,3.576h9.561l.016-9.483H10.692a.581.581,0,0,1-.581-.579L10.1,13.419a.581.581,0,0,1,.581-.584h2.459V9.882c0-3.428,2.093-5.294,5.151-5.294H20.8a.581.581,0,0,1,.581.581V7.746a.581.581,0,0,1-.581.581H19.26c-1.663,0-1.985.79-1.985,1.95v2.557h3.654a.581.581,0,0,1,.577.65l-.362,3.057a.581.581,0,0,1-.577.513H17.292l-.016,9.483h5.689a3.576,3.576,0,0,0,3.576-3.576V3.576A3.576,3.576,0,0,0,22.964,0Z" transform="translate(-0.002)" fill="#475993"/></svg>