<?xml version="1.0" encoding="utf-8"?>
<!-- Generator: Adobe Illustrator 23.0.0, SVG Export Plug-In . SVG Version: 6.00 Build 0)  -->
<svg version="1.1" id="ad94a318-fdfb-45a5-9490-4bb7b0f90139"
	 xmlns="http://www.w3.org/2000/svg" xmlns:xlink="http://www.w3.org/1999/xlink" x="0px" y="0px" viewBox="0 0 726.1 779.7"
	 style="enable-background:new 0 0 726.1 779.7;" xml:space="preserve">
<style type="text/css">
	.st0{fill:#F2F2F2;}
	.st1{opacity:0.3;}
	.st2{fill:#FF6584;}
	.st3{fill:none;stroke:#3F3D56;stroke-miterlimit:10;}
	.st4{fill:#57B894;}
	.st5{fill:#A0616A;}
	.st6{fill:#0099FF;}
	.st7{fill:#2F2E41;}
	.st8{opacity:0.1;enable-background:new    ;}
	.st9{fill:#444053;}
	.st10{fill:#3F3D56;}
	.st11{fill:#F6F8FB;}
</style>
<title>begin chat</title>
<path class="st0" d="M521.6,18.5c-105.5,0-191,56.8-191,126.9c0,31.3,17.1,59.9,45.3,82.1v92.1l60.5-60.5
	c27.5,8.9,56.2,13.4,85.1,13.3c105.5,0,191-56.8,191-126.9S627.1,18.5,521.6,18.5z"/>
<g class="st1">
	<path class="st2" d="M292.3,653.2c-10.1,5.4-22.7,1.6-28.2-8.6c-5.4-10.1-1.6-22.8,8.6-28.2c3.4-1.8,7.3-2.7,11.2-2.4l1,10.7
		l3.7-9.8c5.3,1.6,9.6,5.3,12.2,10.1c0.9,1.7,1.6,3.5,2,5.4C304.9,639.5,300.5,648.8,292.3,653.2z"/>
	<path class="st3" d="M284.9,779.7c0.5-9.3-8.3-16.2-16.6-20.3s-17.9-8-21.7-16.4c-5.5-12.2,3.9-25.3,11.1-36.6
		c5.3-8.3,9.7-17.3,12.9-26.6c1.3-3.8,2.4-7.6,2.3-11.6c-0.1-5.7-2.7-11.1-5.3-16.2c-8.6-17-17.6-33.8-27-50.4"/>
	<path class="st3" d="M291.1,650.5c-10.1,5.4-22.7,1.6-28.2-8.6c-5.4-10.1-1.6-22.7,8.6-28.2c3.4-1.8,7.3-2.7,11.2-2.4l1,10.7
		l3.7-9.8c5.3,1.6,9.6,5.3,12.2,10.1c0.9,1.7,1.6,3.5,2,5.4C303.6,636.9,299.3,646.2,291.1,650.5z"/>
	<path class="st2" d="M261.3,595c-3.3-6.3-9.6-10.4-16.7-11l-0.3,10.3l-4.6-10.1c-11.4,1.8-19.1,12.4-17.3,23.8
		c1.8,11.4,12.4,19.1,23.8,17.3c11.4-1.8,19.1-12.4,17.3-23.8C263.2,599.2,262.4,597,261.3,595L261.3,595z"/>
	<path class="st3" d="M259.7,591.5c-3.3-6.3-9.6-10.4-16.7-11l-0.3,10.3l-4.6-10.1c-11.4,1.8-19.1,12.4-17.3,23.8
		c1.8,11.4,12.4,19.1,23.8,17.3c11.4-1.8,19.1-12.4,17.3-23.8C261.5,595.7,260.8,593.5,259.7,591.5z"/>
	<path class="st2" d="M261.3,706.1c-10.1,5.4-22.7,1.5-28.1-8.6c-4.5-8.6-2.6-19.1,4.7-25.5l3.6,7.8l0.3-10.4c0,0,0,0,0,0
		c10.1-5.4,22.7-1.6,28.2,8.6C275.3,688,271.5,700.6,261.3,706.1C261.3,706.1,261.3,706.1,261.3,706.1L261.3,706.1z"/>
	<path class="st3" d="M259.8,702.5c-10.1,5.4-22.7,1.5-28.1-8.6c-4.5-8.6-2.6-19.1,4.7-25.5l3.6,7.8l0.3-10.4c0,0,0,0,0,0
		c10.1-5.4,22.7-1.6,28.2,8.6C273.8,684.5,270,697.1,259.8,702.5C259.8,702.5,259.8,702.5,259.8,702.5z"/>
	<path class="st2" d="M287.6,737.3c-0.4,11.5-10,20.5-21.5,20.1c-11.5-0.4-20.5-10-20.1-21.5s10-20.5,21.5-20.1
		c5.2,0.2,10.1,2.3,13.8,5.9l-7.2,15.1l11.5-9.1C287.1,730.7,287.7,734,287.6,737.3z"/>
	<path class="st3" d="M286.4,734.6c-0.4,11.5-10,20.5-21.5,20.1c-11.5-0.4-20.5-10-20.1-21.5s10-20.5,21.5-20.1
		c5.2,0.2,10.1,2.3,13.8,5.9l-7.2,15.1l11.5-9.1C285.8,728.1,286.5,731.3,286.4,734.6z"/>
</g>
<g class="st1">
	<path class="st2" d="M72.3,651.2c-10.1,5.4-22.7,1.6-28.2-8.6c-5.4-10.1-1.6-22.8,8.6-28.2c3.4-1.8,7.3-2.7,11.2-2.4l1,10.7
		l3.7-9.8c5.3,1.6,9.6,5.3,12.2,10.1c0.9,1.7,1.6,3.5,2,5.4C84.9,637.5,80.5,646.8,72.3,651.2z"/>
	<path class="st3" d="M64.9,777.7c0.5-9.3-8.3-16.2-16.6-20.3s-17.9-8-21.7-16.4c-5.5-12.2,3.9-25.3,11.1-36.6
		c5.3-8.3,9.7-17.3,12.9-26.6c1.3-3.8,2.4-7.6,2.3-11.6c-0.1-5.7-2.7-11.1-5.3-16.2c-8.6-17-17.6-33.8-27-50.4"/>
	<path class="st3" d="M71.1,648.5c-10.1,5.4-22.7,1.6-28.2-8.6c-5.4-10.1-1.6-22.7,8.6-28.2c3.4-1.8,7.3-2.7,11.2-2.4l1,10.7
		l3.7-9.8c5.3,1.6,9.6,5.3,12.2,10.1c0.9,1.7,1.6,3.5,2,5.4C83.6,634.9,79.3,644.2,71.1,648.5z"/>
	<path class="st2" d="M41.3,593c-3.3-6.3-9.6-10.4-16.7-11l-0.3,10.3l-4.6-10.1C8.4,583.9,0.6,594.6,2.4,606
		c1.8,11.4,12.4,19.1,23.8,17.3c11.4-1.8,19.1-12.4,17.3-23.8C43.2,597.2,42.4,595,41.3,593L41.3,593z"/>
	<path class="st3" d="M39.7,589.5c-3.3-6.3-9.6-10.4-16.7-11l-0.3,10.3l-4.6-10.1C6.7,580.5-1,591.1,0.8,602.5
		c1.8,11.4,12.4,19.1,23.8,17.3c11.4-1.8,19.1-12.4,17.3-23.8C41.5,593.7,40.8,591.5,39.7,589.5z"/>
	<path class="st2" d="M41.3,704.1c-10.1,5.4-22.7,1.5-28.1-8.6c-4.5-8.6-2.6-19.1,4.7-25.5l3.6,7.8l0.3-10.4c0,0,0,0,0,0
		c10.1-5.4,22.7-1.6,28.2,8.6S51.5,698.7,41.3,704.1C41.3,704.1,41.3,704.1,41.3,704.1L41.3,704.1z"/>
	<path class="st3" d="M39.8,700.5c-10.1,5.4-22.7,1.5-28.1-8.6c-4.5-8.6-2.6-19.1,4.7-25.5l3.6,7.8l0.3-10.4c0,0,0,0,0,0
		c10.1-5.4,22.7-1.6,28.2,8.6C53.8,682.5,50,695.1,39.8,700.5C39.8,700.5,39.8,700.5,39.8,700.5L39.8,700.5z"/>
	<path class="st2" d="M67.6,735.3c-0.4,11.5-10,20.5-21.5,20.1s-20.5-10-20.1-21.5c0.4-11.5,10-20.5,21.5-20.1
		c5.2,0.2,10.1,2.3,13.8,5.9l-7.2,15.1l11.5-9.1C67.1,728.7,67.7,732,67.6,735.3z"/>
	<path class="st3" d="M66.4,732.6c-0.4,11.5-10,20.5-21.5,20.1s-20.5-10-20.1-21.5c0.4-11.5,10-20.5,21.5-20.1
		c5.2,0.2,10.1,2.3,13.8,5.9l-7.2,15.1l11.5-9.1C65.8,726.1,66.5,729.3,66.4,732.6z"/>
</g>
<g class="st1">
	<path class="st4" d="M66.7,558.8c17.4,9.3,39.1,2.7,48.4-14.8c9.3-17.4,2.7-39.1-14.8-48.4c-5.9-3.1-12.6-4.6-19.3-4.1l-1.7,18.3
		L73,493.1c-9,2.8-16.6,9-21,17.4c-1.6,2.9-2.7,6-3.4,9.3C45.2,535.4,52.6,551.3,66.7,558.8z"/>
	<path class="st3" d="M79.5,776.2c-0.8-15.9,14.3-27.8,28.6-34.9s30.7-13.7,37.3-28.2c9.5-20.9-6.7-43.5-19.1-62.8
		c-9.2-14.3-16.6-29.7-22.2-45.7c-2.2-6.4-4.2-13.1-4-19.9c0.2-9.8,4.7-19,9.1-27.7c14.7-29.2,30.2-58,46.3-86.5"/>
	<path class="st3" d="M68.9,554.3c17.4,9.3,39.1,2.7,48.4-14.8c9.3-17.4,2.7-39.1-14.8-48.4c-5.9-3.1-12.6-4.6-19.3-4.1l-1.7,18.3
		l-6.4-16.8c-9,2.8-16.6,9-21,17.4c-1.6,2.9-2.7,6-3.4,9.3C47.3,530.9,54.8,546.8,68.9,554.3z"/>
	<path class="st4" d="M120,458.9c5.7-10.8,16.5-17.9,28.7-18.8l0.5,17.7l8-17.4c19.5,3.1,32.8,21.3,29.8,40.8
		c-3.1,19.5-21.3,32.8-40.8,29.8s-32.8-21.3-29.8-40.8C116.8,466.2,118.1,462.4,120,458.9L120,458.9z"/>
	<path class="st3" d="M122.8,452.9c5.7-10.8,16.5-17.9,28.7-18.8l0.5,17.7l8-17.4c19.5,3.1,32.8,21.3,29.8,40.8
		c-3.1,19.5-21.3,32.8-40.8,29.8s-32.8-21.3-29.8-40.8C119.7,460.2,120.9,456.4,122.8,452.9L122.8,452.9z"/>
	<path class="st4" d="M120,649.7c17.4,9.3,39.1,2.6,48.3-14.8c7.8-14.7,4.5-32.8-8.1-43.7l-6.1,13.4l-0.5-17.9c0,0-0.1,0-0.1,0
		c-17.4-9.3-39.1-2.6-48.3,14.8S102.6,640.5,120,649.7L120,649.7z"/>
	<path class="st3" d="M122.6,643.6c17.4,9.3,39.1,2.6,48.3-14.8c7.8-14.7,4.5-32.8-8.1-43.7l-6.1,13.4l-0.5-17.9c0,0-0.1,0-0.1,0
		c-17.4-9.3-39.1-2.6-48.3,14.8C98.5,612.7,105.2,634.4,122.6,643.6L122.6,643.6z"/>
	<path class="st4" d="M74.8,703.3c0.7,19.7,17.2,35.2,36.9,34.5c19.7-0.7,35.2-17.2,34.5-36.9c-0.7-19.7-17.2-35.2-36.9-34.5
		c-8.9,0.3-17.4,3.9-23.8,10.1l12.4,26l-19.8-15.6C75.8,692,74.6,697.6,74.8,703.3z"/>
	<path class="st3" d="M77,698.8c0.7,19.7,17.2,35.2,36.9,34.5c19.7-0.7,35.2-17.2,34.5-36.9c-0.7-19.7-17.2-35.2-36.9-34.5
		c-8.9,0.3-17.4,3.9-23.8,10.1l12.4,26l-19.8-15.6C77.9,687.5,76.8,693.1,77,698.8z"/>
</g>
<path class="st3" d="M535.1,0.5c-105.5,0-191,56.8-191,126.9c0,31.3,17.1,59.9,45.3,82.1v92.1L450,241c27.5,8.9,56.2,13.4,85.1,13.3
	c105.5,0,191-56.8,191-126.9S640.6,0.5,535.1,0.5z"/>
<path class="st5" d="M452.1,328.9c0,0-3.8-51.7-2-61.2c1.8-9.5,3.5-36.4-6.4-27.5s-6.4,28.9-6.4,28.9s-9.4,54.7-0.7,62.1
	C445.3,338.6,452.1,328.9,452.1,328.9z"/>
<path class="st6" d="M459.3,380c0,0-29.6-26.4-28-48.8c0,0,17.6-13.6,21.6-6.4c4,7.2,33.1,35.3,28.1,44.8
	C476.1,379.2,459.3,380,459.3,380z"/>
<path class="st5" d="M564.1,332.8c0,0,17.6-48.8,18.4-58.4c0.8-9.6,6.4-36,13.6-24.8c7.2,11.2-1.6,29.6-1.6,29.6s-5.6,55.2-16,60
	C568.1,344,564.1,332.8,564.1,332.8z"/>
<path class="st5" d="M516.1,577.7h47.2l2.4,24l-11.2,2.4c0,0-26.4-8-41.6-5.6C497.7,600.9,516.1,577.7,516.1,577.7z"/>
<path class="st7" d="M547.3,574.5c0,0,22.4-15.2,26.4-2.4s18.4,59.2,13.6,64s-10.4-4-10.4-4s-9.6-20-16.8-20.8s-11.2-7.2-11.2-7.2
	S569.7,588.1,547.3,574.5z"/>
<path class="st5" d="M504.1,698.5c0,0,8.8,36,7.2,41.6c-1.6,5.6,25.6,2.4,25.6,2.4l1.6-10.4c0,0-16-25.6-16-36.8
	S504.1,698.5,504.1,698.5z"/>
<path class="st7" d="M536.9,724.9c0,0,21.6,16,10.4,24s-52.8,28.8-52.8,28.8s-15.2,2.4-4-11.2s14.4-16,15.2-23.2
	c0.7-4.8,2.4-9.4,4.9-13.5C510.6,729.8,521.7,752.1,536.9,724.9z"/>
<path class="st7" d="M471.3,532.8c0,0-8.8,83.2,4.8,109.6s29.6,62.4,28.8,64s23.2-2.4,23.2-9.6s-26.4-79.2-26.4-79.2
	s11.2-93.6,20-100S471.3,532.8,471.3,532.8z"/>
<path class="st8" d="M471.3,532.8c0,0-8.8,83.2,4.8,109.6s29.6,62.4,28.8,64s23.2-2.4,23.2-9.6s-26.4-79.2-26.4-79.2
	s11.2-93.6,20-100S471.3,532.8,471.3,532.8z"/>
<path class="st7" d="M489.4,298c-5.7,1-11.4,4.2-14.2,9.5c-2.7,5-2.8,11.7-7,15.3c-2.5,2.1-5.9,2.6-8.8,4.3c-4.1,2.6-6.4,7.2-6.2,12
	c0.2,4.4,2.6,8.5,2.5,12.9c-0.1,5.7-4,10.5-7.8,14.7l12.4,2.3c1.9,0.5,3.8,0.6,5.7,0.2c2.1-0.6,3.9-2.4,6-2.9
	c3.1-0.8,6.2,1.1,8.9,2.8c7.9,4.8,16.3,8.4,24.8,11.9c2.5,1.1,5.3,2.1,7.7,1c2-0.9,3.2-3.1,5.1-4.2c3.3-2.1,7.5-0.5,11.2,0.5
	c8.5,2.3,17.4,1.5,25.4-2.2c-1.7-2-4-3.4-5.8-5.3s-3.3-4.5-2.9-7.2c0.5-2.7,2.8-4.5,4.4-6.7c2.4-3.5,3.2-7.8,2.4-11.9
	c-0.8-4.1-2.8-7.8-5.7-10.8c-1.7-1.5-3.2-3.2-4.7-4.9c-2.9-3.9-3.6-9.2-4.6-14.1c-0.9-4.9-2.4-10.1-6.2-13.1
	c-6-4.8-15.8-3.1-22.9-3.6C502.6,298.1,496.1,298,489.4,298z"/>
<path class="st7" d="M449.7,476l15.2,37.6c0,0-69.6,76-30.4,86.4s52.8-8,77.6,6.4c0,0,12-18.4,10.4-29.6c0,0-34.4-6.4-52.8-5.6
	c0,0,49.6-43.2,54.4-44.8s20.8-27.2-4-48c-24.8-20.8-18.4-32-18.4-32L449.7,476z"/>
<path class="st5" d="M485.7,345.6c0,0,2.4,24.8-8,28s40.8,2.4,40.8,2.4s-12-7.2-6.4-22.4C517.7,338.4,485.7,345.6,485.7,345.6z"/>
<path class="st8" d="M485.7,345.6c0,0,2.4,24.8-8,28s40.8,2.4,40.8,2.4s-12-7.2-6.4-22.4C517.7,338.4,485.7,345.6,485.7,345.6z"/>
<path class="st6" d="M540.1,388.8c0,0-4.8-24.8-14.4-23.2s-28.8,3.2-31.2,4.8c-2.4,1.6-15.2,4.9-15.2,4.9s4.8-5.7,0-6.5
	c-4.8-0.8-20,3.2-21.6,6.4c-1.6,3.2-8,9.6-8,20.8s-4.8,30.4-3.2,38.4s-0.8,26.4-5.6,36.8s-0.8,20.8,7.2,10.4c8-10.4,4,0,10.4,0.8
	s35.2-28.8,43.2-21.6s16,12,17.6,8s-6.4-11.2-6.4-14.4s-12.8,10.4,0.8-17.6C527.3,408.8,514.5,400.8,540.1,388.8z"/>
<path class="st6" d="M533.7,387.2l6.4,1.6c0,0,23.2-16.8,29.6-28.8s11.2-21.6,11.2-21.6s-10.4-12.8-16.8-8S528.9,368,528.9,368
	L533.7,387.2z"/>
<ellipse transform="matrix(0.1602 -0.9871 0.9871 0.1602 90.0857 781.1354)" class="st5" cx="504.1" cy="337.6" rx="24.8" ry="24.8"/>
<path class="st7" d="M482.2,330.4c4.2-3.5,9.7-5.3,15.1-5c9.5,0.6,17.9,7.4,27.4,7.6c-0.4-2.1-0.1-4.2,0.8-6.1
	c0.7-1.5,1.9-3,1.7-4.7c-0.3-1.3-1-2.5-2.1-3.4c-5.5-5.2-13.1-7.9-20.7-8.2c-5.1-0.2-14.8-0.1-18.7,3.7
	C482.4,317.7,482.8,326.2,482.2,330.4z"/>
<circle class="st6" cx="535.1" cy="151" r="52"/>
<ellipse class="st9" cx="522.4" cy="131.4" rx="5" ry="6.5"/>
<ellipse class="st9" cx="548.2" cy="131.4" rx="5" ry="6.5"/>
<path class="st10" d="M566.3,152c0,9.4-15.7,25.2-31.5,25.2S504,161,504,151.6s14.7-0.8,30.5-0.8S566.3,142.6,566.3,152z"/>
<path class="st11" d="M508.9,153.6c0,0,28.4,6.3,52.3,0.2c0,0,2.9,0,0.9,3.4c-0.5,0.9-1.3,1.6-2.2,2c-4.6,2.4-21.6,9.3-48.9,0.4
	c-1.7-0.5-3-1.9-3.5-3.6C507.2,154.8,507.4,153.7,508.9,153.6z"/>
</svg>
