<svg xmlns="http://www.w3.org/2000/svg" width="319.252" height="234.715" viewBox="0 0 319.252 234.715"><g transform="translate(0.027)" opacity="0.5"><path d="M448.056,78.409c-31.7,0-57.406,17.076-57.406,38.141,0,9.406,5.127,18.014,13.622,24.664V168.9l18.2-18.2a81.652,81.652,0,0,0,25.587,3.992c31.7,0,57.406-17.076,57.406-38.141S479.761,78.409,448.056,78.409Z" transform="translate(-290.927 -72.499)" fill="#f2f2f2"/><g transform="translate(66.626 174.826)" opacity="0.3"><path d="M330.959,685.653a6.255,6.255,0,1,1-2.506-11.762l.3,3.21,1.122-2.945a6.232,6.232,0,0,1,3.673,3.038,6.135,6.135,0,0,1,.593,1.625A6.254,6.254,0,0,1,330.959,685.653Z" transform="translate(-309.371 -663.82)" fill="#ff6584"/><path d="M314.011,715.045c.149-2.787-2.5-4.863-5-6.1s-5.38-2.4-6.533-4.939c-1.657-3.652,1.178-7.613,3.342-10.989a37.661,37.661,0,0,0,3.883-8,10.161,10.161,0,0,0,.706-3.49,11.584,11.584,0,0,0-1.59-4.855q-3.871-7.664-8.1-15.139" transform="translate(-294.652 -655.182)" fill="none" stroke="#3f3d56" stroke-miterlimit="10" stroke-width="1"/><path d="M329.724,683.043a6.255,6.255,0,1,1-2.506-11.762l.3,3.21,1.122-2.946a6.232,6.232,0,0,1,3.673,3.038,6.134,6.134,0,0,1,.593,1.625A6.254,6.254,0,0,1,329.724,683.043Z" transform="translate(-308.507 -661.995)" fill="none" stroke="#3f3d56" stroke-miterlimit="10" stroke-width="1"/><path d="M293.956,647.2a6.248,6.248,0,0,0-5.014-3.3l-.081,3.1-1.4-3.049a6.255,6.255,0,1,0,6.491,3.243Z" transform="translate(-281.683 -642.854)" fill="#ff6584"/><path d="M292.308,643.716a6.248,6.248,0,0,0-5.014-3.3l-.081,3.1-1.4-3.049a6.255,6.255,0,1,0,6.491,3.243Z" transform="translate(-280.531 -640.419)" fill="none" stroke="#3f3d56" stroke-miterlimit="10" stroke-width="1"/><path d="M299.956,738.572a6.255,6.255,0,0,1-7.041-10.242l1.073,2.343.081-3.139.015-.008a6.255,6.255,0,0,1,5.872,11.046Z" transform="translate(-287.689 -700.833)" fill="#ff6584"/><path d="M298.453,735.022a6.255,6.255,0,0,1-7.041-10.242l1.073,2.343.081-3.139.015-.008a6.255,6.255,0,0,1,5.872,11.046Z" transform="translate(-286.638 -698.35)" fill="none" stroke="#3f3d56" stroke-miterlimit="10" stroke-width="1"/><path d="M318.549,782.134a6.252,6.252,0,1,1-1.88-4.681L314.5,782l3.458-2.738A6.2,6.2,0,0,1,318.549,782.134Z" transform="translate(-298.379 -735.022)" fill="#ff6584"/><path d="M317.314,779.523a6.252,6.252,0,1,1-1.88-4.681l-2.172,4.544,3.458-2.738A6.2,6.2,0,0,1,317.314,779.523Z" transform="translate(-297.515 -733.196)" fill="none" stroke="#3f3d56" stroke-miterlimit="10" stroke-width="1"/></g><g transform="translate(0.503 174.225)" opacity="0.3"><path d="M110.959,683.653a6.255,6.255,0,1,1-2.506-11.762l.3,3.21,1.121-2.946a6.232,6.232,0,0,1,3.673,3.038,6.133,6.133,0,0,1,.593,1.625,6.254,6.254,0,0,1-3.178,6.834Z" transform="translate(-89.371 -661.82)" fill="#ff6584"/><path d="M94.011,713.045c.149-2.786-2.5-4.863-5-6.1s-5.38-2.4-6.533-4.939c-1.657-3.652,1.178-7.613,3.342-10.989a37.657,37.657,0,0,0,3.883-8,10.161,10.161,0,0,0,.706-3.49,11.583,11.583,0,0,0-1.59-4.855Q84.95,667,80.72,659.526" transform="translate(-74.652 -653.182)" fill="none" stroke="#3f3d56" stroke-miterlimit="10" stroke-width="1"/><path d="M109.724,681.043a6.255,6.255,0,1,1-2.506-11.762l.3,3.21,1.121-2.945a6.232,6.232,0,0,1,3.673,3.039,6.133,6.133,0,0,1,.593,1.625,6.254,6.254,0,0,1-3.178,6.834Z" transform="translate(-88.507 -659.995)" fill="none" stroke="#3f3d56" stroke-miterlimit="10" stroke-width="1"/><path d="M73.956,645.2a6.248,6.248,0,0,0-5.014-3.3l-.081,3.1-1.4-3.049a6.255,6.255,0,1,0,6.491,3.243Z" transform="translate(-61.683 -640.854)" fill="#ff6584"/><path d="M72.309,641.716a6.248,6.248,0,0,0-5.014-3.3l-.081,3.1-1.4-3.049a6.255,6.255,0,1,0,6.491,3.243Z" transform="translate(-60.531 -638.419)" fill="none" stroke="#3f3d56" stroke-miterlimit="10" stroke-width="1"/><path d="M79.955,736.572a6.255,6.255,0,0,1-7.041-10.242l1.073,2.343.081-3.139.015-.008a6.255,6.255,0,1,1,5.872,11.046Z" transform="translate(-67.688 -698.833)" fill="#ff6584"/><path d="M78.453,733.022a6.255,6.255,0,0,1-7.041-10.242l1.073,2.343.081-3.139.015-.008a6.255,6.255,0,0,1,5.872,11.046Z" transform="translate(-66.638 -696.35)" fill="none" stroke="#3f3d56" stroke-miterlimit="10" stroke-width="1"/><path d="M98.549,780.133a6.252,6.252,0,1,1-1.88-4.681L94.5,780l3.458-2.738A6.2,6.2,0,0,1,98.549,780.133Z" transform="translate(-78.379 -733.021)" fill="#ff6584"/><path d="M97.314,777.523a6.252,6.252,0,1,1-1.88-4.681l-2.172,4.544,3.458-2.738A6.2,6.2,0,0,1,97.314,777.523Z" transform="translate(-77.515 -731.196)" fill="none" stroke="#3f3d56" stroke-miterlimit="10" stroke-width="1"/></g><g transform="translate(14.712 130.802)" opacity="0.3"><path d="M113.505,571.642a10.745,10.745,0,1,0,4.305-20.2l-.509,5.514-1.926-5.06a10.7,10.7,0,0,0-6.31,5.219,10.536,10.536,0,0,0-1.019,2.791A10.743,10.743,0,0,0,113.505,571.642Z" transform="translate(-107.806 -534.14)" fill="#57b894"/><path d="M139.483,622.13c-.255-4.786,4.292-8.354,8.586-10.484s9.241-4.119,11.222-8.484c2.846-6.273-2.023-13.077-5.742-18.876a64.691,64.691,0,0,1-6.67-13.749,17.452,17.452,0,0,1-1.212-5.994c.06-2.951,1.4-5.706,2.731-8.34q6.65-13.164,13.916-26" transform="translate(-129.955 -519.302)" fill="none" stroke="#3f3d56" stroke-miterlimit="10" stroke-width="1"/><path d="M115.627,567.158a10.745,10.745,0,1,0,4.305-20.2l-.509,5.514-1.926-5.06a10.7,10.7,0,0,0-6.31,5.219,10.536,10.536,0,0,0-1.019,2.791A10.743,10.743,0,0,0,115.627,567.158Z" transform="translate(-109.291 -531.003)" fill="none" stroke="#3f3d56" stroke-miterlimit="10" stroke-width="1"/><path d="M177.083,505.585a10.732,10.732,0,0,1,8.612-5.662l.139,5.33,2.4-5.238a10.744,10.744,0,1,1-11.15,5.57Z" transform="translate(-155.381 -498.125)" fill="#57b894"/><path d="M179.912,499.6a10.732,10.732,0,0,1,8.612-5.662l.139,5.33,2.4-5.238a10.744,10.744,0,1,1-11.15,5.57Z" transform="translate(-157.36 -493.942)" fill="none" stroke="#3f3d56" stroke-miterlimit="10" stroke-width="1"/><path d="M166.772,662.543a10.744,10.744,0,0,0,12.094-17.592l-1.843,4.025-.139-5.392-.026-.014a10.744,10.744,0,0,0-10.087,18.974Z" transform="translate(-145.061 -597.716)" fill="#57b894"/><path d="M169.353,656.447a10.744,10.744,0,0,0,12.094-17.593l-1.843,4.025-.139-5.392-.026-.014a10.744,10.744,0,0,0-10.087,18.974Z" transform="translate(-146.866 -593.453)" fill="none" stroke="#3f3d56" stroke-miterlimit="10" stroke-width="1"/><path d="M134.856,737.371a10.739,10.739,0,1,0,3.229-8.041l3.73,7.805-5.941-4.7A10.644,10.644,0,0,0,134.856,737.371Z" transform="translate(-126.721 -656.445)" fill="#57b894"/><path d="M136.978,732.887a10.739,10.739,0,1,0,3.229-8.041l3.73,7.805-5.941-4.7a10.644,10.644,0,0,0-1.019,4.939Z" transform="translate(-128.206 -653.308)" fill="none" stroke="#3f3d56" stroke-miterlimit="10" stroke-width="1"/></g><line x2="316.185" transform="translate(3.04 234.193)" fill="none" stroke="#3f3d56" stroke-miterlimit="10" stroke-width="1"/><path d="M461.557,60.409c-31.7,0-57.406,17.076-57.406,38.141,0,9.406,5.127,18.014,13.622,24.664V150.9l18.2-18.2a81.653,81.653,0,0,0,25.587,3.992c31.7,0,57.406-17.076,57.406-38.141S493.261,60.409,461.557,60.409Z" transform="translate(-300.37 -59.909)" fill="none" stroke="#3f3d56" stroke-miterlimit="10" stroke-width="1"/><path d="M498.664,325.466s-1.155-15.551-.611-18.4,1.054-10.94-1.935-8.279-1.927,8.7-1.927,8.7-2.837,16.435-.213,18.665S498.664,325.466,498.664,325.466Z" transform="translate(-362.42 -226.274)" fill="#a0616a"/><path d="M499.693,399.855s-8.9-7.936-8.417-14.669c0,0,5.29-4.088,6.493-1.924s9.942,10.608,8.458,13.48S499.693,399.855,499.693,399.855Z" transform="translate(-361.296 -285.284)" fill="#09f"/><path d="M624.136,332.631s5.29-14.669,5.531-17.555,1.924-10.821,4.088-7.455-.481,8.9-.481,8.9-1.683,16.593-4.809,18.036S624.136,332.631,624.136,332.631Z" transform="translate(-454.237 -232.248)" fill="#a0616a"/><path d="M569.684,637.564h14.188l.721,7.214-3.367.721s-7.936-2.4-12.5-1.683S569.684,637.564,569.684,637.564Z" transform="translate(-414.214 -463.596)" fill="#a0616a"/><path d="M607.334,629.1s6.733-4.569,7.936-.721,5.531,17.8,4.088,19.238-3.126-1.2-3.126-1.2-2.886-6.012-5.05-6.252A5.014,5.014,0,0,1,607.815,638S614.067,633.187,607.334,629.1Z" transform="translate(-442.485 -456.092)" fill="#2f2e41"/><path d="M564.128,753.157s2.645,10.821,2.164,12.5,7.7.721,7.7.721l.481-3.126s-4.809-7.7-4.809-11.062S564.128,753.157,564.128,753.157Z" transform="translate(-412.265 -542.877)" fill="#a0616a"/><path d="M561.594,784.782s6.493,4.809,3.126,7.214-15.871,8.657-15.871,8.657-4.569.721-1.2-3.367,4.328-4.81,4.569-6.974a10.556,10.556,0,0,1,1.483-4.06S557.025,792.958,561.594,784.782Z" transform="translate(-399.872 -566.567)" fill="#2f2e41"/><path d="M529.365,581.3s-2.645,25.009,1.443,32.945,8.9,18.757,8.657,19.238,6.974-.721,6.974-2.886-7.936-23.807-7.936-23.807,3.367-28.136,6.012-30.059S529.365,581.3,529.365,581.3Z" transform="translate(-387.362 -420.795)" fill="#2f2e41"/><path d="M529.365,581.3s-2.645,25.009,1.443,32.945,8.9,18.757,8.657,19.238,6.974-.721,6.974-2.886-7.936-23.807-7.936-23.807,3.367-28.136,6.012-30.059S529.365,581.3,529.365,581.3Z" transform="translate(-387.362 -420.795)" opacity="0.1"/><path d="M520.383,357.93a5.951,5.951,0,0,0-4.277,2.868c-.8,1.5-.848,3.515-2.117,4.6a17.638,17.638,0,0,1-2.631,1.3,4.052,4.052,0,0,0-1.864,3.609c.068,1.327.767,2.563.753,3.891-.019,1.727-1.214,3.153-2.337,4.4l3.726.691a3.709,3.709,0,0,0,1.723.046c.643-.191,1.166-.72,1.817-.882a3.746,3.746,0,0,1,2.688.839,58.252,58.252,0,0,0,7.441,3.591,2.923,2.923,0,0,0,2.324.292c.593-.276.963-.921,1.521-1.27,1-.625,2.255-.155,3.378.154a11.166,11.166,0,0,0,7.629-.65c-.515-.6-1.189-1.021-1.743-1.581a2.553,2.553,0,0,1-.857-2.149c.149-.813.848-1.355,1.325-2.011a4.727,4.727,0,0,0,.719-3.584,6.539,6.539,0,0,0-1.716-3.246,17.142,17.142,0,0,1-1.4-1.48,10.138,10.138,0,0,1-1.374-4.226,6.392,6.392,0,0,0-1.861-3.944c-1.813-1.431-4.758-.944-6.877-1.086C524.347,357.968,522.4,357.93,520.383,357.93Z" transform="translate(-372.944 -268.008)" fill="#2f2e41"/><path d="M490.713,515.246l4.569,11.3s-20.921,22.845-9.138,25.971,15.871-2.4,23.326,1.924c0,0,3.607-5.531,3.126-8.9,0,0-10.34-1.924-15.871-1.683,0,0,14.909-12.986,16.352-13.467s6.252-8.176-1.2-14.428-5.531-9.619-5.531-9.619Z" transform="translate(-355.202 -371.818)" fill="#2f2e41"/><path d="M539.155,404.344s.721,7.455-2.4,8.417,12.264.721,12.264.721a5.423,5.423,0,0,1-1.924-6.733C548.774,402.18,539.155,404.344,539.155,404.344Z" transform="translate(-392.823 -300.114)" fill="#a0616a"/><path d="M539.155,404.344s.721,7.455-2.4,8.417,12.264.721,12.264.721a5.423,5.423,0,0,1-1.924-6.733C548.774,402.18,539.155,404.344,539.155,404.344Z" transform="translate(-392.823 -300.114)" opacity="0.1"/><path d="M529.289,432.46s-1.443-7.455-4.328-6.974-8.657.962-9.379,1.443a31.825,31.825,0,0,1-4.569,1.467s1.443-1.707,0-1.948-6.012.962-6.493,1.924-2.4,2.886-2.4,6.252-1.443,9.138-.962,11.543-.24,7.936-1.683,11.062-.241,6.252,2.164,3.126,1.2,0,3.126.24,10.581-8.657,12.986-6.493,4.809,3.607,5.29,2.4-1.924-3.367-1.924-4.329-3.848,3.126.241-5.29S521.594,436.067,529.289,432.46Z" transform="translate(-366.605 -315.244)" fill="#09f"/><path d="M590.374,406.654l1.924.481s6.974-5.05,8.9-8.657,3.367-6.493,3.367-6.493-3.126-3.848-5.05-2.4-10.581,11.3-10.581,11.3Z" transform="translate(-429.614 -289.919)" fill="#09f"/><circle cx="7.455" cy="7.455" r="7.455" transform="translate(144.408 94.371)" fill="#a0616a"/><path d="M542.187,376.494a6.547,6.547,0,0,1,4.553-1.5c2.858.176,5.373,2.212,8.235,2.276a2.951,2.951,0,0,1,.246-1.825,2.816,2.816,0,0,0,.525-1.4,1.707,1.707,0,0,0-.617-1.011,9.663,9.663,0,0,0-6.22-2.477c-1.527-.067-4.442-.031-5.626,1.126C542.27,372.675,542.388,375.212,542.187,376.494Z" transform="translate(-396.919 -276.828)" fill="#2f2e41"/><circle cx="15.629" cy="15.629" r="15.629" transform="translate(145.558 30.115)" fill="#09f"/><ellipse cx="1.499" cy="1.963" rx="1.499" ry="1.963" transform="translate(155.869 37.892)" fill="#444053"/><ellipse cx="1.499" cy="1.963" rx="1.499" ry="1.963" transform="translate(163.614 37.892)" fill="#444053"/><path d="M582.716,208.576c0,2.819-4.707,7.566-9.458,7.566s-9.279-4.855-9.279-7.673,4.431-.241,9.181-.241S582.716,205.757,582.716,208.576Z" transform="translate(-412.161 -162.546)" fill="#3f3d56"/><path d="M567.9,213.5s8.539,1.9,15.712.054c0,0,.878,0,.278,1.015a1.617,1.617,0,0,1-.658.615c-1.383.706-6.5,2.794-14.685.131a1.61,1.61,0,0,1-1.062-1.088C567.385,213.874,567.427,213.544,567.9,213.5Z" transform="translate(-414.581 -166.985)" fill="#f6f8fb"/></g></svg>