<svg xmlns="http://www.w3.org/2000/svg" xmlns:xlink="http://www.w3.org/1999/xlink" width="196.5" height="196.5" viewBox="0 0 196.5 196.5"><defs><linearGradient id="a" x1="0.5" y1="0.008" x2="0.5" y2="0.998" gradientUnits="objectBoundingBox"><stop offset="0" stop-color="#e09b3d"/><stop offset="0.3" stop-color="#c74c4d"/><stop offset="0.6" stop-color="#c21975"/><stop offset="1" stop-color="#7024c4"/></linearGradient><linearGradient id="b" y1="-0.451" y2="1.462" xlink:href="#a"/><linearGradient id="c" y1="-1.396" y2="6.586" xlink:href="#a"/></defs><path d="M137.962,0H58.538A58.6,58.6,0,0,0,0,58.538v79.423A58.6,58.6,0,0,0,58.538,196.5h79.423A58.6,58.6,0,0,0,196.5,137.962V58.538A58.605,58.605,0,0,0,137.962,0Zm38.771,137.962a38.771,38.771,0,0,1-38.771,38.771H58.538a38.771,38.771,0,0,1-38.771-38.771V58.538A38.771,38.771,0,0,1,58.538,19.768h79.423a38.771,38.771,0,0,1,38.771,38.771v79.423Z" fill="url(#a)"/><path d="M183.822,133a50.822,50.822,0,1,0,50.822,50.822A50.879,50.879,0,0,0,183.822,133Zm0,81.876a31.054,31.054,0,1,1,31.054-31.054A31.054,31.054,0,0,1,183.822,214.876Z" transform="translate(-85.572 -85.572)" fill="url(#b)"/><circle cx="12.178" cy="12.178" r="12.178" transform="translate(136.992 35.632)" fill="url(#c)"/></svg>