<svg xmlns="http://www.w3.org/2000/svg" xmlns:xlink="http://www.w3.org/1999/xlink" width="361.702" height="269.58" viewBox="0 0 361.702 269.58"><defs><linearGradient id="a" x1="0.5" y1="1" x2="0.5" gradientUnits="objectBoundingBox"><stop offset="0" stop-color="gray" stop-opacity="0.251"/><stop offset="0.54" stop-color="gray" stop-opacity="0.122"/><stop offset="1" stop-color="gray" stop-opacity="0.102"/></linearGradient></defs><g transform="translate(-0.012 -0.057)"><path d="M426.228,214.093c-.065.382-.13.765-.2,1.147a140.8,140.8,0,0,1-11.717,37.112q-.277.574-.564,1.147a106.066,106.066,0,0,1-13.2,20.361,42.255,42.255,0,0,1-9.484,8.9c-5.089,3.244-11.038,4.563-16.885,5.642-6.076,1.124-12.23,2.049-18.37,3.074q-3.265.533-6.489,1.117c-5.932,1.072-11.82,2.312-17.568,3.955a91.321,91.321,0,0,0-20.491,8.429q-.779.444-1.54.912c-.509.307-1.025.622-1.52.943s-.994.639-1.486.963l-.758.512c-.249.164-.5.342-.741.505-.731.5-1.451,1.025-2.172,1.53l-.027.021q-.712.512-1.417,1.025c-2.66,1.971-5.263,4.033-7.855,6.1L292.1,318.8q-1.267,1-2.534,2c-.5.393-1,.782-1.5,1.171-.362.283-.721.567-1.089.847-1.848,1.424-3.719,2.818-5.628,4.149-.454.318-.915.635-1.366.946a72.024,72.024,0,0,1-12.137,6.687l-.055.024a48.156,48.156,0,0,1-6.448,2.223,38.6,38.6,0,0,1-3.8.823,33.564,33.564,0,0,1-10.3.178c-6.724-.953-13.025-4.1-19.733-5.15-13.838-2.148-27.277,4.781-40.3,10.222q-4.781,2-9.668,3.757-3.238,1.168-6.506,2.223a204.832,204.832,0,0,1-40.821,8.732,94.333,94.333,0,0,1-17.332.468,58.535,58.535,0,0,1-6.489-.844c-7.3-1.366-14.111-4.266-19.6-9.562-4.559-4.334-7.776-10-10.228-15.911q-1.479-3.562-2.606-7.288A81.276,81.276,0,0,1,71.322,312.6c-.133-.908-.253-1.82-.342-2.732q-.266-2.346-.4-4.713a81.622,81.622,0,0,1,2.428-24.931c2.326-9.013,6.205-17.643,7.913-26.741.072-.383.137-.765.2-1.148q.342-2.049.519-4.173c.861-11.127-2.469-22.018-5.1-32.925-.092-.382-.184-.765-.273-1.147q-.427-1.813-.809-3.63c-2.435-11.536-3.1-23.882-.939-35.395.068-.382.147-.768.225-1.147a57.252,57.252,0,0,1,7.978-19.955,69.152,69.152,0,0,1,15.027-15.9q4.149-3.313,8.582-6.2,3.186-2.07,6.489-3.917a108.15,108.15,0,0,1,58.153-13.661q1.595.082,3.183.219,1.667.143,3.323.342c12.92,1.492,25.491,5.191,37.987,9.238q6.28,2.049,12.54,4.1,2.787.908,5.57,1.793c9.1,2.872,18.353,5.464,27.69,7.418q3.248.683,6.489,1.247a153.365,153.365,0,0,0,22.741,2.343q4.44.109,8.879-.092,2.244-.1,4.491-.3c15.474-1.325,30.395-5.768,45.377-9.942,2.165-.6,4.334-1.206,6.489-1.786,2.848-.765,5.7-1.506,8.562-2.189,17.82-4.279,33.7-1.82,50.268,7,3.757,2,7.513,4.423,9.836,8.166s2.886,8.377,3.316,12.838c.608,6.345,1.025,12.78,1.158,19.241,0,.382,0,.765.024,1.147A204.717,204.717,0,0,1,426.228,214.093Z" transform="translate(-70.44 -94.007)" fill="#fff"/><path d="M315.861,252.614H314.7v1.147h1.318Zm-13.2,0a.075.075,0,0,0,0,.027l-.1.949v.171h10.109v-.068l.721-1.079Zm-27.031,0V215.5h11.612c-.123-.1-.249-.2-.379-.3l-.171-.13c-.072-.058-.143-.113-.219-.164s-.253-.181-.386-.27-.215-.147-.342-.219l-.079-.051H275.631v-2.032l-.27.13-.287.161h-.021l-.061.038-.178.116c-.061.038-.123.075-.181.116-.178.12-.341.249-.529.382l-.171.137c-.116.089-.225.181-.342.273-.454.372-.9.762-1.366,1.12-.116.092-.232.181-.341.266a8.826,8.826,0,0,1-.772.505,3.677,3.677,0,0,1-.342.188l-.191.089-.174.075h0a7.255,7.255,0,0,1-1.27.4v36.279H251.718a.525.525,0,0,0,.034.12c.1.342.191.683.283,1.025h17.1v39.783h.266l.3.021.553.041.895.089.4.048.444.055h.065c.256.034.516.075.779.116l.167.027.376.061.54.1h0l1.294-.068h0l.178.038a1.032,1.032,0,0,1,.219.044V253.762h26.915v-.171l.1-.949a.074.074,0,0,1,0-.027Zm40.23,0H314.7v1.147h1.318Zm-13.927,0-.116,1.147h11.246l.765-1.147Zm-26.3,0V215.5h11.612c-.123-.1-.249-.2-.379-.3l-.171-.13c-.072-.058-.143-.113-.219-.164s-.253-.181-.386-.27-.215-.147-.341-.219l-.079-.051H275.631v-2.032l-.27.13-.287.161h-.021l-.061.038-.178.116c-.061.038-.123.075-.181.116-.178.12-.341.249-.529.382l-.171.137c-.116.089-.225.181-.342.273-.454.372-.9.762-1.366,1.12-.116.092-.232.181-.341.266a8.826,8.826,0,0,1-.772.505,3.677,3.677,0,0,1-.342.188l-.191.089-.174.075h0a7.255,7.255,0,0,1-1.27.4v36.279H251.718a.525.525,0,0,0,.034.12c.1.342.195.683.287,1.025h17.1v39.78l.266.017.3.021.553.041.895.089.4.048.444.055h.065c.256.034.516.075.779.116l.167.027.376.061.54.1h0l1.294-.068h0l.178.038a1.034,1.034,0,0,1,.219.044v-40.36h26.2l.123-1.147Zm87.995-77.285h73.163c0-.382,0-.765-.024-1.147H363.632V129.123c-2.172.581-4.341,1.182-6.489,1.786v43.273H277.57l-.2-.219.3-.342h0l29.6-32.481q-4.44.2-8.879.092L275.631,166.2V138.9q-3.258-.564-6.489-1.247v27.287l-33.274-36.5c-4.177-1.366-8.353-2.756-12.54-4.1l45.227,49.619-.2.219H185.341V115.1q-1.66-.188-3.323-.342-1.588-.14-3.183-.219v59.642H120.682V128.214q-3.309,1.844-6.489,3.917v42.051H82.565c-.079.379-.157.765-.225,1.147h31.826v39.025H84.1c.089.383.181.765.273,1.147h29.8v37.112H88.945c-.065.383-.13.765-.2,1.147h25.436V357.531a58.543,58.543,0,0,0,6.489.844V253.762h58.167v95.412q3.272-1.062,6.506-2.223V253.762h83.787v83.364a48.157,48.157,0,0,0,6.448-2.223l.055-.024V253.762h81.492v39.093q3.241-.584,6.489-1.117V253.762h57.945q.287-.574.564-1.147H363.632V215.5h70.226c.072-.382.137-.765.2-1.147H363.632Zm-242.947,0h58.15v39.025H120.682Zm0,77.285V215.5h58.15v37.112Zm64.659-77.285h83.784v39.025H185.341Zm0,77.285V215.5h83.784v37.112Zm171.782,0h-81.5V215.5h81.492Zm0-38.25h-81.5v-37.99l1.144-1.045h80.348Zm-54.461,38.25a.075.075,0,0,0,0,.027l-.1.949v.171h10.109v-.068l.721-1.079Zm13.2,0H314.7v1.147h1.318Zm-40.23,0V215.5h11.612c-.123-.1-.249-.2-.379-.3l-.171-.13c-.072-.058-.143-.113-.219-.164s-.253-.181-.386-.27-.215-.147-.341-.219l-.079-.051H275.631v-2.032l-.27.13-.287.161h-.021l-.061.038-.178.116c-.061.038-.123.075-.181.116-.178.12-.341.249-.529.382l-.171.137c-.116.089-.225.181-.342.273-.454.372-.9.762-1.366,1.12-.116.092-.232.181-.341.266a8.826,8.826,0,0,1-.772.505,3.677,3.677,0,0,1-.342.188l-.191.089-.174.075h0a7.255,7.255,0,0,1-1.27.4v36.279H251.718a.525.525,0,0,0,.034.12c.1.342.191.683.283,1.025h17.1v39.783h.266l.3.021.553.041.895.089.4.048.444.055h.065c.256.034.516.075.779.116l.167.027.376.061.54.1h0l1.294-.068h0l.178.038a1.032,1.032,0,0,1,.219.044V253.762h26.915v-.171l.1-.949a.074.074,0,0,1,0-.027Z" transform="translate(-78.268 -94.268)" fill="#09f" opacity="0.1"/><path d="M272.332,209.158h.519a1.243,1.243,0,0,1-.618-1h0c0-.792.97-1.438,2.155-1.438h15.078c1.185,0,2.155.645,2.155,1.438h0c0,.789-.97,1.438-2.155,1.438h-.5a1.246,1.246,0,0,1,.615,1c0,.683-.7,1.243-1.646,1.4h4.341c1.182,0,2.152.645,2.152,1.438s-.97,1.434-2.152,1.434H277.178c-1.182,0-2.152-.645-2.152-1.434,0-.683.7-1.243,1.646-1.4h-4.341c-1.182,0-2.152-.645-2.152-1.438S271.143,209.158,272.332,209.158Z" transform="translate(-201.958 -154.967)" fill="#09f" opacity="0.1"/><path d="M750.852,249.228h.505a1.247,1.247,0,0,1-.618-1h0c0-.789.97-1.434,2.155-1.434h15.078c1.185,0,2.155.645,2.155,1.434h0c0,.792-.97,1.438-2.155,1.438h-.5a1.25,1.25,0,0,1,.615,1c0,.683-.7,1.24-1.646,1.393h4.341c1.182,0,2.152.649,2.152,1.438s-.97,1.438-2.152,1.438H755.7c-1.182,0-2.152-.645-2.152-1.438,0-.683.7-1.243,1.646-1.393h-4.347c-1.182,0-2.151-.649-2.151-1.438S749.677,249.228,750.852,249.228Z" transform="translate(-517.056 -181.353)" fill="#09f" opacity="0.1"/><path d="M204.6,420.692h.505a1.25,1.25,0,0,1-.615-1h0c0-.789.966-1.438,2.152-1.438h15.078c1.185,0,2.155.649,2.155,1.438h0c0,.792-.97,1.438-2.155,1.438h-.5a1.25,1.25,0,0,1,.615,1c0,.683-.7,1.24-1.646,1.393h4.341c1.185,0,2.152.645,2.152,1.438s-.966,1.438-2.152,1.438H209.448c-1.182,0-2.152-.649-2.152-1.438,0-.683.707-1.243,1.646-1.4H204.6c-1.182,0-2.152-.645-2.152-1.434S203.42,420.692,204.6,420.692Z" transform="translate(-157.358 -294.256)" fill="#09f" opacity="0.1"/><path d="M672.5,713.44q-1.267,1-2.534,2c-.5.393-1,.782-1.5,1.171-.362.283-.721.567-1.089.847-1.848,1.424-3.719,2.817-5.628,4.149-.454.318-.915.635-1.366.946a72.012,72.012,0,0,1-12.137,6.687l-.055.024V713.44Z" transform="translate(-450.872 -488.635)" fill="#65617d"/><path d="M529.913,370.818l.382-11.8c-.229-.178-.461-.342-.683-.505a62.9,62.9,0,0,0-.6-10.522c-1.544-11.8-11.567-12.055-14.395-9.62a6.827,6.827,0,0,1-1.219.84c.256-1.684.574-3.371.8-5.037,1.236-8.989-.683-19.1-7.657-24.91-2.92-2.428-6.489-3.921-9.7-5.953-5.744-3.623-10.283-8.975-16.092-12.5s-13.968-4.85-19.036-.314c-1.964,1.755-3.231,4.19-5.246,5.884-3.757,3.156-9.614,3.364-12.892,6.888h0c-.164.178-.321.359-.471.55-2.732,3.5-1.984,8.473-1.113,12.82,1.048,5.232.615,9.426,5.1,10.928.017.208.031.417.055.622a22.168,22.168,0,0,0,9.754,15.956l-.727.259c-1.94.683-3.685,1.346-4.8,1.8-4.1,1.67-12.725,3.845-12.725,3.845s-.2,2.459-.167,6.086c-2.876,3.125-7.674,8.616-9.084,11.871-2.049,4.747-13.626,18.343-16.71,20.4s-6.427,4.488-6.427,4.488-4.884,2.695-7.2,2.951c-1.6.178-6.557-.772-6.557-.772S372.72,370.818,374,389.424,391.1,408.661,391.1,408.661l15.938-.256s8.613,1.154,12.469-2.049c3.292-2.732,20.354-17.721,25.836-24.521.126.14.253.277.386.41,0,0,2.182-2.821,2.442,0s-1.417,4.1-.516,5.123,3.6,4.617,3.726,6.028-3.6,7.172,2.7,11.543c.1.068.2.133.321.2,1.124,2.558,4.7,5.061,4.7,5.061l19.279-.256,36.375,2.821s1.083-.953,2.548-2.51c1.957,1.8,4.672,3.337,7.732,2.391,0,0,4.371-5.256,4.5-8.719,0,0-2.828-7.312-4.1-9.491s.9-6.926.9-6.926,1.54-4.617,2.442-4.617.256-3.074.256-3.074a3.736,3.736,0,0,1-.386-3.463A33.146,33.146,0,0,0,529.913,370.818Z" transform="translate(-270.285 -208.223)" fill="url(#a)"/><path d="M691.262,459.3l-1.366,1.6h0l-5.519,6.427-7.209.437-11.54.71s-15.559-18.749-12.636-22.83a7.472,7.472,0,0,0,1.025-5.249c-.027-.253-.065-.505-.109-.755a21.819,21.819,0,0,0-1.817-5.6l.383-.174.246-.113,13.606-6.209,3.367-1.537a9.091,9.091,0,0,0,.922,2.657c.065.13.137.26.212.382,4.641,7.684,19.524,2.824,19.524,2.824Z" transform="translate(-453.44 -299.366)" fill="#ee8e9e"/><path d="M780.021,455.733a22.431,22.431,0,0,1-.861,6.66L759.9,465.326l-.721-5-2.852-19.743,2.677-2.677a7.148,7.148,0,0,0,6.123-1.53c2.8-2.425,12.752-2.169,14.282,9.562A64.917,64.917,0,0,1,780.021,455.733Z" transform="translate(-522.08 -305.388)" fill="#ee8e9e"/><path d="M791.443,616.3s4.334-5.229,4.464-8.671l-4.337-7.271-3.825-4.1L780.6,610.05S785.32,618.212,791.443,616.3Z" transform="translate(-538.062 -411.473)" fill="#dfe5ee"/><path d="M791.443,616.3s4.334-5.229,4.464-8.671l-4.337-7.271-3.825-4.1L780.6,610.05S785.32,618.212,791.443,616.3Z" transform="translate(-538.062 -411.473)" opacity="0.1"/><path d="M289.053,699.377c-.362.284-.721.567-1.089.847-1.848,1.424-3.719,2.817-5.628,4.149-.454.318-.915.635-1.366.946H172.026l-32.232-1.154-25.921-.219-6.489-.341L75.009,701.9a81.283,81.283,0,0,1-2.667-11.905c-.133-.908-.253-1.82-.342-2.732l35.371,1.96,6.489.366,58.153,3.244,6.506.362,83.787,4.679,6.448.362h.055Z" transform="translate(-71.459 -471.395)" fill="#d48a9b"/><path d="M331.983,632.038a91.317,91.317,0,0,0-20.491,8.429c-.516.3-1.025.6-1.54.912s-1.025.622-1.52.942-.994.639-1.486.963l-.758.512-.741.505c-.731.5-1.451,1.025-2.172,1.53l-.027.02q-.712.512-1.417,1.025c-2.66,1.971-5.263,4.033-7.855,6.1q-.82.656-1.643,1.308l-2.527,2c-.5.393-1,.782-1.5,1.171-.362.283-.721.567-1.089.847L268.1,657.4h-.055l-6.448-.3-83.825-3.972-6.506-.311-58.153-2.763-6.489-.311-35.043-1.65c-.133-.908-.253-1.82-.342-2.732q-.266-2.346-.4-4.713l35.777-12.636,6.489-2.3L119,623.63l10.741.56,24.825,1.274h0l16.707.878,6.506.341,4.156.219h0l.994.055h0l34.978,1.827h0l.369.024h0l15.607.813h.28l1.561.079h0l5.321.28,6.653.342h0l2.193.116h0l.413.024,3.1.16h0l.885.044h0l2.961.157h0l1.178.065h.283l2.77.147,4.289.225h.02l1.332.068h.143l.8.044,1.953.1h0l1.708.089h.017l1.916.1h.031l1.451.079h0l1.113.058,3.951.208h0l.71.038h.246l.342.02h0l1.158.062h0l.519.027h0l4.03.208h.369l5.949-.051h.041l22.618-.184h2.237l7.281-.058h1.086Z" transform="translate(-70.695 -429.496)" fill="#efc6cd"/><path d="M387.437,642.245l2.1,11.191,57.2-.861s4.3,1.243,4.207-2.2c0,0,8.705-8.227,52.8,1.339l-16.929-13.3-46.275,2.486-53.659-1.434Z" transform="translate(-278.803 -439.235)" fill="#09f"/><path d="M391.59,640.59l2.008,12.148s49.178-1.434,56.91-.1l-5.843-11.1S414.929,638.773,391.59,640.59Z" transform="translate(-281.904 -440.258)" fill="#fff"/><path d="M391.59,640.59l2.008,12.148s49.178-1.434,56.91-.1l-5.843-11.1S414.929,638.773,391.59,640.59Z" transform="translate(-281.904 -440.258)" opacity="0.1"/><path d="M393.74,640.543l1.981,11.3s48.553-1.332,56.2-.089l-5.761-10.317S416.785,638.853,393.74,640.543Z" transform="translate(-283.32 -440.255)" fill="#fff"/><path d="M396.35,641.623l1.93,10.567s47.488-1.247,54.984-.082l-5.635-9.655S418.893,640.028,396.35,641.623Z" transform="translate(-285.039 -440.986)" opacity="0.1"/><path d="M397.47,640.507l1.94,10.587s47.488-1.246,54.984-.082l-5.649-9.665S420.013,638.925,397.47,640.507Z" transform="translate(-285.776 -440.256)" fill="#fff"/><path d="M285.913,557.41s2.486,3.248-1.144,8.155-6.629,9.047-5.416,12.107c0,0,5.464-9.112,9.938-9.221S290.821,562.888,285.913,557.41Z" transform="translate(-207.817 -385.891)" fill="#09f"/><path d="M286.184,557.41a3.948,3.948,0,0,1,.509,1.025c4.351,5.123,6.67,9.9,2.486,10.006-3.9.109-8.569,7.076-9.689,8.838q.058.2.133.4s5.464-9.112,9.938-9.221S291.091,562.888,286.184,557.41Z" transform="translate(-208.088 -385.891)" opacity="0.1"/><path d="M311.514,568.126c0,1.141-.13,2.07-.287,2.07s-.287-.929-.287-2.07.161-.608.318-.608S311.514,566.982,311.514,568.126Z" transform="translate(-228.798 -392.465)" fill="#ffd037"/><path d="M313.484,572.011c-1,.55-1.878.881-1.953.741s.683-.683,1.68-1.243.608-.15.683,0S314.488,571.465,313.484,572.011Z" transform="translate(-229.183 -394.987)" fill="#ffd037"/><path d="M249.906,557.41s-2.486,3.248,1.147,8.155,6.625,9.047,5.416,12.107c0,0-5.481-9.112-9.941-9.221S245,562.888,249.906,557.41Z" transform="translate(-184.935 -385.891)" fill="#09f"/><path d="M249.906,557.41a4.1,4.1,0,0,0-.509,1.025c-4.351,5.123-6.67,9.9-2.486,10.006,3.9.109,8.572,7.076,9.692,8.838a4.092,4.092,0,0,1-.133.4s-5.481-9.112-9.941-9.221S245,562.888,249.906,557.41Z" transform="translate(-184.935 -385.891)" opacity="0.1"/><path d="M247.13,568.126c0,1.141.13,2.07.287,2.07s.287-.929.287-2.07-.161-.608-.318-.608S247.13,566.982,247.13,568.126Z" transform="translate(-186.78 -392.465)" fill="#ffd037"/><path d="M241.316,572.011c1,.55,1.882.881,1.957.741s-.683-.683-1.68-1.243-.608-.15-.683,0S240.312,571.465,241.316,572.011Z" transform="translate(-182.55 -394.987)" fill="#ffd037"/><path d="M267.443,600.986l-.123,1.025-.174,1.431-.072.6-.174,1.434-.075.6-.178,1.434-1.988,16.3c-.178,1.455-2.555,2.589-5.423,2.589H248.916c-2.869,0-5.242-1.134-5.42-2.589l-1.991-16.3-.174-1.434-.072-.6-.178-1.434-.072-.6-.174-1.431-.126-1.025c-.1-.823,1.185-1.516,2.811-1.516h21.126C266.269,599.47,267.556,600.163,267.443,600.986Z" transform="translate(-182.548 -413.587)" fill="#65617d"/><path d="M197.145,551.59l-.174,1.434H170.824l-.174-1.434Z" transform="translate(-112.362 -363.176)" fill="#9d9cb5"/><path d="M197.373,557.54l-.174,1.434H171.548l-.178-1.434Z" transform="translate(-112.836 -367.094)" fill="#9d9cb5"/><path d="M197.6,563.49l-.174,1.431H172.274l-.174-1.431Z" transform="translate(-113.317 -371.012)" fill="#9d9cb5"/><path d="M398.982,595.534s-6.632-6.376-6.376,1.913S398.982,595.534,398.982,595.534Z" transform="translate(-282.569 -409.453)" fill="#ee8e9e"/><path d="M445.894,508.844a9.678,9.678,0,0,1-1.974,3.043c-5.751,6.926-22.113,21.321-25.32,23.991-3.825,3.19-12.37,2.049-12.37,2.049l-15.812.256s-15.686-.639-16.963-19.125,18.363,5.611,18.363,5.611,4.918.943,6.506.765c2.295-.253,7.141-2.93,7.141-2.93s3.316-2.425,6.376-4.464,14.538-15.559,16.581-20.279c1.294-3,5.464-7.892,8.343-11.068,1.653-1.827,2.879-3.074,2.879-3.074S446.785,504.889,445.894,508.844Z" transform="translate(-269.923 -337.301)" fill="#ee8e9e"/><path d="M568.079,508.818a9.676,9.676,0,0,1-1.974,3.043c-5.806-5.912-7.018-17.708-7.155-25.207,1.653-1.827,2.879-3.074,2.879-3.074S568.97,504.863,568.079,508.818Z" transform="translate(-392.108 -337.275)" opacity="0.1"/><path d="M689.892,475.837h0l-5.515,6.427-7.209.437-11.54.71s-15.559-18.749-12.636-22.83a7.472,7.472,0,0,0,1.025-5.249c-.027-.253-.065-.505-.109-.755a21.817,21.817,0,0,0-1.817-5.6l.383-.174.246-.113a24.491,24.491,0,0,1,1.25,5.229c.038.242.072.5.106.755.12.922.229,1.947.342,3.074.888,10.321,7.38,14.2,10.31,15.44a29.734,29.734,0,0,1,2.76,1.335,14.722,14.722,0,0,0,9.255,1.673c7.233-.949,13.131-6.205,13.131-6.205l.031,5.174Z" transform="translate(-453.44 -314.301)" opacity="0.1"/><path d="M630.065,512.82s-47.44-.13-53.693-4.464-2.548-10.075-2.677-11.478-2.8-4.972-3.7-6,.765-2.3.509-5.1-2.421,0-2.421,0c-8.931-9.057-7.018-32.01-7.018-32.01s8.538-2.165,12.636-3.828c1.11-.451,2.838-1.093,4.781-1.786l.721-.259c5.01-1.793,10.966-3.818,10.966-3.818s1.144-.809,2.3,1.612a21.289,21.289,0,0,1,1.479,5.772c.037.242.072.5.106.755.12.922.229,1.947.342,3.074.888,10.321,7.38,14.2,10.31,15.44a29.734,29.734,0,0,1,2.759,1.335,14.723,14.723,0,0,0,9.255,1.673c7.233-.949,13.131-6.205,13.131-6.205l.031,5.174.089,15.546Z" transform="translate(-393.39 -311.179)" fill="#dfe5ee"/><path d="M657.83,583.221l-.765,4.846s-18.876,4.716-26.269,6.12-23.339-.383-24.487,2.677,4.846,7.271,4.846,7.271l19.125-.256,36.091,2.807s13.773-12.117,9.31-20.535S657.83,583.221,657.83,583.221Z" transform="translate(-423.197 -401.73)" fill="#ee8e9e"/><path d="M629.628,474.58s-8.674,7.141-7.015,10.587S629.628,474.58,629.628,474.58Z" transform="translate(-433.891 -331.349)" opacity="0.1"/><path d="M596.167,512.29s-8.8,15.177-8.289,16.324,2.934,5.229,2.8,2.169S596.167,512.29,596.167,512.29Z" transform="translate(-411.143 -356.18)" opacity="0.1"/><path d="M613.983,520.14s-2.049,9.436-4.081,13.391S613.983,520.14,613.983,520.14Z" transform="translate(-425.387 -361.349)" opacity="0.1"/><path d="M644.655,429.08a22.062,22.062,0,0,1-16.768,11.345h-.041a22.025,22.025,0,0,1-15.525-4.064c5.123-1.851,11.687-4.078,11.687-4.078s1.144-.809,2.295,1.612l17.219-7.855A9.129,9.129,0,0,0,644.655,429.08Z" transform="translate(-427.252 -299.386)" opacity="0.1"/><path d="M629.8,359.248a21.963,21.963,0,0,1-2.9,10.949,22.223,22.223,0,0,1-3.289,4.378,21.969,21.969,0,0,1-13.374,6.612h-.044a21.549,21.549,0,0,1-2.452.14,22.062,22.062,0,0,1-21.922-19.576,21.454,21.454,0,0,1-.14-2.489,22.062,22.062,0,0,1,44.124,0Z" transform="translate(-409.71 -240.886)" fill="#ee8e9e"/><path d="M753.786,503.234l2.049-3.074s11.222-13.391,22.2-4.846l-.382,11.734a31.109,31.109,0,0,1-1.277,5.464,3.732,3.732,0,0,0,.382,3.446s.639,3.074-.253,3.074-2.425,4.59-2.425,4.59-2.169,4.72-.891,6.888,4.081,9.436,4.081,9.436-4.464-2.678-5.741-7.141c0,0-10.84-8.418-19.258-3.074Z" transform="translate(-519.407 -343.126)" opacity="0.1"/><path d="M785.519,490.864a22.441,22.441,0,0,1-.86,6.66L765.4,500.457l-.721-5C767.2,492.828,776.367,484.468,785.519,490.864Z" transform="translate(-527.579 -340.519)" opacity="0.1"/><path d="M753.786,501.234l2.049-3.074s11.222-13.391,22.2-4.846l-.382,11.734a31.11,31.11,0,0,1-1.277,5.464,3.732,3.732,0,0,0,.382,3.446s.639,3.074-.253,3.074-2.425,4.59-2.425,4.59-2.169,4.72-.891,6.888,4.081,9.436,4.081,9.436-4.464-2.677-5.741-7.141c0,0-10.84-8.418-19.258-3.074Z" transform="translate(-519.407 -341.808)" fill="#dfe5ee"/><path d="M775.738,496.61s-18.49,11.352-17.6,21.307C758.14,517.917,768.471,499.67,775.738,496.61Z" transform="translate(-523.251 -345.855)" opacity="0.1"/><path d="M646.086,402.4l.089,15.546c-3.5.157-6.793-.3-9.4-2.561a11.278,11.278,0,0,1-3.415-6.113,21.652,21.652,0,0,1-.444-5.782.307.307,0,0,1,0-.058c.215-4.293,1.2-8.586.683-12.851s-3.1-8.767-7.326-9.665a4.423,4.423,0,0,1-2.363-.857,3.428,3.428,0,0,1-.553-2.691l.123-1.595c.031-.41.044-.816.044-1.223a15.652,15.652,0,0,0-12.636-15.348l-.137-.024a8.631,8.631,0,0,0-3.613-.2c-2.261.523-3.722,2.715-5.806,3.757-4,1.994-10.659-.188-14.842-.874-.273-.044-.533-.1-.782-.154a21.437,21.437,0,0,1-.14-2.49,22.062,22.062,0,1,1,41.221,10.949c.065.13.137.26.212.382,4.641,7.684,19.524,2.824,19.524,2.824l.895,27.42Z" transform="translate(-409.637 -240.864)" opacity="0.1"/><path d="M591.136,331.9c2.07-1.045,3.531-3.238,5.806-3.757a8.712,8.712,0,0,1,3.617.2l.137.027a15.665,15.665,0,0,1,12.578,16.574l-.123,1.595a3.377,3.377,0,0,0,.557,2.688,4.317,4.317,0,0,0,2.36.854c4.221.9,6.806,5.379,7.325,9.668s-.485,8.6-.683,12.906.594,9.067,3.852,11.9c5.123,4.44,12.909,1.912,19.688,1.506-3,0-5.246-3.094-5.41-6.086s1.168-5.84,2.442-8.538,2.551-5.6,2.268-8.586c-.389-4.1-3.62-7.38-4.856-11.325-1.441-4.59-.051-9.518.6-14.289,1.226-8.934-.683-18.992-7.6-24.767-2.9-2.414-6.438-3.9-9.62-5.922-5.7-3.617-10.2-8.92-15.966-12.438s-13.859-4.822-18.889-.314c-1.947,1.745-3.2,4.166-5.2,5.85-3.91,3.3-10.126,3.357-13.261,7.4-2.7,3.48-1.967,8.422-1.1,12.742,1.151,5.761.5,10.245,6.66,11.27C580.477,331.714,587.137,333.9,591.136,331.9Z" transform="translate(-398.636 -210.404)" fill="#603556"/><path d="M641.785,413.291c-4.935.6-9.825.915-13.418-2.2-3.258-2.831-4.061-7.585-3.852-11.9s1.206-8.623.683-12.909-3.1-8.763-7.325-9.665a4.38,4.38,0,0,1-2.36-.854,3.4,3.4,0,0,1-.557-2.691l.123-1.595a15.662,15.662,0,0,0-12.578-16.57l-.137-.027a8.712,8.712,0,0,0-3.617-.2c-2.261.522-3.722,2.732-5.806,3.757-4,2-10.655-.184-14.846-.871-6.147-1.007-5.505-5.5-6.66-11.27-.645-3.224-1.216-6.8-.341-9.849a5.366,5.366,0,0,0-.471.55c-2.7,3.48-1.967,8.422-1.1,12.742,1.151,5.761.5,10.245,6.659,11.27,4.187.683,10.846,2.869,14.846.871,2.07-1.045,3.531-3.238,5.806-3.757a8.709,8.709,0,0,1,3.617.2l.137.027a15.665,15.665,0,0,1,12.578,16.574l-.123,1.595a3.378,3.378,0,0,0,.557,2.688,4.317,4.317,0,0,0,2.36.854c4.221.9,6.807,5.379,7.326,9.668s-.482,8.6-.683,12.906.594,9.067,3.852,11.9c5.123,4.44,12.909,1.912,19.688,1.506A5.194,5.194,0,0,1,641.785,413.291Z" transform="translate(-398.55 -240.392)" opacity="0.1"/><path d="M370.8,579.42l21.054-7.855a2,2,0,0,1,2.578,1.175h0a2,2,0,0,1-1.175,2.578L372.2,583.173l-4.515-.451Z" transform="translate(-266.167 -395.128)" fill="#5c5c8e"/><path d="M393.772,572.7h0a2,2,0,0,1-1.178,2.578l-21.068,7.882-3.388-.341-.488.519,4.515.451,21.054-7.855a2,2,0,0,0,1.175-2.578h0a2.005,2.005,0,0,0-.82-1,2.325,2.325,0,0,1,.2.345Z" transform="translate(-266.14 -395.736)" fill="#fff" opacity="0.1"/><path d="M300.371,539.52l1.4,3.753-3.7-.372-.809-.082,1.106-1.175Z" transform="translate(-195.733 -355.228)" fill="#efc8c4"/><path d="M368.816,601a.9.9,0,0,1,.219.236.342.342,0,0,1,0,.365.727.727,0,0,1-.2.147.683.683,0,0,0-.3.505l-.813-.079Z" transform="translate(-266.186 -414.595)" fill="#727a9c"/><path d="M569.619,641.406s18.237-3.828,48.837,1.025l-11.987-8.8L584.66,629.17l-15.43,4.1Z" transform="translate(-398.878 -433.144)" fill="#fff"/><path d="M569.619,641.406s18.237-3.828,48.837,1.025l-11.987-8.8L584.66,629.17l-15.43,4.1Z" transform="translate(-398.878 -433.144)" opacity="0.1"/><path d="M552.889,647.57s9.183-24.842,56.35.079L592.31,636.754s-40.555-11.205-45.241,1.708Z" transform="translate(-384.286 -435.168)" fill="#fff"/><path d="M552.843,644.073s9.183-26.56,56.35.478l-16.929-11.816s-40.569-13.4-45.264.625Z" transform="translate(-384.24 -431.689)" opacity="0.1"/><path d="M552.889,643.888s9.183-26.952,56.35.085L592.31,632.157s-40.555-13.019-45.241,1.025Z" transform="translate(-384.286 -431.493)" fill="#fff"/><path d="M552.863,641.783s9.183-29.954,56.35.461l-16.943-13.3s-40.555-13.661-45.24,2.1Z" transform="translate(-384.259 -429.381)" opacity="0.1"/><path d="M552.863,641.028s9.183-30.32,56.35.1l-16.943-13.3s-40.555-13.661-45.24,2.1Z" transform="translate(-384.259 -428.644)" fill="#fff"/><path d="M968.069,668.71s-11.321,12.127-1.13,18.018a2.827,2.827,0,0,0,3.234.765s-.642-.57.645-1.67a7.644,7.644,0,0,0,1.212-1.332,3.757,3.757,0,0,0,.7-2.274h0s1.482-4.812-3.227-11.058c0,0-.427-2.09-.789-2.319l-.861,2.913a5.017,5.017,0,0,1,2.975,2.2s-2.848-2.237-3.125-1.769c-.055.1-.386,1.568-.386,1.568s3.757.97,4.932,3.552c0,0-3.036-3.118-5.061-3l-.369,2.247s4.02.833,5.464,3.723c0,0-3.285-3.152-5.519-3.224l-.065,2.257s3.9.888,5.1,3.3c0,0-4.163-3.255-5.075-2.78a11.164,11.164,0,0,0,.341,2.623s2.787.683,3.354,2.165c0,0-3.012-1.882-3.272-1.595a11.748,11.748,0,0,0,1.936,3.828,8.5,8.5,0,0,1-2.35-3.682,4.685,4.685,0,0,0-.567,2.62s-1.117-1.236.379-3.272a10.788,10.788,0,0,1-.41-2.452,10.2,10.2,0,0,0-2.21,3.415s-.342-2.022,2.206-4V677.2s-2.452,2.257-2.957,3.654c0,0-.034-2.117,3.009-4.224l.342-2.21a17.287,17.287,0,0,0-3.159,3.217s.389-1.974,3.278-3.845l.4-1.448s-1.626,1.332-2.049,1.755-.584.342-.584.342a7.172,7.172,0,0,1,2.8-2.712A16.314,16.314,0,0,0,968.069,668.71Z" transform="translate(-657.962 -459.181)" fill="#09f" opacity="0.1"/><path d="M1107.541,90.91s-15.126,6.83-7.995,16.184a2.83,2.83,0,0,0,2.688,1.957s-.372-.775,1.24-1.294a7.487,7.487,0,0,0,1.632-.762,3.757,3.757,0,0,0,1.527-1.827h0s3.224-3.866,1.287-11.444c0,0,.413-2.093.167-2.445l-1.919,2.356a5.013,5.013,0,0,1,1.9,3.173s-1.762-3.162-2.2-2.835c-.089.065-.96,1.294-.96,1.294s3.073,2.343,3.179,5.181c0,0-1.6-4.05-3.518-4.72l-1.205,1.933s3.388,2.319,3.613,5.543c0,0-1.817-4.173-3.849-5.1l-.932,2.049s3.261,2.326,3.415,5.01c0,0-2.585-4.61-3.61-4.522a10.612,10.612,0,0,0-.683,2.551s2.3,1.708,2.261,3.292c0,0-2.049-2.9-2.39-2.732a11.7,11.7,0,0,0,.311,4.279,8.475,8.475,0,0,1-.748-4.3,4.674,4.674,0,0,0-1.533,2.2s-.553-1.574,1.612-2.876a10.714,10.714,0,0,1,.567-2.418,10.2,10.2,0,0,0-3.35,2.285s.461-2,3.579-2.838l.888-2.09s-3.132,1.134-4.139,2.227c0,0,.785-1.967,4.405-2.732l1.165-1.906a17.447,17.447,0,0,0-4.156,1.749s1.124-1.667,4.512-2.281l.925-1.182s-2.015.6-2.579.826-.683.092-.683.092a7.171,7.171,0,0,1,3.651-1.421A17.934,17.934,0,0,0,1107.541,90.91Z" transform="translate(-746.825 -78.708)" fill="#09f" opacity="0.1"/><path d="M677.915,103.29s-22.724,6.489-11.676,16.147c0,0,.98,2.049,4.125,2.049,0,0-.587-.792,1.844-1.274a14.444,14.444,0,0,0,2.452-.724,4.375,4.375,0,0,0,2.261-1.807h0s4.781-3.825,1.643-11.536c0,0,.57-2.1.188-2.466l-2.841,2.329s2.732,1.4,2.961,3.258c0,0-2.756-3.241-3.415-2.923-.133.065-1.421,1.281-1.421,1.281s4.74,2.452,4.955,5.324c0,0-2.527-4.136-5.464-4.863L671.751,110s5.191,2.435,5.618,5.7c0,0-2.862-4.266-5.963-5.259l-1.366,2.049s5,2.438,5.328,5.157c0,0-4.04-4.73-5.591-4.672a8.006,8.006,0,0,0-.973,2.565s3.531,1.8,3.514,3.388c0,0-3.19-2.985-3.716-2.828,0,0-.362,2.811.587,4.334a6.491,6.491,0,0,1-1.25-4.368,5.135,5.135,0,0,0-2.261,2.179s-.881-1.6,2.363-2.858c0,0,.413-2.179.792-2.432,0,0-3.483.929-5.01,2.22,0,0,.642-2.008,5.341-2.773l1.291-2.09s-4.713,1.066-6.209,2.141c0,0,1.137-1.967,6.6-2.65l1.708-1.9a33.6,33.6,0,0,0-6.25,1.656s1.656-1.656,6.769-2.186l1.366-1.168s-3.036.553-3.883.765-1.025.075-1.025.075A13.452,13.452,0,0,1,675,105.715S678.113,103.433,677.915,103.29Z" transform="translate(-460.762 -86.86)" fill="#09f" opacity="0.1"/><path d="M893.382,808s11.441-12.018,1.308-18.008a2.831,2.831,0,0,0-3.227-.8s.638.577-.659,1.667a7.717,7.717,0,0,0-1.226,1.318,3.732,3.732,0,0,0-.724,2.268h0s-1.533,4.8,3.118,11.089c0,0,.406,2.094.765,2.329l.891-2.906a5.014,5.014,0,0,1-2.954-2.223s2.824,2.261,3.1,1.8c.058-.1.4-1.561.4-1.561s-3.757-1.025-4.9-3.6c0,0,3.005,3.149,5.034,3.043l.389-2.244s-4.009-.871-5.433-3.757c0,0,3.255,3.183,5.488,3.279l.085-2.261s-3.9-.943-5.078-3.367c0,0,4.132,3.3,5.048,2.831a10.172,10.172,0,0,0-.342-2.623s-2.78-.731-3.333-2.2c0,0,3,1.912,3.255,1.626a11.719,11.719,0,0,0-1.9-3.845,8.491,8.491,0,0,1,2.315,3.7,4.668,4.668,0,0,0,.591-2.613s1.107,1.25-.41,3.268a10.791,10.791,0,0,1,.386,2.456,10.229,10.229,0,0,0,2.24-3.378s.342,2.025-2.244,3.975l-.034,2.274s2.473-2.234,2.992-3.627c0,0,0,2.121-3.05,4.2l-.342,2.206a17.33,17.33,0,0,0,3.19-3.186s-.41,1.967-3.316,3.811l-.413,1.445s1.639-1.315,2.076-1.735.587-.342.587-.342a7.149,7.149,0,0,1-2.828,2.684A17.5,17.5,0,0,0,893.382,808Z" transform="translate(-609.185 -538.365)" fill="#09f" opacity="0.1"/><path d="M575.85,55.751s1.95,16.475,13.029,12.5a2.833,2.833,0,0,0,2.674-1.977s-.854.123-.861-1.571a7.647,7.647,0,0,0-.236-1.786,3.73,3.73,0,0,0-1.281-2h0s-2.719-4.242-10.543-4.658c0,0-1.871-1.025-2.281-.895l1.67,2.537a5,5,0,0,1,3.6-.854s-3.545.731-3.364,1.243c.034.106.943,1.3.943,1.3s3.193-2.254,5.925-1.486c0,0-4.341.3-5.556,1.93l1.458,1.735s3.231-2.534,6.376-1.779c0,0-4.529.478-6.028,2.134l1.7,1.509s3.2-2.411,5.806-1.762c0,0-5.177,1.079-5.4,2.08a10.922,10.922,0,0,0,2.23,1.428s2.336-1.677,3.818-1.165c0,0-3.381,1.086-3.33,1.469a11.738,11.738,0,0,0,4.173.99,8.666,8.666,0,0,1-4.327-.581,4.683,4.683,0,0,0,1.636,2.124s-1.667.051-2.257-2.391a10.883,10.883,0,0,1-2.134-1.267,10.221,10.221,0,0,0,1.171,3.88s-1.769-1.025-1.632-4.266l-1.708-1.479s.14,3.33.878,4.621c0,0-1.639-1.342-1.284-5.027L579.245,60.6a17.348,17.348,0,0,0,.413,4.488s-1.253-1.571-.816-4.986l-.85-1.24s-.031,2.1,0,2.708-.116.666-.116.666a7.172,7.172,0,0,1-.266-3.9A17.433,17.433,0,0,0,575.85,55.751Z" transform="translate(-403.237 -55.29)" fill="#09f" opacity="0.1"/><path d="M786.106,733.716s-15.99-4.44-16.5,7.322a2.834,2.834,0,0,0,.816,3.224s.208-.833,1.779-.2a7.65,7.65,0,0,0,1.742.461,3.733,3.733,0,0,0,2.343-.43h0s4.952-.909,8.313-7.971c0,0,1.656-1.342,1.708-1.772l-2.981.584a5.013,5.013,0,0,1-.574,3.654s.683-3.559.126-3.586c-.113,0-1.568.379-1.568.379s.874,3.777-.871,6.014c0,0,1.366-4.132.318-5.874l-2.165.714s1.12,3.948-.772,6.571c0,0,1.277-4.368.307-6.383l-2.029.987s1.025,3.873-.57,6.045c0,0,.963-5.2.119-5.789a11.11,11.11,0,0,0-2.162,1.523s.683,2.8-.369,3.975c0,0,.273-3.542-.1-3.637a11.69,11.69,0,0,0-2.5,3.487,8.491,8.491,0,0,1,2.179-3.784,4.691,4.691,0,0,0-2.585.707s.581-1.561,3.074-1.175a10.706,10.706,0,0,1,1.984-1.5,10.151,10.151,0,0,0-4.037-.389s1.632-1.243,4.566.109l2.022-1.025s-3.135-1.13-4.607-.936c0,0,1.861-1.025,5.123.714l2.11-.721a17.379,17.379,0,0,0-4.31-1.315s1.93-.563,4.925,1.134l1.468-.318s-1.933-.826-2.51-1.024-.574-.342-.574-.342a7.171,7.171,0,0,1,3.7,1.229A17.672,17.672,0,0,0,786.106,733.716Z" transform="translate(-530.689 -501.445)" fill="#09f" opacity="0.1"/></g></svg>