<svg xmlns="http://www.w3.org/2000/svg" xmlns:xlink="http://www.w3.org/1999/xlink" width="175.474" height="160.988" viewBox="0 0 175.474 160.988"><defs><linearGradient id="a" x1="0.5" y1="1" x2="0.5" gradientUnits="objectBoundingBox"><stop offset="0" stop-color="gray" stop-opacity="0.251"/><stop offset="0.54" stop-color="gray" stop-opacity="0.122"/><stop offset="1" stop-color="gray" stop-opacity="0.102"/></linearGradient></defs><path d="M305.835,108.779c-9.618-.333-18.778-3.437-27.521-6.83s-17.416-7.157-26.8-8.965c-6.038-1.157-12.943-1.322-17.808,1.914-4.68,3.116-6.2,8.493-7.007,13.483-.6,3.754-.972,7.706.705,11.219,1.163,2.441,3.23,4.492,4.658,6.83,4.974,8.132,1.458,18.16-3.931,26.1-2.527,3.724-5.46,7.278-7.41,11.249s-2.854,8.507-1.147,12.553c1.691,4.018,5.723,7.019,10.09,9.138,8.871,4.3,19.323,5.532,29.515,6.227,22.563,1.543,45.244.876,67.867.2,8.371-.249,16.779-.5,25.016-1.794,4.574-.719,9.3-1.86,12.617-4.62a10.562,10.562,0,0,0,2.435-13.8c-4.739-7.354-17.836-9.182-21.149-17.075-1.822-4.345.05-9.184,2.7-13.212,5.683-8.638,15.207-16.227,15.709-26.114.346-6.784-4.235-13.579-11.314-16.792-7.421-3.365-17.712-2.941-23.185,2.63C324.234,106.869,314.326,109.074,305.835,108.779Z" transform="translate(-207.535 -83.603)" fill="#09f" opacity="0.1"/><ellipse cx="61.061" cy="8.26" rx="61.061" ry="8.26" transform="translate(18.135 144.468)" fill="#09f" opacity="0.1"/><path d="M404.073,91.4s-1.89-3.73-1.635-4.839-1.33-3.477-1.33-3.477l.1-3.929s-.219.4-1.36.753c-.1-.127-.2-.251-.309-.37a8.1,8.1,0,0,0-1.37-1.143l-2.009-4.335-1.943-2.975s-3.063-6.227-6.227-7.6l-.5-.974a.076.076,0,0,0,.03-.1l-.506-.99a.078.078,0,0,0-.1-.036l-.484-.948a7.616,7.616,0,0,0-1.406-3.393c-.05-.07-.1-.135-.157-.2l.787-.028a2.635,2.635,0,0,0,1.926-.6,1.761,1.761,0,0,0,.36-.663,2.815,2.815,0,0,0,.117-.589c0-.03,0-.06,0-.088v-.49a1.616,1.616,0,0,0-.034-.2.138.138,0,0,0-.016-.078,2.336,2.336,0,0,0-.062-.233.313.313,0,0,1-.014-.046c-.028-.08-.058-.161-.092-.239a.224.224,0,0,1-.014-.032c-.036-.078-.076-.155-.119-.229L387.7,53.3h0a.8.8,0,0,0-.05-.09,5.681,5.681,0,0,0-2.411-1.808,27.86,27.86,0,0,0-2.611-1.205,14.062,14.062,0,0,0-10.245.145,4.056,4.056,0,0,0-.912.486A4.712,4.712,0,0,0,370.476,52l-1.557,2.3a3.25,3.25,0,0,0-.5.928c-.291,1.093.623,2.188.52,3.315-.052.56-.354,1.075-.412,1.635a3.892,3.892,0,0,0,.589,2.073l2.228,4.419c-.118.581-.249,1.175-.392,1.75h0a5.927,5.927,0,0,0-1.466,1.953l-.03.016h0a1.808,1.808,0,0,0-.514.5l-2.117,2.057s-3.68.956-4.445,2.168c0,0-5.775-.253-5.725,7.812,0,0-.255,3.025-.4,3.429s0,4.486,0,4.486l-.068,8.268a51.354,51.354,0,0,0,0,5.948c.221,1.563.476,7.511.476,7.511s1.38,5.8.87,7.864c-.49,1.979,0,6.306.8,6.324.153.315.327.47.518.382a2.216,2.216,0,0,1,.255-.092v4.94s-.994,6.92.12,8.236a26.93,26.93,0,0,0-1.828,3.321l-7.814-.42-.994.279h0l-.912.255-.552,12.71.221.016-.016.388.522.038-.727,12.8,10.817.89a9.688,9.688,0,0,1-1.243,2.32c-.4.2-1.278-.4-1.483-.153a1.664,1.664,0,0,1-1.533.4c-.715-.153-1.175.655-1.175.655s.1.092.261.263a6.88,6.88,0,0,0-3.427.884c-.358.181-.581.315-.581.315H346.65l1.159,7.394.818.558.2,5.826s3.27,10.082,4.769,10.016a.677.677,0,0,0,.5-.253c.8-.928.247-4.116.247-4.116V189.3s1.225-.538,1.089-.942,1.977-4.821,2.166-5.223a.034.034,0,0,0,.016-.032c0-.454.92-.958.868-1.159s2.25-1.462,2.411-2.571,1.685-.5,1.685-.5l1.94-2.23a27,27,0,0,0,.36,5.1,27.272,27.272,0,0,1,1.278,5.95s-.562,2.772,0,3.68a9.741,9.741,0,0,0,1.708,1.641,22.87,22.87,0,0,0-.5,5.5v2.149l4.293,1.205s.135-1.075.34-1.075,2.931,2.083,2.931,2.083,10.494.135,13.15,0c1-.05,1.278-.482,1.123-1a3.772,3.772,0,0,0-2.961-2.083c-2.045-.135-4.634-2.284-4.634-2.284s.2-.472-.886-1.143c-.751-.462-2.83-2.332-4.116-3.427.06-.082.123-.165.181-.253,0,0-1.738-2.411-1.378-3.479a5.013,5.013,0,0,0-.155-2.611,20.768,20.768,0,0,1-.97-4.488c0-.958-.145-6.408-.249-10.273l.9.074.018-.386.4.036,3.8.35-.117-4.06a25.4,25.4,0,0,0,3.983-2.025A8.127,8.127,0,0,1,387,164.107s4.343-2.318,5.008-3.276.6-7.915.6-7.915l-.358-14.909v-.012s-.305-7.208-.92-8.77c-.225-.579-.781-2.507-1.39-4.709a3.637,3.637,0,0,1,1.049.044c.022.538.036.908.036,1.035,0,.856,1.225,1.583,1.225,1.583l-.868-19.284V94.773c2.676.852,9.146,1.117,9.146,1.117A3.453,3.453,0,0,0,404.073,91.4ZM378.835,74.834h-.014a13.362,13.362,0,0,1,.372-1.5Zm-17.561,66.144c1.585.261,3.415.185,3.554-.123.014-.03.032-.084.056-.155.05.088.1.179.149.271l-.155,2.909v.066l-5.223-.281A4.166,4.166,0,0,1,361.274,140.977Zm17.41,14.676-.135-4.711c.233-.868.442-1.655.621-2.33.08.56.149,1.077.2,1.553C379.865,154.635,379.136,155.507,378.684,155.654Zm14.865-70.625c-.3.115-1.438-.6-2.519-1.346,0-.137.01-.271.016-.4.153-3.075-4.855-4.99-6.388-5.343a5.505,5.505,0,0,1-1.077-.4,25.1,25.1,0,0,1-2.378-1.344l.02-.058s-1.977-1.251-2.019-2.812a26.7,26.7,0,0,1,1.7-4.124c.038-.078.08-.161.121-.239A7.884,7.884,0,0,0,383.6,67.6c.307,4.018,6.121,7.475,6.121,7.475l.621,1,.147.237c-.313.185-.464.333-.358.42a18.19,18.19,0,0,1,1.953,3.2c.121.229.2.372.2.372s.95,2.585,1.495,4.749a.4.4,0,0,0-.229-.024Z" transform="translate(-309.807 -49.303)" fill="url(#a)"/><path d="M542.144,132.279l-.068.09-.233.311-4.469,3.158-.948-1.559-.6-1s-8.909-5.343-5.078-10.494,9.492,6.529,9.492,6.529Z" transform="translate(-456.155 -106.973)" fill="#ffc5d3"/><rect width="0.153" height="1.258" rx="0.076" transform="matrix(0.893, -0.45, 0.45, 0.893, 76.829, 12.724)" fill="#3a3768"/><rect width="0.086" height="0.414" rx="0.043" transform="matrix(0.893, -0.45, 0.45, 0.893, 71.86, 14.123)" fill="#3a3768"/><rect width="0.096" height="0.721" rx="0.048" transform="matrix(0.893, -0.45, 0.45, 0.893, 72.197, 14.8)" fill="#3a3768"/><rect width="0.092" height="0.727" rx="0.046" transform="matrix(0.893, -0.45, 0.45, 0.893, 72.635, 15.669)" fill="#3a3768"/><rect width="5.102" height="10.369" rx="2.24" transform="matrix(0.893, -0.45, 0.45, 0.893, 71.286, 12.878)" fill="#3a3768"/><path d="M523.853,104.681a.181.181,0,0,0-.08.245l.016.034a.183.183,0,0,1-.08.247l-1.932.972a.181.181,0,0,1-.245-.08l-.018-.034a.183.183,0,0,0-.245-.082l-.376.191a.346.346,0,0,0-.155.468l4.106,8.15a.351.351,0,0,0,.47.155l3.371-1.7a.352.352,0,0,0,.155-.47l-4.108-8.154a.35.35,0,0,0-.47-.155Z" transform="translate(-448.893 -93.358)" fill="#09f"/><rect width="0.713" height="0.145" rx="0.072" transform="matrix(0.893, -0.45, 0.45, 0.893, 73.265, 12.228)" fill="#e6e8ec"/><circle cx="0.082" cy="0.082" r="0.082" transform="translate(74.018 11.799)" fill="#e6e8ec"/><path d="M545.805,261.28l-1.255,33.691s4.219-1.406,4.871-.352-.7-16.874-.7-16.874Z" transform="translate(-467.953 -218.698)" fill="#5f5570"/><path d="M545.805,261.28l-1.255,33.691s4.219-1.406,4.871-.352-.7-16.874-.7-16.874Z" transform="translate(-467.953 -218.698)" opacity="0.15"/><path d="M470.809,771.024c-2.611.135-12.923,0-12.923,0s-2.68-2.075-2.881-2.075-.333,1.071-.333,1.071l-4.219-1.205v-2.141s-.135-6.1,1.137-6.362a58.746,58.746,0,0,1,6.9,0c.2-.066,4.018,3.55,5.088,4.219s.87,1.139.87,1.139,2.545,2.141,4.554,2.276a3.7,3.7,0,0,1,2.911,2.075C472.064,770.544,471.793,770.974,470.809,771.024Z" transform="translate(-392.755 -617.39)" fill="#bc8487"/><path d="M470.825,796.969c-2.611.135-12.923,0-12.923,0s-2.68-2.075-2.881-2.075-.333,1.071-.333,1.071l-4.219-1.205v-2.1l3.949,1.43,3.148,1.874h14.361C472.081,796.489,471.809,796.919,470.825,796.969Z" transform="translate(-392.771 -643.335)" opacity="0.1"/><path d="M493.43,789.044s3.214-3.079,5.363-2.21" transform="translate(-427.102 -638.556)" stroke="#000" stroke-miterlimit="10" stroke-width="1" opacity="0.1"/><path d="M357.768,685.04c.135.4-1.071.938-1.071.938v5.289s.546,3.176-.243,4.1a.661.661,0,0,1-.494.251c-1.472.066-4.686-9.978-4.686-9.978l-.2-5.8-.8-.556-1.139-7.366h2.077s.219-.135.57-.315c1-.512,3.108-1.406,4.251-.554l3.883,8.748S357.635,684.638,357.768,685.04Z" transform="translate(-311.789 -545.869)" fill="#bc8487"/><path d="M356.454,698.978a.661.661,0,0,1-.494.251c-1.472.066-4.687-9.978-4.687-9.978l-.2-5.8-.8-.556-1.139-7.366h2.077s.219-.135.57-.315l.5,7.547.267,6.495S355.068,696.322,356.454,698.978Z" transform="translate(-311.789 -549.478)" opacity="0.1"/><path d="M416.62,496.826c-.653.954-4.922,3.264-4.922,3.264a7.861,7.861,0,0,0-3.917,1.707c-1.091.832-4.881,2.481-8.286,3.881-3.18,1.308-6.026,2.4-6.026,2.4l-3.278,3.817-2.5,2.907s-1.507-.6-1.657.5-2.411,2.36-2.36,2.561-.854.7-.854,1.155-3.365-3.264-3.314-5.524a5.444,5.444,0,0,0-1.707-3.817s.452-.8,1.155-.653a1.616,1.616,0,0,0,1.507-.4c.2-.251,1.055.352,1.456.151s2.009-4.168,2.009-4.168l6.261-4.2,12.455-8.349.574-.386s1.657.759.984-5.462c-.131-1.205-.35-2.67-.683-4.453-2.059-11,5.323-12.254,5.323-12.254l6.478,2.159,1.557,2.411v.012l.352,14.853S417.273,495.872,416.62,496.826Z" transform="translate(-334.699 -385.091)" fill="#433a59"/><path d="M448.59,593.59s.02.713.05,1.822c-3.18,1.308-6.026,2.4-6.026,2.4l-3.278,3.817c-.054-3.164-.042-7.274,0-11.486l12.455-8.349C450.249,587.5,448.59,593.59,448.59,593.59Z" transform="translate(-383.845 -474.824)" opacity="0.1"/><path d="M517.716,474.1v.012l-9.743.189s-1.708,6.679-1.959,8.085c-.062.346-.44,1.822-.974,3.851-.131-1.205-.349-2.67-.683-4.453-2.059-11,5.323-12.254,5.323-12.254l6.478,2.159Z" transform="translate(-435.544 -385.115)" opacity="0.1"/><path d="M437.957,387.721,436.7,411.827s-.9,35.405,0,37.715a27.482,27.482,0,0,1,1.255,5.926s-.552,2.762,0,3.666,2.31,1.908,2.26,2.411,5.373,3.214,8.186-1.1c0,0-1.707-2.411-1.356-3.465a5.146,5.146,0,0,0-.151-2.611,20.9,20.9,0,0,1-.954-4.476c0-1.513-.352-14.162-.352-14.162s5.474-20.088,5.725-21.494,1.959-8.085,1.959-8.085l10.345-.2s-.3-7.181-.9-8.738-3.566-12.957-3.566-12.957Z" transform="translate(-381.448 -316.966)" fill="#433a59"/><path d="M191.644,469.89l-.9.257-.036.888,26.922.348v-.349Z" transform="translate(-152.4 -375.503)" fill="#7b728f"/><path d="M471.251,124.22c-3.917,7.945-1.485,9.606-1.1,9.811-.83-.386-11.613-5.452-10.195-6.738.922-.838,1.711-4.482,2.175-7.093.275-1.559.436-2.75.436-2.75l11.316,2.075A53.345,53.345,0,0,0,471.251,124.22Z" transform="translate(-400.252 -103.761)" fill="#ffc5d3"/><path d="M568.489,174.539l-.233.311-4.478,3.158-.948-1.559a48.6,48.6,0,0,1,5.518-2.21Z" transform="translate(-482.561 -149.143)" opacity="0.1"/><path d="M571.669,182.644c-.4,1.406-7.181,0-7.181,0l-.7-1.1s-.07-.141-.189-.37a18.258,18.258,0,0,0-1.918-3.188c-.552-.452,5.926-2.662,5.926-2.662l1.985,4.319a8,8,0,0,1,1.346,1.139A2.113,2.113,0,0,1,571.669,182.644Z" transform="translate(-481.613 -150.006)" fill="#e5e8ef"/><path d="M555.55,215s4.018,3.17,4.62,2.941,10.345,6.35,10.345,6.35,1.1,4.219-3.465,4.47c0,0-9.692-.4-10.094-1.808S555.55,215,555.55,215Z" transform="translate(-476.743 -181.715)" fill="#5f5570"/><path d="M483.669,183.256l-4.369,4.52,6.127,38.971,2.411-1.406s6.227,2.762,6.729.2.364-12.655.364-12.655l-.816-18.236s-2.862-6.378-2.862-6.579-4.128-3.314-4.128-3.314l-1.948-1.507Z" transform="translate(-415.81 -156.343)" opacity="0.1"/><path d="M483.669,180.256l-4.369,4.52,6.127,38.971,2.411-1.406s6.227,2.762,6.729.2.364-12.655.364-12.655l-.816-18.236s-2.862-6.378-2.862-6.579-4.128-3.315-4.128-3.315l-1.948-1.507Z" transform="translate(-415.81 -153.945)" fill="#e5e8ef"/><path d="M497.505,180.11l-1.205,2.461,1.205,1.272s4.319,8.722,3.465,13.895l.9,17.025,2.913,2.863,2.31-2.668-1.1-15.468s-2.963-12.756-6.077-16.723l-.9-3.515Z" transform="translate(-429.395 -153.146)" opacity="0.1"/><path d="M497.505,178.11l-1.205,2.461,1.205,1.272s4.319,8.722,3.465,13.895l.9,17.025,2.913,2.863,2.31-2.668-1.1-15.468s-2.963-12.756-6.077-16.723l-.9-3.515Z" transform="translate(-429.395 -151.548)" fill="#bc8487"/><path d="M483.051,119.485c-1.1,1.768-1.961,3.325-2.636,4.695a7.724,7.724,0,0,1-2.19.315c-2.483,0-3.913-1.718-5.319-3.542-.321-.414-1.378-.317-1.607-.8.275-1.559.436-2.75.436-2.75Z" transform="translate(-409.417 -103.721)" opacity="0.1"/><path d="M482.845,82.745a7.7,7.7,0,1,1-1.464-4.518A7.7,7.7,0,0,1,482.845,82.745Z" transform="translate(-406.336 -69.873)" fill="#ffc5d3"/><path d="M468.056,159.256l-6.328-7.633s-.585-.235,1.39-2.3c0,0,7.252,5.653,7.7,6.613S468.056,159.256,468.056,159.256Z" transform="translate(-401.704 -129.229)" opacity="0.1"/><path d="M467.056,157.255l-6.328-7.633s-.585-.235,1.39-2.3c0,0,7.252,5.653,7.7,6.613S467.056,157.255,467.056,157.255Z" transform="translate(-400.904 -127.63)" fill="#e5e8ef"/><path d="M522.347,232.209s-1.205-.723-1.205-1.577-.6-12.906-.6-12.906-.884-7.194-1.808-12.911h0c-.542-3.369-1.1-6.227-1.492-6.794l-.016-.024c-1.055-1.356-.854-7.985-7.433-17.677a36.332,36.332,0,0,0,4.018,2.451,5.509,5.509,0,0,0,1.059.4c1.507.352,6.428,2.26,6.278,5.323s.352,10.094.352,10.094V213Z" transform="translate(-440.175 -154.001)" fill="#5f5570"/><path d="M579.393,204.356c-.4,1.406-7.182,0-7.182,0l-.7-1.1s-.07-.141-.189-.37a.137.137,0,0,1-.01-.024,21.945,21.945,0,0,0,7.348-.368A2.114,2.114,0,0,1,579.393,204.356Z" transform="translate(-489.337 -171.718)" opacity="0.1"/><path d="M572.3,201.7s2.109,5.826,1.808,7.282,4.871,7.181,4.871,7.181l4.922-3.415s-1.858-3.716-1.607-4.821-1.306-3.465-1.306-3.465l.1-3.913S580.184,202.247,572.3,201.7Z" transform="translate(-490.128 -170.168)" fill="#5f5570"/><path d="M481.683,78.6l-3.817.145a4.25,4.25,0,0,0-1.1.139,3.3,3.3,0,0,0-2.043,3.174c-.05,1.3-.8,2.764-2.264,2.879a.565.565,0,0,1-.416-.092.688.688,0,0,1-.177-.356,7.772,7.772,0,0,0-.96-2.145,1.682,1.682,0,0,0-1.205,1.28,7.2,7.2,0,0,0-.113,1.85,11.97,11.97,0,0,1-.227,2.348A7.7,7.7,0,1,1,481.69,78.6Z" transform="translate(-406.639 -70.244)" opacity="0.1"/><path d="M466.575,60.262a4.251,4.251,0,0,1,1.1-.139l4.634-.173a2.6,2.6,0,0,0,1.892-.591,1.771,1.771,0,0,0,.354-.661,2.853,2.853,0,0,0-.3-2.336,5.667,5.667,0,0,0-2.372-1.808,27.569,27.569,0,0,0-2.565-1.205,13.66,13.66,0,0,0-10.064.145,4.063,4.063,0,0,0-.9.48,4.63,4.63,0,0,0-.976,1.165l-1.525,2.3a3.163,3.163,0,0,0-.48.928c-.287,1.091.6,2.182.51,3.3-.052.558-.348,1.071-.4,1.629a3.917,3.917,0,0,0,.581,2.063l2.68,5.406a11.978,11.978,0,0,0,.649-3.917,6.939,6.939,0,0,1,.112-1.85,1.7,1.7,0,0,1,1.205-1.28,7.752,7.752,0,0,1,.962,2.145.678.678,0,0,0,.177.356.563.563,0,0,0,.416.092,2.757,2.757,0,0,0,2.264-2.879A3.286,3.286,0,0,1,466.575,60.262Z" transform="translate(-396.651 -51.826)" fill="#8f7080"/><path d="M190.89,469.036l1.876-.536,28.29,1.541-3.114.4Z" transform="translate(-152.544 -374.393)" fill="#7b728f"/><path d="M190.89,469.036l1.876-.536,28.29,1.541-3.114.4Z" transform="translate(-152.544 -374.393)" opacity="0.1"/><path d="M324.832,503.289l-3.732-.347-1.31-.121V482.062l.345-4.819.076-1.073h3.851Z" transform="translate(-255.551 -380.522)" fill="#7b728f"/><path d="M323.812,505.213l-2.977-.329-1.045-.115V485.086l.275-4.568.06-1.018H323.2Z" transform="translate(-255.551 -383.183)" opacity="0.1"/><path d="M401.42,503.509s1.858-4.076,2.637-4.2a11.985,11.985,0,0,1,2.21,0l-.127,1.181s-1.908.151-2.511,3.339Z" transform="translate(-353.575 -408.865)" fill="#7b728f"/><path d="M401.42,503.509s1.858-4.076,2.637-4.2a11.985,11.985,0,0,1,2.21,0l-.127,1.181s-1.908.151-2.511,3.339Z" transform="translate(-353.575 -408.865)" opacity="0.1"/><path d="M433.205,497.41s5,2.485,4.343,5.4l-2.712-.151s-1.306-4.343-2.334-4.57S433.205,497.41,433.205,497.41Z" transform="translate(-378.152 -407.394)" fill="#7b728f"/><path d="M424.515,185.771v.147l-.1,16.727s-2.561,14.062-3.264,14.614-16.121-.954-16.121-.954l-6.981-47.056c-.05-8.035,5.625-7.784,5.625-7.784.753-1.205,4.369-2.159,4.369-2.159l2.009-1.959.064-.09a1.786,1.786,0,0,1,.506-.5h0c.414-.239.677.076.828.388a2.337,2.337,0,0,1,.157.456C419.744,163.567,424.515,185.771,424.515,185.771Z" transform="translate(-350.88 -135.103)" fill="#5f5570"/><path d="M463.272,187.105v.147c-2.525-4.62-12.254-22.125-14.915-23l1.025-.7s.683-.4-.573-.8c0,0-1.959.251-2.009-2.109l2.073-2.049.506-.5h0l.828.388a2.334,2.334,0,0,1,.157.456C458.5,164.9,463.272,187.105,463.272,187.105Z" transform="translate(-389.839 -136.237)" opacity="0.1"/><path d="M464.272,186.105v.147c-2.525-4.62-12.254-22.125-14.915-23l1.025-.7s.683-.4-.573-.8c0,0-1.959.251-2.009-2.109l2.073-2.049.506-.5h0l.828.388a2.334,2.334,0,0,1,.157.456C459.5,163.9,464.272,186.105,464.272,186.105Z" transform="translate(-390.638 -135.438)" fill="#433a59"/><path d="M518.249,198.981l-.016-.024c-1.055-1.356-.854-7.985-7.433-17.677a36.329,36.329,0,0,0,4.018,2.451l-.464,1.531,1,.536Z" transform="translate(-440.982 -154.768)" opacity="0.1"/><path d="M517.249,197.981l-.016-.024c-1.055-1.356-.854-7.985-7.433-17.677a36.329,36.329,0,0,0,4.018,2.451l-.464,1.531,1,.536Z" transform="translate(-440.183 -153.969)" fill="#433a59"/><path d="M506.722,172.58l-.412,1.74a2.354,2.354,0,0,0,2.107,1.892l.291-.83S506.76,174.133,506.722,172.58Z" transform="translate(-437.394 -147.816)" opacity="0.1"/><path d="M506.722,171.58l-.412,1.74a2.354,2.354,0,0,0,2.107,1.892l.291-.83S506.76,173.133,506.722,171.58Z" transform="translate(-437.394 -147.017)" fill="#e5e8ef"/><path d="M322.281,477.57,321.1,504.06l-1.31-.12V483.181l.345-4.819Z" transform="translate(-255.551 -381.641)" opacity="0.1"/><path d="M189.034,487.8l-.8,14.329,27.32,2.278,1.2-26.838Z" transform="translate(-150.418 -381.641)" fill="#7b728f"/><path d="M189.23,485.825l.534-12.655,27.982,1.286-1.332,13.379Z" transform="translate(-151.218 -378.124)" opacity="0.1"/><path d="M188.23,483.825l.534-12.655,27.983,1.286-1.332,13.379Z" transform="translate(-150.418 -376.526)" fill="#7b728f"/><rect width="3.365" height="3.917" transform="translate(49.579 107.315)" fill="#c3bbc8"/><path d="M408.952,455.78l-.5,1.356s-1.055,7.433.251,8.336,5.173.954,5.374.5,1.607-5.574,1.607-5.574,1.256,3.767,1.908,3.465-1.507-7.461-1.507-7.461Z" transform="translate(-358.87 -374.127)" fill="#ffc5d3"/><path d="M410.05,417.02V424.2s5.323,1,7.633-.731c0,0-2.159-6.952-1.356-8.71S410.05,417.02,410.05,417.02Z" transform="translate(-360.471 -340.992)" opacity="0.1"/><path d="M410.05,416.02V423.2s5.323,1,7.633-.731c0,0-2.159-6.952-1.356-8.71S410.05,416.02,410.05,416.02Z" transform="translate(-360.471 -340.192)" fill="#e5e8ef"/><path d="M399.2,205.556l-1.406.753s-.251,3.013-.4,3.415a44.016,44.016,0,0,0,0,4.47l-.068,8.236a51.9,51.9,0,0,0,0,5.926c.217,1.557.46,7.483.46,7.483s1.358,5.775.856,7.834.05,6.679.9,6.277,8.738-1.959,9.14-2.26.2-3.114,0-3.465A29.915,29.915,0,0,1,407.38,238c.1-1.1-.352-10.8-.352-10.8s.753-10.345,1.055-12.756-.6-9.492-1.406-9.592S403.522,199.279,399.2,205.556Z" transform="translate(-350.226 -171.763)" opacity="0.1"/><path d="M397.2,203.556l-1.406.753s-.251,3.013-.4,3.415a44.025,44.025,0,0,0,0,4.47l-.068,8.236a51.919,51.919,0,0,0,0,5.926c.217,1.557.46,7.483.46,7.483s1.358,5.775.856,7.834.05,6.679.9,6.277,8.738-1.959,9.14-2.26.2-3.114,0-3.465A29.916,29.916,0,0,1,405.38,236c.1-1.1-.352-10.8-.352-10.8s.753-10.345,1.055-12.756-.6-9.492-1.406-9.592S401.522,197.279,397.2,203.556Z" transform="translate(-348.628 -170.165)" fill="#5f5570"/><g transform="translate(58.958 4.624)" opacity="0.1"><path d="M461.545,104.77a1.682,1.682,0,0,0-1.205,1.28,7.2,7.2,0,0,0-.112,1.85,11.977,11.977,0,0,1-.647,3.917l-2.682-5.406c-.052-.106-.107-.217-.159-.327a7.315,7.315,0,0,0,.46,1.081l2.682,5.406a11.973,11.973,0,0,0,.647-3.917,7.026,7.026,0,0,1,.112-1.85,1.692,1.692,0,0,1,1.205-1.28,8.062,8.062,0,0,1,.52.95A7.837,7.837,0,0,0,461.545,104.77Z" transform="translate(-456.74 -98.251)"/><path d="M499.078,72.32a2.844,2.844,0,0,1-.048,1.5,1.772,1.772,0,0,1-.356.661,2.591,2.591,0,0,1-1.892.591l-4.632.173a4.265,4.265,0,0,0-1.107.139A3.3,3.3,0,0,0,489,78.553c-.05,1.3-.8,2.764-2.264,2.879a.564.564,0,0,1-.416-.092h0c.046.131.09.263.129.4a.662.662,0,0,0,.175.356.564.564,0,0,0,.416.092,2.755,2.755,0,0,0,2.264-2.879,3.292,3.292,0,0,1,2.043-3.174A4.265,4.265,0,0,1,492.453,76l4.632-.173a2.6,2.6,0,0,0,1.892-.591,1.775,1.775,0,0,0,.356-.661A2.852,2.852,0,0,0,499.078,72.32Z" transform="translate(-480.378 -72.32)"/></g><path d="M512.28,479.066a7.828,7.828,0,0,1,2.411-.854c.671.05,6.7,7.712,6.7,7.712Z" transform="translate(-442.165 -392.051)" opacity="0.1"/><path d="M411.129,224.35s-3.18,1.358-3.1,2.3S411.129,224.35,411.129,224.35Z" transform="translate(-358.858 -189.187)" opacity="0.1"/><path d="M404.976,246.45s-3.337,4.267-2.6,4.409S404.976,246.45,404.976,246.45Z" transform="translate(-354.254 -206.847)" opacity="0.1"/><path d="M462.781,278.28s.305,9.542-2.141,10.747Z" transform="translate(-400.898 -232.283)" opacity="0.1"/><path d="M408,400.71s2.354-1.338,2.895-1.071S408,400.71,408,400.71Z" transform="translate(-358.833 -329.236)" opacity="0.1"/><path d="M410.05,413.128a6.317,6.317,0,0,0,2.192-.2C412.947,412.62,410.05,413.128,410.05,413.128Z" transform="translate(-360.471 -339.804)" opacity="0.1"/><path d="M586.7,239.41s1.844,5.3,2.907,5.3" transform="translate(-501.636 -201.221)" opacity="0.1"/><path d="M456.16,742.791s3.459-.938,3.969,0S456.16,742.791,456.16,742.791Z" transform="translate(-397.318 -603.151)" opacity="0.1"/><path d="M400.177,675.21s-.862,1.32.277,1.721S400.177,675.21,400.177,675.21Z" transform="translate(-352.332 -549.478)" opacity="0.1"/><path d="M515.8,583.53s2.612,2.326,3.845,2.394S515.8,583.53,515.8,583.53Z" transform="translate(-444.978 -476.215)" opacity="0.1"/><path d="M967.84,109.021s-16.912-1.027-14.919,10.825a2.883,2.883,0,0,0,1.5,3.047s.03-.88,1.735-.581a7.918,7.918,0,0,0,1.836.088,3.833,3.833,0,0,0,2.244-.922h0s4.755-1.963,6.6-9.735c0,0,1.368-1.7,1.314-2.131l-2.854,1.219a5.09,5.09,0,0,1,.2,3.771s-.092-3.7-.641-3.616c-.112.018-1.484.713-1.484.713s1.679,3.588.412,6.193c0,0,.482-4.419-.934-5.934l-2.009,1.173s1.963,3.7.633,6.727c0,0,.342-4.636-1.054-6.442l-1.82,1.42s1.842,3.652.719,6.159c0,0-.147-5.4-1.115-5.805a11.2,11.2,0,0,0-1.834,1.981s1.262,2.652.478,4.05c0,0-.48-3.6-.874-3.616a11.939,11.939,0,0,0-1.752,4.018,8.659,8.659,0,0,1,1.368-4.245,4.776,4.776,0,0,0-2.431,1.26s.247-1.685,2.812-1.832a11.039,11.039,0,0,1,1.661-1.918,10.462,10.462,0,0,0-4.114.474s1.368-1.589,4.584-.866l1.808-1.466s-3.373-.462-4.8.048c0,0,1.645-1.406,5.285-.382l1.957-1.171a17.951,17.951,0,0,0-4.586-.4s1.808-.974,5.159.082l1.406-.629s-2.105-.414-2.722-.478-.651-.237-.651-.237a7.31,7.31,0,0,1,3.957.44A18.387,18.387,0,0,0,967.84,109.021Z" transform="translate(-794.16 -97.007)" fill="#09f"/><path d="M833.623,97.761s-7.633-.46-6.741,4.9a1.306,1.306,0,0,0,.679,1.376s.014-.4.783-.263a3.425,3.425,0,0,0,.832.04,1.732,1.732,0,0,0,1-.418h0s2.147-.888,2.983-4.4c0,0,.619-.765.6-.962l-1.294.55a2.317,2.317,0,0,1,.094,1.7s-.042-1.669-.291-1.631c-.05,0-.669.323-.669.323a3.812,3.812,0,0,1,.185,2.8s.219-2-.422-2.682l-.906.53a4.007,4.007,0,0,1,.285,3.039s.155-2.1-.476-2.911l-.822.643a3.918,3.918,0,0,1,.323,2.782s-.066-2.439-.5-2.623a5.038,5.038,0,0,0-.83.9s.57,1.205.217,1.83c0,0-.217-1.625-.4-1.633a5.409,5.409,0,0,0-.792,1.808,3.9,3.9,0,0,1,.619-1.916,2.153,2.153,0,0,0-1.1.568s.112-.761,1.276-.828a4.94,4.94,0,0,1,.751-.866,4.7,4.7,0,0,0-1.86.213,2.107,2.107,0,0,1,2.071-.4l.8-.663a6.933,6.933,0,0,0-2.169.022,2.638,2.638,0,0,1,2.386-.173l.886-.528a8.05,8.05,0,0,0-2.073-.179,3.182,3.182,0,0,1,2.332.036l.631-.283s-.95-.187-1.229-.217-.293-.106-.293-.106a3.316,3.316,0,0,1,1.788.2A8.126,8.126,0,0,0,833.623,97.761Z" transform="translate(-693.512 -88.019)" fill="#09f"/><ellipse cx="5.41" cy="0.914" rx="5.41" ry="0.914" transform="translate(164.655 144.293)" fill="#09f" opacity="0.1"/><ellipse cx="5.41" cy="0.914" rx="5.41" ry="0.914" transform="translate(0 130.688)" fill="#09f" opacity="0.1"/><ellipse cx="5.41" cy="0.914" rx="5.41" ry="0.914" transform="translate(160.89 126.59)" fill="#09f" opacity="0.1"/><ellipse cx="5.41" cy="0.914" rx="5.41" ry="0.914" transform="translate(20.924 135.591)" fill="#09f" opacity="0.1"/><ellipse cx="5.41" cy="0.914" rx="5.41" ry="0.914" transform="translate(136.777 136.377)" fill="#09f" opacity="0.1"/><ellipse cx="8.077" cy="1.366" rx="8.077" ry="1.366" transform="translate(150.147 153.636)" fill="#09f"/><path d="M937.8,794.992a2.345,2.345,0,0,0,.769-1.161,1.036,1.036,0,0,0-.538-1.183,1.512,1.512,0,0,0-1.422.5,1.909,1.909,0,0,1-1.384.669,2.11,2.11,0,0,0,.653-1.973.832.832,0,0,0-.183-.4c-.273-.293-.771-.167-1.1.064a4.1,4.1,0,0,0-1.342,3.431,6.58,6.58,0,0,1-.02-1.406,1.449,1.449,0,0,0-.53-1.249,1.607,1.607,0,0,0-.8-.191,1.673,1.673,0,0,0-1.312.374,1.3,1.3,0,0,0,.05,1.607,5.2,5.2,0,0,0,1.36,1.089,2.992,2.992,0,0,1,.97.926.78.78,0,0,1,.072.165h2.945a8.215,8.215,0,0,0,1.814-1.257Z" transform="translate(-776.241 -642.224)" fill="#09f"/><path d="M283.634,617s1.1,1.442-.508,3.616-2.943,4.018-2.411,5.376c0,0,2.435-4.046,4.419-4.1S285.814,619.439,283.634,617Z" transform="translate(-257.022 -502.961)" fill="#09f"/><path d="M283.893,617a1.733,1.733,0,0,1,.225.452c1.932,2.27,2.963,4.389,1.1,4.443-1.73.048-3.8,3.142-4.3,3.923a1.846,1.846,0,0,0,.058.179s2.435-4.046,4.419-4.1S286.073,619.439,283.893,617Z" transform="translate(-257.28 -502.961)" opacity="0.1"/><path d="M304.923,624.871c0,.508-.056.92-.127.92s-.127-.4-.127-.92.07-.269.141-.269S304.923,624.363,304.923,624.871Z" transform="translate(-276.26 -508.988)" fill="#ffd037"/><path d="M305.979,627.818c-.446.243-.836.39-.868.329s.3-.309.745-.552.271-.066.3,0S306.425,627.577,305.979,627.818Z" transform="translate(-276.611 -511.329)" fill="#ffd037"/><path d="M256.845,617s-1.1,1.442.508,3.616,2.943,4.018,2.411,5.376c0,0-2.433-4.046-4.419-4.1S254.665,619.439,256.845,617Z" transform="translate(-236.06 -502.961)" fill="#09f"/><path d="M256.827,617a1.772,1.772,0,0,0-.227.452c-1.932,2.27-2.961,4.389-1.1,4.443,1.732.048,3.807,3.142,4.3,3.923a1.434,1.434,0,0,1-.06.179s-2.433-4.046-4.419-4.1S254.648,619.439,256.827,617Z" transform="translate(-236.042 -502.961)" opacity="0.1"/><path d="M256.49,624.871c0,.508.058.92.129.92s.127-.4.127-.92-.07-.269-.141-.269S256.49,624.363,256.49,624.871Z" transform="translate(-237.758 -508.988)" fill="#ffd037"/><path d="M251.915,627.818c.446.243.834.39.868.329s-.3-.309-.747-.552-.269-.066-.3,0S251.467,627.577,251.915,627.818Z" transform="translate(-233.885 -511.329)" fill="#ffd037"/><path d="M258.24,654.248s3.086-.094,4.018-.757,4.747-1.452,4.976-.39,4.638,5.281,1.155,5.309-8.1-.542-9.023-1.109S258.24,654.248,258.24,654.248Z" transform="translate(-239.156 -531.395)" fill="#a8a8a8"/><path d="M268.449,664.657c-3.483.028-8.1-.542-9.023-1.109-.705-.43-.988-1.975-1.083-2.688h-.1s.2,2.489,1.123,3.053,5.54,1.137,9.024,1.109c1,0,1.352-.366,1.334-.9C269.58,664.45,269.2,664.651,268.449,664.657Z" transform="translate(-239.156 -538.011)" opacity="0.2"/></svg>