<svg xmlns="http://www.w3.org/2000/svg" xmlns:xlink="http://www.w3.org/1999/xlink" width="765.01" height="570.168" viewBox="0 0 765.01 570.168"><defs><linearGradient id="a" x1="0.5" y1="1" x2="0.5" gradientUnits="objectBoundingBox"><stop offset="0" stop-color="gray" stop-opacity="0.251"/><stop offset="0.54" stop-color="gray" stop-opacity="0.122"/><stop offset="1" stop-color="gray" stop-opacity="0.102"/></linearGradient></defs><g transform="translate(-0.012 -0.057)"><path d="M822.929,325.541c-.137.809-.274,1.618-.426,2.427-4.9,27.549-12.893,54.109-24.783,78.494q-.585,1.213-1.192,2.427A224.331,224.331,0,0,1,768.6,451.953c-5.923,7.144-12.381,13.926-20.059,18.823-10.763,6.862-23.345,9.65-35.711,11.933-12.85,2.376-25.866,4.334-38.853,6.5q-6.905,1.127-13.724,2.362c-12.547,2.268-25,4.89-37.156,8.364-15.031,4.334-29.615,9.917-43.339,17.827q-1.647.939-3.258,1.929c-1.076.65-2.167,1.315-3.214,1.994s-2.1,1.351-3.142,2.037l-1.6,1.083c-.527.347-1.047.722-1.567,1.069-1.546,1.055-3.07,2.167-4.594,3.236l-.058.043q-1.506,1.083-3,2.167c-5.627,4.168-11.131,8.531-16.613,12.908l-3.46,2.767q-2.68,2.124-5.36,4.24c-1.047.831-2.109,1.654-3.164,2.478-.766.6-1.524,1.2-2.3,1.791-3.908,3.012-7.866,5.959-11.9,8.776-.961.672-1.936,1.343-2.889,2a152.331,152.331,0,0,1-25.671,14.143l-.116.051a101.859,101.859,0,0,1-13.637,4.7,81.637,81.637,0,0,1-8.032,1.741,70.988,70.988,0,0,1-21.778.376c-14.222-2.015-27.549-8.668-41.735-10.893-29.268-4.543-57.691,10.112-85.233,21.619q-10.112,4.233-20.449,7.945-6.848,2.47-13.76,4.7a433.23,433.23,0,0,1-86.338,18.469,199.516,199.516,0,0,1-36.657.99,123.818,123.818,0,0,1-13.724-1.784c-15.436-2.889-29.846-9.022-41.454-20.225-9.643-9.166-16.447-21.149-21.633-33.653q-3.128-7.534-5.511-15.414a171.907,171.907,0,0,1-5.612-25.158c-.282-1.921-.535-3.85-.722-5.779q-.563-4.962-.838-9.968a172.633,172.633,0,0,1,5.136-52.729C80.787,446.355,88.992,428.1,92.6,408.86c.152-.809.289-1.618.426-2.427q.722-4.334,1.1-8.827c1.82-23.533-5.222-46.568-10.784-69.638-.2-.809-.39-1.618-.578-2.427q-.9-3.835-1.712-7.678C75.9,293.463,74.5,267.351,79.068,243c.144-.809.311-1.625.477-2.427a121.089,121.089,0,0,1,16.873-42.2c8.559-13.117,19.8-24.031,31.782-33.624q8.776-7.006,18.152-13.11,6.739-4.377,13.724-8.285c37.625-20.947,80.552-31.182,123-28.893q3.373.173,6.732.462,3.525.3,7.028.722c27.325,3.157,53.913,10.979,80.343,19.539q13.283,4.334,26.523,8.668,5.894,1.921,11.781,3.792c19.25,6.075,38.817,11.557,58.565,15.689q6.869,1.445,13.724,2.636a324.379,324.379,0,0,0,48.1,4.955q9.39.231,18.78-.2,4.746-.217,9.5-.636c32.728-2.8,64.286-12.2,95.974-21.027,4.579-1.278,9.166-2.55,13.724-3.778,6.024-1.618,12.055-3.185,18.108-4.63,37.69-9.051,71.278-3.85,106.317,14.815,7.945,4.24,15.891,9.354,20.8,17.271s6.1,17.718,7.014,27.152c1.286,13.421,2.167,27.029,2.449,40.7,0,.809,0,1.618.05,2.427A432.98,432.98,0,0,1,822.929,325.541Z" transform="translate(-70.44 -71.617)" fill="#fff"/><path d="M576.244,406.572h-2.463V409h2.788Zm-27.917,0a.159.159,0,0,0,0,.058l-.217,2.008V409h21.38v-.145l1.524-2.283Zm-57.171,0V328.078h24.559c-.26-.217-.527-.433-.8-.636l-.361-.274c-.152-.123-.3-.238-.462-.347s-.534-.383-.816-.571-.455-.311-.722-.462l-.166-.108H491.155v-4.3l-.571.274-.607.34h-.043l-.13.079-.376.246c-.13.079-.26.159-.383.246-.376.253-.722.527-1.12.809l-.361.289c-.246.188-.477.383-.722.578-.961.787-1.907,1.611-2.889,2.369-.246.2-.491.383-.722.563a18.665,18.665,0,0,1-1.632,1.069,7.759,7.759,0,0,1-.722.4l-.4.188-.368.159h0a15.346,15.346,0,0,1-2.687.852v76.732H440.579a1.11,1.11,0,0,0,.072.253c.2.722.4,1.445.6,2.167h36.173v84.142h.563l.643.043,1.17.087,1.892.188.852.1.939.116h.137c.542.072,1.091.159,1.647.246l.354.058.795.13,1.141.2h0l2.738-.144h0l.376.079a2.189,2.189,0,0,1,.462.094V409h56.926v-.361l.217-2.008a.16.16,0,0,1,0-.058Zm85.089,0h-2.463V409h2.788Zm-29.456,0L546.542,409h23.786l1.618-2.427Zm-55.618,0V328.078h24.559c-.26-.217-.527-.433-.8-.636l-.361-.274c-.152-.123-.3-.238-.462-.347s-.534-.383-.816-.571-.455-.311-.722-.462l-.166-.108H491.155v-4.3l-.571.274-.607.34h-.043l-.13.079-.376.246c-.13.079-.26.159-.383.246-.376.253-.722.527-1.12.809l-.361.289c-.246.188-.477.383-.722.578-.961.787-1.907,1.611-2.889,2.369-.246.2-.491.383-.722.563a18.665,18.665,0,0,1-1.632,1.069,7.759,7.759,0,0,1-.722.4l-.4.188-.368.159h0a15.346,15.346,0,0,1-2.687.852v76.732H440.579a1.11,1.11,0,0,0,.072.253c.2.722.412,1.445.607,2.167h36.166v84.135l.563.036.643.043,1.17.087,1.892.188.852.1.939.116h.137c.542.072,1.091.159,1.647.246l.354.058.795.13,1.141.2h0l2.738-.144h0l.376.079a2.193,2.193,0,0,1,.462.094V409h55.409l.26-2.427Zm186.112-163.46H832.023c0-.809,0-1.618-.051-2.427H677.281v-95.3c-4.594,1.228-9.181,2.5-13.724,3.778v91.524h-168.3l-.426-.462.643-.722h0l62.6-68.7q-9.39.433-18.78.2l-48.135,52.8V166.063q-6.891-1.192-13.724-2.636v57.713l-70.375-77.194c-8.834-2.889-17.668-5.829-26.523-8.668l95.656,104.945-.426.462H300.19V115.725q-3.51-.4-7.028-.722-3.359-.3-6.732-.462V240.685h-123V143.461q-7,3.9-13.724,8.285v88.939H82.817c-.166.8-.332,1.618-.477,2.427h67.312v82.539H86.067c.188.809.383,1.618.578,2.427h63.036v78.494H96.31c-.137.809-.274,1.618-.426,2.427h53.8V628.474a123.819,123.819,0,0,0,13.724,1.784V409H286.43V610.8q6.92-2.246,13.76-4.7V409H477.4V585.315a101.847,101.847,0,0,0,13.637-4.7l.116-.051V409H663.514v82.683q6.855-1.235,13.724-2.362V409H799.793q.607-1.213,1.192-2.427h-123.7V328.078H825.811c.152-.809.289-1.618.426-2.427H677.281Zm-513.84,0H286.43v82.539h-123Zm0,163.46V328.078H286.43v78.494ZM300.2,243.112H477.4v82.539H300.19Zm0,163.46V328.078H477.4v78.494Zm363.324,0H491.155V328.078H663.514Zm0-80.9H491.155v-80.35l2.42-2.21H663.514Zm-115.187,80.9a.159.159,0,0,0,0,.058l-.217,2.008V409H569.5v-.145l1.524-2.283Zm27.917,0h-2.463V409h2.788Zm-85.089,0V328.078h24.559c-.26-.217-.527-.433-.8-.636l-.361-.274c-.152-.123-.3-.238-.462-.347s-.534-.383-.816-.571-.455-.311-.722-.462l-.166-.108H491.155v-4.3l-.571.274-.607.34h-.043l-.13.079-.376.246c-.13.079-.26.159-.383.246-.376.253-.722.527-1.12.809l-.361.289c-.246.188-.477.383-.722.578-.961.787-1.907,1.611-2.889,2.369-.246.2-.491.383-.722.563a18.665,18.665,0,0,1-1.632,1.069,7.759,7.759,0,0,1-.722.4l-.4.188-.368.159h0a15.346,15.346,0,0,1-2.687.852v76.732H440.579a1.11,1.11,0,0,0,.072.253c.2.722.4,1.445.6,2.167h36.173v84.142h.563l.643.043,1.17.087,1.892.188.852.1.939.116h.137c.542.072,1.091.159,1.647.246l.354.058.795.13,1.141.2h0l2.738-.144h0l.376.079a2.189,2.189,0,0,1,.462.094V409h56.926v-.361l.217-2.008a.16.16,0,0,1,0-.058Z" transform="translate(-73.741 -71.727)" fill="#09f" opacity="0.1"/><path d="M274.731,211.877h1.1a2.629,2.629,0,0,1-1.307-2.116h0c0-1.676,2.051-3.041,4.558-3.041h31.89c2.506,0,4.558,1.365,4.558,3.041h0c0,1.669-2.051,3.041-4.558,3.041h-1.062a2.637,2.637,0,0,1,1.3,2.116c0,1.445-1.488,2.629-3.482,2.954h9.181c2.5,0,4.551,1.365,4.551,3.041s-2.051,3.034-4.551,3.034H284.98c-2.5,0-4.551-1.365-4.551-3.034,0-1.445,1.488-2.629,3.482-2.954h-9.181c-2.5,0-4.551-1.365-4.551-3.041S272.217,211.877,274.731,211.877Z" transform="translate(-125.902 -97.324)" fill="#09f" opacity="0.1"/><path d="M753.251,251.947h1.069a2.637,2.637,0,0,1-1.307-2.124h0c0-1.669,2.051-3.034,4.558-3.034h31.89c2.506,0,4.558,1.365,4.558,3.034h0c0,1.676-2.051,3.041-4.558,3.041H788.4a2.644,2.644,0,0,1,1.3,2.124c0,1.445-1.488,2.622-3.482,2.947H795.4c2.5,0,4.551,1.372,4.551,3.041s-2.051,3.041-4.551,3.041H763.515c-2.5,0-4.551-1.365-4.551-3.041,0-1.445,1.488-2.629,3.482-2.947h-9.2c-2.5,0-4.551-1.372-4.551-3.041S750.766,251.947,753.251,251.947Z" transform="translate(-258.78 -108.451)" fill="#09f" opacity="0.1"/><path d="M207,423.415h1.069a2.644,2.644,0,0,1-1.3-2.124h0c0-1.669,2.044-3.041,4.551-3.041h31.89c2.506,0,4.558,1.372,4.558,3.041h0c0,1.676-2.051,3.041-4.558,3.041h-1.062a2.644,2.644,0,0,1,1.3,2.124c0,1.445-1.488,2.622-3.482,2.947h9.181c2.506,0,4.551,1.365,4.551,3.041s-2.044,3.041-4.551,3.041h-31.9c-2.5,0-4.551-1.372-4.551-3.041,0-1.445,1.5-2.629,3.482-2.954H207c-2.5,0-4.551-1.365-4.551-3.034S204.5,423.415,207,423.415Z" transform="translate(-107.094 -156.063)" fill="#09f" opacity="0.1"/><path d="M699.6,713.44q-2.68,2.124-5.36,4.24c-1.047.831-2.109,1.654-3.164,2.478-.766.6-1.524,1.2-2.3,1.791-3.908,3.012-7.866,5.959-11.9,8.776-.961.672-1.936,1.344-2.889,2a152.33,152.33,0,0,1-25.671,14.143l-.116.051V713.44Z" transform="translate(-230.87 -238.033)" fill="#65617d"/><path d="M703.822,463.613l.809-24.956c-.484-.376-.975-.722-1.445-1.069a133.032,133.032,0,0,0-1.271-22.255c-3.265-24.956-24.465-25.5-30.446-20.348a14.444,14.444,0,0,1-2.579,1.777c.542-3.561,1.213-7.129,1.7-10.654,2.615-19.011-1.445-40.4-16.194-52.686-6.176-5.136-13.724-8.292-20.507-12.59-12.149-7.664-21.749-18.982-34.035-26.444s-29.543-10.257-40.262-.665c-4.153,3.713-6.833,8.863-11.095,12.445-7.945,6.674-20.333,7.115-27.267,14.569h0c-.347.376-.679.758-1,1.163-5.778,7.411-4.2,17.921-2.355,27.116,2.217,11.066,1.3,19.936,10.791,23.114.036.441.065.881.116,1.315a46.885,46.885,0,0,0,20.629,33.747l-1.539.549c-4.1,1.445-7.794,2.846-10.156,3.807-8.668,3.532-26.913,8.133-26.913,8.133s-.433,5.2-.354,12.872c-6.082,6.609-16.23,18.224-19.214,25.108-4.334,10.04-28.82,38.8-35.343,43.137s-13.594,9.491-13.594,9.491-10.329,5.7-15.219,6.241c-3.388.376-13.868-1.632-13.868-1.632s-41.858-51.284-39.142-11.933,36.152,40.688,36.152,40.688l33.71-.542s18.217,2.441,26.372-4.334c6.963-5.779,43.05-37.481,54.643-51.862.267.3.534.585.816.867,0,0,4.616-5.966,5.165,0s-3,8.668-1.091,10.835,7.613,9.766,7.88,12.749-7.606,15.169,5.706,24.414c.209.145.433.282.679.419,2.376,5.41,9.932,10.7,9.932,10.7l40.775-.542,76.934,5.966s2.29-2.015,5.388-5.309c4.139,3.8,9.881,7.057,16.353,5.056,0,0,9.246-11.116,9.52-18.441,0,0-5.981-15.465-8.668-20.073s1.907-14.649,1.907-14.649,3.258-9.766,5.165-9.766.542-6.5.542-6.5a7.9,7.9,0,0,1-.816-7.324C702.732,471.211,703.822,463.613,703.822,463.613Z" transform="translate(-154.715 -119.782)" fill="url(#a)"/><path d="M734.939,496.428l-2.889,3.38h0L720.378,513.4l-15.248.925-24.407,1.5S647.814,476.175,654,467.543c2.246-3.113,2.615-7.223,2.167-11.1-.058-.534-.137-1.069-.231-1.6A46.147,46.147,0,0,0,652.09,443l.809-.368.52-.238L682.2,429.26l7.122-3.25a19.223,19.223,0,0,0,1.95,5.62c.137.274.289.549.448.809,9.816,16.252,41.295,5.974,41.295,5.974Z" transform="translate(-231.952 -158.218)" fill="#ee8e9e"/><path d="M806.437,478.678c-.217,9.838-1.82,14.085-1.82,14.085l-40.731,6.2-1.524-10.575-6.031-41.757,5.663-5.663a15.118,15.118,0,0,0,12.951-3.236c5.93-5.128,26.971-4.587,30.207,20.225A137.329,137.329,0,0,1,806.437,478.678Z" transform="translate(-260.899 -160.757)" fill="#ee8e9e"/><path d="M803.533,638.645s9.166-11.059,9.441-18.34L803.8,604.928l-8.09-8.668L780.6,625.427S790.582,642.69,803.533,638.645Z" transform="translate(-267.638 -205.494)" fill="#dfe5ee"/><path d="M803.533,638.645s9.166-11.059,9.441-18.34L803.8,604.928l-8.09-8.668L780.6,625.427S790.582,642.69,803.533,638.645Z" transform="translate(-267.638 -205.494)" opacity="0.1"/><path d="M531.074,712.888c-.766.6-1.524,1.2-2.3,1.791-3.908,3.012-7.866,5.959-11.9,8.776-.961.672-1.936,1.343-2.889,2H283.559l-68.172-2.441-54.824-.462-13.724-.722-68.475-3.612a171.91,171.91,0,0,1-5.641-25.18c-.282-1.921-.535-3.85-.722-5.779l74.81,4.146,13.724.773,123,6.862,13.76.766L474.5,709.7l13.637.766h.116Z" transform="translate(-70.87 -230.763)" fill="#d48a9b"/><path d="M623.165,641.413c-15.031,4.334-29.615,9.917-43.339,17.827-1.091.628-2.167,1.271-3.258,1.929s-2.167,1.315-3.214,1.994-2.1,1.351-3.142,2.037l-1.6,1.083-1.567,1.069c-1.546,1.062-3.07,2.167-4.594,3.236l-.058.043q-1.506,1.083-3,2.167c-5.627,4.168-11.131,8.531-16.613,12.908q-1.734,1.387-3.474,2.766l-5.345,4.24c-1.047.831-2.109,1.654-3.164,2.478-.766.6-1.524,1.2-2.3,1.791l-40.45-1.929h-.116l-13.637-.636L297,686.016l-13.76-.657-123-5.844-13.724-.657L72.4,675.369c-.282-1.921-.535-3.85-.722-5.779q-.563-4.962-.838-9.968L146.51,632.9l13.724-4.861L172.7,623.63l22.717,1.185,52.505,2.694h0l35.336,1.856,13.76.722,8.791.462h0l2.1.116h0l73.979,3.864h0l.78.051h0l33.01,1.719h.592l3.3.166h0l11.254.592,14.071.722h0l4.637.246h0l.874.051,6.559.339h0l1.871.094h0l6.262.332h0l2.492.137h.6l5.858.311,9.072.477h.043l2.817.144h.3l1.683.094,4.132.217h0l3.612.188h.036l4.052.209h.065l3.07.166h0l2.355.123,8.357.441h0l1.5.079h.52l.722.043h0l2.449.13h0l1.1.058h0l8.523.441h.78l12.583-.108h.087l47.839-.39h4.731l15.4-.123h2.3Z" transform="translate(-70.548 -213.094)" fill="#efc6cd"/><path d="M388.057,646.51l4.449,23.67,120.973-1.82s9.1,2.629,8.9-4.652c0,0,18.412-17.4,111.67,2.831l-35.805-28.12-97.874,5.258-113.49-3.034Z" transform="translate(-158.307 -217.201)" fill="#09f"/><path d="M391.59,641.278l4.247,25.693s104.013-3.034,120.366-.2L503.845,643.3S440.953,637.436,391.59,641.278Z" transform="translate(-159.615 -217.632)" fill="#fff"/><path d="M391.59,641.278l4.247,25.693s104.013-3.034,120.366-.2L503.845,643.3S440.953,637.436,391.59,641.278Z" transform="translate(-159.615 -217.632)" opacity="0.1"/><path d="M393.74,641.183l4.189,23.894s102.691-2.817,118.871-.188l-12.185-21.821S442.482,637.608,393.74,641.183Z" transform="translate(-160.212 -217.631)" fill="#fff"/><path d="M396.35,642.228l4.081,22.348s100.438-2.637,116.293-.173l-11.918-20.42S444.03,638.855,396.35,642.228Z" transform="translate(-160.937 -217.94)" opacity="0.1"/><path d="M397.47,641.1l4.1,22.392s100.438-2.636,116.293-.173l-11.947-20.442S445.15,637.76,397.47,641.1Z" transform="translate(-161.248 -217.632)" fill="#fff"/><path d="M293.533,557.41s5.258,6.869-2.42,17.249-14.02,19.134-11.456,25.606c0,0,11.557-19.271,21.019-19.5S303.913,569,293.533,557.41Z" transform="translate(-128.373 -194.706)" fill="#09f"/><path d="M293.647,557.41a8.349,8.349,0,0,1,1.076,2.167c9.2,10.835,14.107,20.947,5.258,21.164-8.242.231-18.123,14.966-20.492,18.694q.123.419.282.845s11.557-19.271,21.019-19.5S304.027,569,293.647,557.41Z" transform="translate(-128.487 -194.706)" opacity="0.1"/><path d="M312.153,568.944c0,2.413-.274,4.377-.607,4.377s-.607-1.965-.607-4.377.34-1.286.672-1.286S312.153,566.524,312.153,568.944Z" transform="translate(-137.22 -197.478)" fill="#ffd037"/><path d="M315.667,572.889c-2.124,1.163-3.973,1.864-4.132,1.567s1.445-1.445,3.554-2.629,1.286-.318,1.445,0S317.791,571.734,315.667,572.889Z" transform="translate(-137.382 -198.542)" fill="#ffd037"/><path d="M256.125,557.41s-5.258,6.869,2.427,17.249,14.013,19.134,11.456,25.606c0,0-11.593-19.271-21.027-19.5S245.745,569,256.125,557.41Z" transform="translate(-118.723 -194.706)" fill="#09f"/><path d="M256.125,557.41a8.669,8.669,0,0,0-1.076,2.167c-9.2,10.835-14.107,20.947-5.258,21.164,8.242.231,18.13,14.966,20.5,18.694a8.664,8.664,0,0,1-.282.845s-11.593-19.271-21.027-19.5S245.745,569,256.125,557.41Z" transform="translate(-118.723 -194.706)" opacity="0.1"/><path d="M247.13,568.944c0,2.413.275,4.377.607,4.377s.607-1.965.607-4.377-.339-1.286-.672-1.286S247.13,566.524,247.13,568.944Z" transform="translate(-119.501 -197.478)" fill="#ffd037"/><path d="M241.995,572.889c2.124,1.163,3.98,1.864,4.139,1.567s-1.445-1.445-3.554-2.629-1.286-.318-1.445,0S239.871,571.734,241.995,572.889Z" transform="translate(-117.717 -198.542)" fill="#ffd037"/><path d="M297.258,602.677l-.26,2.167-.368,3.026-.152,1.264-.368,3.034-.159,1.264-.376,3.034-4.2,34.469c-.376,3.077-5.4,5.475-11.47,5.475H258.073c-6.067,0-11.088-2.4-11.463-5.475L242.4,616.466l-.368-3.034-.152-1.264-.376-3.034-.152-1.264-.368-3.026-.267-2.167c-.209-1.741,2.506-3.207,5.945-3.207h44.682C294.774,599.47,297.5,600.936,297.258,602.677Z" transform="translate(-117.717 -206.385)" fill="#65617d"/><path d="M226.687,551.59l-.368,3.034h-55.3l-.368-3.034Z" transform="translate(-47.384 -153.153)" fill="#9d9cb5"/><path d="M226.367,557.54,226,560.574H171.746l-.376-3.034Z" transform="translate(-47.584 -154.805)" fill="#9d9cb5"/><path d="M226.042,563.49l-.368,3.026H172.468l-.368-3.026Z" transform="translate(-47.786 -156.457)" fill="#9d9cb5"/><path d="M406.1,598.146s-14.027-13.486-13.486,4.045S406.1,598.146,406.1,598.146Z" transform="translate(-159.895 -204.642)" fill="#ee8e9e"/><path d="M526.732,536.97c-.311,1.358-1.82,3.612-4.175,6.436C510.393,558.054,475.787,588.5,469,594.148c-8.09,6.746-26.162,4.334-26.162,4.334l-33.443.542s-33.176-1.351-35.877-40.45,38.839,11.868,38.839,11.868,10.4,1.994,13.76,1.618c4.854-.534,15.1-6.2,15.1-6.2s7.014-5.129,13.486-9.441,30.749-32.909,35.068-42.891c2.738-6.335,11.557-16.693,17.646-23.41,3.5-3.864,6.089-6.5,6.089-6.5S528.617,528.606,526.732,536.97Z" transform="translate(-154.563 -174.215)" fill="#ee8e9e"/><path d="M578.257,536.959c-.311,1.358-1.82,3.612-4.175,6.436-12.279-12.5-14.844-37.452-15.133-53.314,3.5-3.864,6.089-6.5,6.089-6.5S580.143,528.595,578.257,536.959Z" transform="translate(-206.089 -174.204)" opacity="0.1"/><path d="M732.043,506.107h0L720.378,519.7l-15.248.925-24.407,1.5S647.814,482.473,654,473.841c2.246-3.113,2.615-7.223,2.167-11.1-.058-.534-.137-1.069-.231-1.6A46.146,46.146,0,0,0,652.09,449.3l.809-.368.52-.238a51.8,51.8,0,0,1,2.644,11.059c.079.513.152,1.047.224,1.6.253,1.95.484,4.117.722,6.5,1.878,21.828,15.609,30.041,21.807,32.656a62.889,62.889,0,0,1,5.836,2.824,31.139,31.139,0,0,0,19.575,3.539c15.3-2.008,27.773-13.124,27.773-13.124l.065,10.943Z" transform="translate(-231.952 -164.516)" opacity="0.1"/><path d="M707.189,589.612s-100.337-.275-113.562-9.441-5.389-21.308-5.663-24.277-5.93-10.517-7.815-12.684,1.618-4.854,1.076-10.784-5.121,0-5.121,0c-18.889-19.156-14.844-67.7-14.844-67.7s18.058-4.579,26.726-8.1c2.347-.953,6-2.311,10.112-3.778l1.524-.549c10.6-3.792,23.193-8.075,23.193-8.075s2.42-1.712,4.854,3.409c1.112,2.355,2.232,6.147,3.128,12.207.079.513.152,1.047.224,1.6.253,1.95.484,4.117.722,6.5,1.878,21.828,15.609,30.041,21.807,32.656a62.873,62.873,0,0,1,5.836,2.824,31.139,31.139,0,0,0,19.575,3.539c15.3-2.008,27.773-13.125,27.773-13.125l.065,10.943.188,32.88Z" transform="translate(-206.629 -163.2)" fill="#dfe5ee"/><path d="M715.44,585.181l-1.618,10.25s-39.922,9.975-55.56,12.944-49.363-.809-51.79,5.663,10.25,15.378,10.25,15.378l40.45-.542,76.334,5.937s29.131-25.628,19.69-43.433S715.44,585.181,715.44,585.181Z" transform="translate(-219.199 -201.385)" fill="#ee8e9e"/><path d="M637.685,474.58s-18.347,15.1-14.836,22.392S637.685,474.58,637.685,474.58Z" transform="translate(-223.709 -171.705)" opacity="0.1"/><path d="M605.433,512.29s-18.614,32.1-17.531,34.527,6.2,11.059,5.93,4.587S605.433,512.29,605.433,512.29Z" transform="translate(-214.116 -182.177)" opacity="0.1"/><path d="M619,520.14s-4.334,19.958-8.632,28.322S619,520.14,619,520.14Z" transform="translate(-220.123 -184.357)" opacity="0.1"/><path d="M680.709,432.469a46.662,46.662,0,0,1-35.466,24h-.087a46.582,46.582,0,0,1-32.836-8.6c10.835-3.915,24.718-8.624,24.718-8.624s2.42-1.712,4.854,3.409l36.419-16.613a19.31,19.31,0,0,0,2.4,6.429Z" transform="translate(-220.909 -158.226)" opacity="0.1"/><path d="M679,383.833a46.454,46.454,0,0,1-6.14,23.157,47.009,47.009,0,0,1-6.956,9.26,46.467,46.467,0,0,1-28.286,13.984h-.094a45.574,45.574,0,0,1-5.186.3,46.662,46.662,0,0,1-46.365-41.4,45.321,45.321,0,0,1-.3-5.265,46.662,46.662,0,1,1,93.323,0Z" transform="translate(-213.511 -133.557)" fill="#ee8e9e"/><path d="M755.477,515.243l4.334-6.5s23.735-28.322,46.95-10.25l-.809,24.819s-1.083,7.548-2.7,11.557a7.9,7.9,0,0,0,.809,7.288s1.351,6.5-.534,6.5-5.128,9.708-5.128,9.708-4.587,9.982-1.885,14.569,8.632,19.958,8.632,19.958-9.441-5.663-12.142-15.1c0,0-22.926-17.805-40.731-6.5Z" transform="translate(-259.771 -176.671)" opacity="0.1"/><path d="M808.756,493.493c-.217,9.838-1.82,14.085-1.82,14.085l-40.731,6.2-1.524-10.575C770.011,497.646,789.4,479.964,808.756,493.493Z" transform="translate(-263.217 -175.572)" opacity="0.1"/><path d="M755.477,513.243l4.334-6.5s23.735-28.322,46.95-10.25l-.809,24.819s-1.083,7.548-2.7,11.557a7.9,7.9,0,0,0,.809,7.288s1.351,6.5-.534,6.5-5.128,9.708-5.128,9.708-4.587,9.982-1.885,14.569,8.632,19.958,8.632,19.958-9.441-5.663-12.142-15.1c0,0-22.926-17.8-40.731-6.5Z" transform="translate(-259.771 -176.116)" fill="#dfe5ee"/><path d="M795.4,496.61s-39.106,24.01-37.221,45.065C758.175,541.675,780.025,503.082,795.4,496.61Z" transform="translate(-261.392 -177.823)" opacity="0.1"/><path d="M713.564,475.146l.188,32.88c-7.4.332-14.367-.628-19.878-5.417-3.836-3.337-6.068-7.945-7.223-12.929a45.8,45.8,0,0,1-.939-12.229.644.644,0,0,1,0-.123c.455-9.08,2.542-18.159,1.445-27.181S680.59,431.6,671.663,429.7c-1.762-.383-3.742-.52-5-1.813-1.387-1.445-1.322-3.691-1.17-5.692l.26-3.373c.065-.867.094-1.726.094-2.586a33.1,33.1,0,0,0-26.725-32.461l-.289-.051c-2.514-.506-5.128-1-7.642-.426-4.782,1.105-7.873,5.742-12.279,7.945-8.451,4.218-22.543-.4-31.392-1.849-.578-.094-1.127-.2-1.654-.325a45.312,45.312,0,0,1-.3-5.266,46.661,46.661,0,1,1,87.183,23.157c.137.274.289.549.448.809,9.816,16.252,41.295,5.974,41.295,5.974l1.892,57.995Z" transform="translate(-213.481 -133.547)" opacity="0.1"/><path d="M615.97,377.6c4.377-2.21,7.469-6.848,12.279-7.945,2.506-.578,5.121-.079,7.649.419l.289.058a33.133,33.133,0,0,1,26.6,35.054l-.26,3.373c-.159,1.994-.224,4.254,1.177,5.685,1.25,1.293,3.229,1.445,4.991,1.806,8.928,1.907,14.4,11.376,15.494,20.449s-1.026,18.181-1.445,27.3,1.257,19.177,8.148,25.165c10.835,9.39,27.3,4.045,41.641,3.185-6.342,0-11.095-6.544-11.442-12.872s2.47-12.352,5.165-18.058,5.4-11.846,4.8-18.159c-.823-8.668-7.657-15.609-10.271-23.952-3.048-9.708-.108-20.131,1.271-30.222,2.593-18.9-1.445-40.168-16.072-52.382-6.125-5.107-13.616-8.249-20.348-12.525-12.063-7.649-21.576-18.867-33.768-26.307s-29.311-10.2-39.951-.665c-4.117,3.691-6.775,8.812-11.008,12.373-8.27,6.97-21.417,7.1-28.047,15.653-5.706,7.36-4.161,17.812-2.333,26.95,2.434,12.185,1.062,21.669,14.085,23.836C593.427,377.212,607.512,381.827,615.97,377.6Z" transform="translate(-208.842 -120.702)" fill="#603556"/><path d="M723.241,498.971c-10.437,1.278-20.781,1.936-28.38-4.652-6.891-5.988-8.588-16.043-8.148-25.165s2.55-18.238,1.445-27.3-6.566-18.535-15.494-20.441c-1.762-.376-3.734-.513-4.991-1.806-1.394-1.445-1.336-3.7-1.177-5.692l.26-3.373a33.125,33.125,0,0,0-26.6-35.047l-.289-.058c-2.528-.5-5.143-1-7.649-.419-4.782,1.105-7.873,5.779-12.279,7.945-8.458,4.226-22.536-.39-31.4-1.842-13-2.131-11.644-11.629-14.085-23.836-1.365-6.819-2.571-14.374-.722-20.832a11.34,11.34,0,0,0-1,1.163c-5.706,7.36-4.16,17.812-2.333,26.95,2.434,12.185,1.062,21.669,14.085,23.836,8.856,1.445,22.941,6.067,31.4,1.842,4.377-2.21,7.469-6.848,12.279-7.945,2.506-.578,5.121-.079,7.649.419l.289.058a33.133,33.133,0,0,1,26.6,35.054l-.26,3.373c-.159,1.994-.224,4.254,1.177,5.685,1.25,1.293,3.229,1.445,4.991,1.806,8.928,1.907,14.4,11.376,15.494,20.449s-1.018,18.181-1.445,27.3,1.257,19.177,8.148,25.165c10.835,9.39,27.3,4.045,41.641,3.185C728.557,504.807,725.285,502.337,723.241,498.971Z" transform="translate(-208.805 -133.348)" opacity="0.1"/><path d="M374.27,588.32,418.8,571.707a4.24,4.24,0,0,1,5.453,2.485h0a4.24,4.24,0,0,1-2.485,5.453l-44.531,16.613-9.549-.953Z" transform="translate(-152.979 -198.601)" fill="#5c5c8e"/><path d="M422.9,573.09h0a4.24,4.24,0,0,1-2.492,5.453l-44.56,16.671-7.165-.722-1.033,1.1,9.549.953L421.73,579.93a4.24,4.24,0,0,0,2.485-5.453h0a4.24,4.24,0,0,0-1.734-2.116,4.918,4.918,0,0,1,.419.73Z" transform="translate(-152.968 -198.857)" fill="#fff" opacity="0.1"/><path d="M303.84,539.52l2.961,7.938-7.83-.787-1.712-.173,2.34-2.485Z" transform="translate(-82.541 -149.801)" fill="#efc8c4"/><path d="M370.039,601a1.891,1.891,0,0,1,.462.5.722.722,0,0,1,0,.773,1.539,1.539,0,0,1-.426.311,1.444,1.444,0,0,0-.636,1.069l-1.719-.166Z" transform="translate(-152.987 -206.81)" fill="#727a9c"/><path d="M570.054,655.051s38.572-8.1,103.291,2.167l-25.353-18.607-46.127-9.441-32.634,8.668Z" transform="translate(-208.943 -214.633)" fill="#fff"/><path d="M570.054,655.051s38.572-8.1,103.291,2.167l-25.353-18.607-46.127-9.441-32.634,8.668Z" transform="translate(-208.943 -214.633)" opacity="0.1"/><path d="M559.378,664.658s19.423-52.541,119.182.166l-35.805-23.042s-85.775-23.7-95.685,3.612Z" transform="translate(-202.79 -215.486)" fill="#fff"/><path d="M559.359,663.155s19.423-56.174,119.182,1.011l-35.805-24.992S556.932,610.831,547,640.5Z" transform="translate(-202.771 -214.019)" opacity="0.1"/><path d="M559.378,663.094s19.423-57.005,119.182.181l-35.805-24.992s-85.775-27.535-95.685,2.167Z" transform="translate(-202.79 -213.936)" fill="#fff"/><path d="M559.367,662.218s19.423-63.354,119.182.975l-35.834-28.12s-85.775-28.892-95.685,4.449Z" transform="translate(-202.779 -213.046)" opacity="0.1"/><path d="M559.367,661.871s19.423-64.127,119.182.2l-35.834-28.12S556.94,605.061,547.03,638.4Z" transform="translate(-202.779 -212.735)" fill="#fff"/><path d="M974.072,668.71s-23.945,25.649-2.391,38.109c0,0,2.817,3.395,6.84,1.618,0,0-1.358-1.206,1.365-3.532a16.157,16.157,0,0,0,2.564-2.817,7.946,7.946,0,0,0,1.488-4.811h0s3.135-10.177-6.826-23.388c0,0-.9-4.421-1.669-4.9l-1.82,6.161s4.572,1.163,6.291,4.645c0,0-6.024-4.731-6.609-3.742-.115.2-.816,3.315-.816,3.315s7.945,2.051,10.43,7.512c0,0-6.421-6.595-10.7-6.335l-.78,4.753s8.5,1.763,11.557,7.873c0,0-6.949-6.667-11.673-6.819l-.137,4.774S979.439,693,981.96,698.1c0,0-8.8-6.884-10.734-5.88,0,0,.137,4.4.722,5.547,0,0,5.894,1.445,7.093,4.579,0,0-6.371-3.98-6.92-3.373,0,0,1.712,5.677,4.1,8.1a17.97,17.97,0,0,1-4.969-7.787,9.909,9.909,0,0,0-1.2,5.54s-2.362-2.615.8-6.92c0,0-1.156-4.478-.867-5.186,0,0-3.72,3.807-4.673,7.223,0,0-.722-4.276,4.666-8.458v-4.811s-5.186,4.774-6.255,7.729c0,0-.072-4.478,6.364-8.935l.722-4.673s-4.782,3.77-6.681,6.8c0,0,.823-4.175,6.934-8.133l.845-3.063s-3.438,2.817-4.334,3.713-1.235.722-1.235.722a15.169,15.169,0,0,1,5.923-5.735S974.469,668.876,974.072,668.71Z" transform="translate(-318.2 -225.612)" fill="#09f" opacity="0.1"/><path d="M1118.586,90.91s-31.991,14.446-16.909,34.23c0,0,1.293,4.226,5.684,4.139,0,0-.787-1.64,2.622-2.738a15.83,15.83,0,0,0,3.453-1.611,7.947,7.947,0,0,0,3.229-3.864h0s6.818-8.177,2.723-24.2c0,0,.874-4.428.354-5.172l-4.059,4.984s3.77,2.831,4.016,6.71c0,0-3.727-6.689-4.652-6-.188.137-2.03,2.738-2.03,2.738s6.5,4.955,6.725,10.958c0,0-3.38-8.567-7.44-9.982l-2.55,4.088s7.166,4.9,7.642,11.723c0,0-3.843-8.827-8.141-10.791l-1.972,4.334s6.9,4.919,7.223,10.6c0,0-5.468-9.751-7.635-9.563,0,0-1.567,4.1-1.445,5.4,0,0,4.868,3.612,4.781,6.963,0,0-4.334-6.125-5.056-5.779,0,0-.614,5.894.657,9.051a17.93,17.93,0,0,1-1.582-9.1,9.885,9.885,0,0,0-3.243,4.652s-1.17-3.33,3.409-6.082c0,0,.657-4.572,1.2-5.114,0,0-4.9,2.073-7.086,4.832,0,0,.975-4.226,7.57-6l1.878-4.421s-6.624,2.4-8.754,4.709c0,0,1.661-4.161,9.318-5.779l2.463-4.031s-5.865,1.64-8.791,3.7c0,0,2.376-3.525,9.542-4.825l1.957-2.5s-4.261,1.271-5.454,1.748-1.445.2-1.445.2a15.169,15.169,0,0,1,7.722-3S1118.846,91.2,1118.586,90.91Z" transform="translate(-355.674 -65.165)" fill="#09f" opacity="0.1"/><path d="M694.313,103.29s-48.063,13.724-24.7,34.151c0,0,2.073,4.334,8.726,4.334,0,0-1.242-1.676,3.9-2.694a30.548,30.548,0,0,0,5.186-1.531,9.253,9.253,0,0,0,4.782-3.821h0s10.112-8.09,3.474-24.4c0,0,1.206-4.449.4-5.215l-6.01,4.926s5.779,2.969,6.263,6.891c0,0-5.829-6.855-7.223-6.183-.282.137-3,2.709-3,2.709s10.026,5.186,10.481,11.261c0,0-5.345-8.747-11.557-10.286l-3.756,4.059s10.979,5.15,11.882,12.055c0,0-6.053-9.022-12.612-11.124l-2.889,4.334s10.575,5.157,11.268,10.907c0,0-8.545-10-11.824-9.881,0,0-2.261,4.117-2.059,5.425,0,0,7.469,3.814,7.433,7.165,0,0-6.746-6.313-7.859-5.981,0,0-.766,5.945,1.242,9.166,0,0-3.482-4.63-2.644-9.238,0,0-3.821,1.914-4.782,4.608,0,0-1.864-3.388,5-6.046,0,0,.874-4.608,1.676-5.143,0,0-7.368,1.965-10.6,4.7,0,0,1.358-4.247,11.3-5.865l2.73-4.421s-9.968,2.254-13.132,4.529c0,0,2.405-4.161,13.962-5.605l3.612-4.009s-8.841,1.5-13.218,3.5c0,0,3.5-3.5,14.316-4.623l2.889-2.47s-6.421,1.17-8.213,1.618-2.167.159-2.167.159a28.452,28.452,0,0,1,11.557-2.831S694.732,103.593,694.313,103.29Z" transform="translate(-235.04 -68.603)" fill="#09f" opacity="0.1"/><path d="M898.7,829.229s24.2-25.418,2.766-38.088c0,0-2.788-3.424-6.826-1.69,0,0,1.351,1.221-1.394,3.525a16.306,16.306,0,0,0-2.593,2.788,7.894,7.894,0,0,0-1.531,4.8h0s-3.243,10.148,6.595,23.454c0,0,.86,4.428,1.618,4.926l1.885-6.147s-4.565-1.206-6.248-4.7c0,0,5.974,4.782,6.566,3.8.123-.2.852-3.3.852-3.3s-7.945-2.167-10.358-7.613c0,0,6.356,6.66,10.647,6.436l.823-4.746s-8.48-1.842-11.492-7.945c0,0,6.884,6.732,11.608,6.934l.181-4.782s-8.242-1.994-10.741-7.122c0,0,8.74,6.978,10.676,5.988,0,0-.094-4.392-.722-5.547,0,0-5.88-1.546-7.05-4.652,0,0,6.335,4.045,6.884,3.438,0,0-1.654-5.692-4.016-8.133a17.961,17.961,0,0,1,4.9,7.83,9.874,9.874,0,0,0,1.25-5.526s2.34,2.644-.867,6.912c0,0,1.112,4.493.816,5.193,0,0,3.756-3.771,4.738-7.144,0,0,.722,4.283-4.746,8.408l-.072,4.811s5.23-4.724,6.328-7.671c0,0,0,4.486-6.45,8.877L902,817.2s4.818-3.727,6.746-6.739c0,0-.867,4.161-7.014,8.061l-.874,3.055s3.467-2.781,4.392-3.669,1.242-.722,1.242-.722a15.119,15.119,0,0,1-5.981,5.677S898.34,829.056,898.7,829.229Z" transform="translate(-297.631 -259.004)" fill="#09f" opacity="0.1"/><path d="M575.85,56.2s4.124,34.844,27.556,26.437c0,0,4.413.036,5.656-4.182,0,0-1.806.26-1.82-3.323a16.172,16.172,0,0,0-.5-3.778,7.888,7.888,0,0,0-2.709-4.24h0s-5.75-8.971-22.3-9.852c0,0-3.958-2.167-4.825-1.892l3.532,5.367s3.835-2.745,7.606-1.806c0,0-7.5,1.546-7.115,2.629.072.224,1.994,2.759,1.994,2.759s6.754-4.767,12.532-3.142c0,0-9.181.636-11.752,4.081l3.084,3.669s6.833-5.36,13.486-3.763c0,0-9.578,1.011-12.749,4.514l3.6,3.193s6.761-5.1,12.279-3.727c0,0-10.95,2.283-11.427,4.4,0,0,3.446,2.73,4.717,3.019,0,0,4.941-3.547,8.076-2.463,0,0-7.151,2.3-7.043,3.106,0,0,5.439,2.355,8.827,2.095a18.329,18.329,0,0,1-9.152-1.228,9.9,9.9,0,0,0,3.46,4.493s-3.525.108-4.774-5.056c0,0-4.161-2.008-4.515-2.68,0,0,.506,5.295,2.478,8.205,0,0-3.741-2.167-3.453-9.022l-3.612-3.128s.3,7.043,1.856,9.773c0,0-3.467-2.839-2.716-10.632l-3.1-3.561s-.209,6.082.874,9.491c0,0-2.651-3.323-1.726-10.546l-1.8-2.622s-.065,4.442,0,5.728-.246,1.409-.246,1.409a15.168,15.168,0,0,1-.563-8.256S576.211,56.028,575.85,56.2Z" transform="translate(-210.782 -55.29)" fill="#09f" opacity="0.1"/><path d="M804.729,734.632s-33.819-9.39-34.9,15.486c0,0-1.7,4.074,1.726,6.819,0,0,.441-1.763,3.763-.426a16.186,16.186,0,0,0,3.684.975,7.9,7.9,0,0,0,4.955-.91h0s10.474-1.921,17.581-16.859c0,0,3.5-2.839,3.612-3.749l-6.306,1.235s1.083,4.594-1.214,7.729c0,0,1.445-7.526.267-7.584-.238,0-3.315.8-3.315.8s1.849,7.989-1.842,12.72c0,0,2.889-8.74.672-12.424l-4.579,1.51s2.369,8.35-1.632,13.9c0,0,2.7-9.238.65-13.5l-4.291,2.088s2.167,8.191-1.206,12.785c0,0,2.037-10.994.253-12.243,0,0-3.828,2.167-4.572,3.222,0,0,1.445,5.916-.78,8.408,0,0,.578-7.49-.209-7.693,0,0-4.247,4.139-5.287,7.375a17.959,17.959,0,0,1,4.608-8,9.919,9.919,0,0,0-5.468,1.5s1.228-3.3,6.5-2.485c0,0,3.438-3.1,4.2-3.164,0,0-5.056-1.546-8.538-.824,0,0,3.453-2.629,9.657.231l4.276-2.167s-6.631-2.391-9.744-1.979c0,0,3.937-2.167,10.835,1.51l4.464-1.524s-5.547-2.492-9.116-2.781c0,0,4.081-1.192,10.416,2.4l3.106-.672s-4.088-1.748-5.309-2.167-1.214-.722-1.214-.722a15.168,15.168,0,0,1,7.823,2.6S804.751,735.029,804.729,734.632Z" transform="translate(-264.529 -243.435)" fill="#09f" opacity="0.1"/></g></svg>