<svg xmlns="http://www.w3.org/2000/svg" width="29.575" height="29.575" viewBox="0 0 29.575 29.575"><path d="M14.791,0h-.007A14.778,14.778,0,0,0,2.815,23.455L.972,28.948l5.684-1.817A14.785,14.785,0,1,0,14.791,0Z" fill="#4caf50"/><path d="M124.464,131.206a4.173,4.173,0,0,1-2.9,2.087c-.773.165-1.782.3-5.179-1.113-4.346-1.8-7.144-6.216-7.362-6.5a8.446,8.446,0,0,1-1.756-4.46,4.721,4.721,0,0,1,1.512-3.6,2.148,2.148,0,0,1,1.512-.53c.183,0,.348.009.5.017.434.018.653.044.939.73.357.86,1.226,2.982,1.329,3.2a.88.88,0,0,1,.063.8,2.555,2.555,0,0,1-.479.678c-.218.251-.425.444-.643.714-.2.235-.425.486-.174.921a13.125,13.125,0,0,0,2.4,2.982,10.872,10.872,0,0,0,3.468,2.139.935.935,0,0,0,1.043-.165,17.893,17.893,0,0,0,1.155-1.531.825.825,0,0,1,1.061-.322c.4.139,2.512,1.183,2.946,1.4s.721.322.826.5A3.682,3.682,0,0,1,124.464,131.206Z" transform="translate(-101.068 -110.325)" fill="#fafafa"/></svg>